{
.appVersion = "909";
DisplayStrings = (
F
);
date = "2014-04-12 05:53:22 +0000";
familyName = Pacifico;
fontMaster = (
{
ascender = 708;
capHeight = 679;
descender = -459;
id = "1677BB6F-42BC-4502-A615-23038A63E498";
xHeight = 343;
}
);
glyphs = (
{
glyphname = A;
lastChange = "2016-07-25 08:03:28 +0000";
layers = (
{
anchors = (
{
name = ogonek;
position = "{545, -56}";
}
);
layerId = "1677BB6F-42BC-4502-A615-23038A63E498";
paths = (
{
closed = 1;
nodes = (
"292 -71 CURVE SMOOTH",
"414 -63 OFFCURVE",
"502 54 OFFCURVE",
"493 94 CURVE",
"493 94 OFFCURVE",
"483 57 OFFCURVE",
"486 18 CURVE SMOOTH",
"489 -18 OFFCURVE",
"508 -51 OFFCURVE",
"551 -63 CURVE SMOOTH",
"603 -77 OFFCURVE",
"676 -49 OFFCURVE",
"710 -11 CURVE SMOOTH",
"717 -3 OFFCURVE",
"719 7 OFFCURVE",
"719 14 CURVE SMOOTH",
"719 38 OFFCURVE",
"701 55 OFFCURVE",
"682 55 CURVE SMOOTH",
"673 55 OFFCURVE",
"667 52 OFFCURVE",
"660 46 CURVE SMOOTH",
"640 29 OFFCURVE",
"613 13 OFFCURVE",
"593 22 CURVE SMOOTH",
"569 33 OFFCURVE",
"564 64 OFFCURVE",
"587 164 CURVE SMOOTH",
"660 477 LINE SMOOTH",
"668 511 OFFCURVE",
"655 532 OFFCURVE",
"605 530 CURVE SMOOTH",
"583 529 OFFCURVE",
"567 522 OFFCURVE",
"562 501 CURVE SMOOTH",
"485 207 LINE SMOOTH",
"458 103 OFFCURVE",
"404 29 OFFCURVE",
"306 25 CURVE SMOOTH",
"35 13 OFFCURVE",
"157 622 OFFCURVE",
"532 620 CURVE SMOOTH",
"597 620 OFFCURVE",
"662 599 OFFCURVE",
"721 557 CURVE",
"729 550 OFFCURVE",
"739 548 OFFCURVE",
"747 548 CURVE SMOOTH",
"769 548 OFFCURVE",
"786 567 OFFCURVE",
"786 591 CURVE SMOOTH",
"786 600 OFFCURVE",
"784 615 OFFCURVE",
"771 625 CURVE SMOOTH",
"533 838 OFFCURVE",
"78 650 OFFCURVE",
"55 197 CURVE SMOOTH",
"45 -4 OFFCURVE",
"155 -80 OFFCURVE"
);
}
);
width = 706;
}
);
unicode = 0041;
userData = {
com.typemytype.robofont.layerData = {
};
};
},
{
glyphname = B;
lastChange = "2016-07-25 08:03:28 +0000";
layers = (
{
layerId = "1677BB6F-42BC-4502-A615-23038A63E498";
paths = (
{
closed = 1;
nodes = (
"223 -90 CURVE SMOOTH",
"414 -90 OFFCURVE",
"598 39 OFFCURVE",
"598 176 CURVE SMOOTH",
"598 253 OFFCURVE",
"511 303 OFFCURVE",
"453 307 CURVE",
"576 307 OFFCURVE",
"640 398 OFFCURVE",
"653 458 CURVE SMOOTH",
"677 564 OFFCURVE",
"587 681 OFFCURVE",
"370 681 CURVE SMOOTH",
"197 681 OFFCURVE",
"98 618 OFFCURVE",
"31 559 CURVE SMOOTH",
"-4 525 OFFCURVE",
"49 451 OFFCURVE",
"112 503 CURVE SMOOTH",
"178 559 OFFCURVE",
"246 593 OFFCURVE",
"375 593 CURVE SMOOTH",
"499 593 OFFCURVE",
"542 532 OFFCURVE",
"538 468 CURVE SMOOTH",
"534 428 OFFCURVE",
"512 334 OFFCURVE",
"367 336 CURVE SMOOTH",
"334 338 LINE",
"308 337 OFFCURVE",
"282 334 OFFCURVE",
"282 308 CURVE SMOOTH",
"280 255 OFFCURVE",
"484 301 OFFCURVE",
"484 171 CURVE SMOOTH",
"484 85 OFFCURVE",
"365 -13 OFFCURVE",
"213 -13 CURVE SMOOTH",
"179 -13 OFFCURVE",
"180 -8 OFFCURVE",
"180 15 CURVE SMOOTH",
"180 163 OFFCURVE",
"215 397 OFFCURVE",
"283 480 CURVE",
"271 501 OFFCURVE",
"256 512 OFFCURVE",
"233 512 CURVE SMOOTH",
"138 512 OFFCURVE",
"63 350 OFFCURVE",
"63 -23 CURVE SMOOTH",
"63 -65 OFFCURVE",
"124 -90 OFFCURVE"
);
}
);
width = 609.004;
}
);
unicode = 0042;
userData = {
com.typemytype.robofont.layerData = {
};
};
},
{
glyphname = C;
lastChange = "2016-07-25 08:03:28 +0000";
layers = (
{
anchors = (
{
name = bot;
position = "{305, -70}";
}
);
layerId = "1677BB6F-42BC-4502-A615-23038A63E498";
paths = (
{
closed = 1;
nodes = (
"55 184 CURVE SMOOTH",
"57 38 OFFCURVE",
"133 -86 OFFCURVE",
"304 -95 CURVE SMOOTH",
"456 -103 OFFCURVE",
"585 3 OFFCURVE",
"629 121 CURVE SMOOTH",
"643 158 OFFCURVE",
"588 180 OFFCURVE",
"570 153 CURVE SMOOTH",
"516 72 OFFCURVE",
"444 -9 OFFCURVE",
"326 -2 CURVE SMOOTH",
"217 5 OFFCURVE",
"170 99 OFFCURVE",
"171 210 CURVE SMOOTH",
"173 397 OFFCURVE",
"296 591 OFFCURVE",
"467 580 CURVE SMOOTH",
"515 577 OFFCURVE",
"539 543 OFFCURVE",
"539 505 CURVE SMOOTH",
"540 455 OFFCURVE",
"499 397 OFFCURVE",
"418 387 CURVE SMOOTH",
"382 383 OFFCURVE",
"362 370 OFFCURVE",
"359 347 CURVE SMOOTH",
"355 313 OFFCURVE",
"382 299 OFFCURVE",
"430 305 CURVE SMOOTH",
"558 321 OFFCURVE",
"630 424 OFFCURVE",
"632 516 CURVE SMOOTH",
"634 593 OFFCURVE",
"587 664 OFFCURVE",
"482 671 CURVE SMOOTH",
"244 688 OFFCURVE",
"52 438 OFFCURVE"
);
}
);
width = 603;
}
);
unicode = 0043;
userData = {
com.typemytype.robofont.layerData = {
};
};
},
{
glyphname = D;
lastChange = "2016-07-25 08:03:28 +0000";
layers = (
{
anchors = (
{
name = bot;
position = "{227, -36}";
}
);
layerId = "1677BB6F-42BC-4502-A615-23038A63E498";
paths = (
{
closed = 1;
nodes = (
"223 -51 CURVE SMOOTH",
"400 -43 OFFCURVE",
"636 76 OFFCURVE",
"633 399 CURVE SMOOTH",
"630 588 OFFCURVE",
"497 701 OFFCURVE",
"265 682 CURVE SMOOTH",
"193 676 OFFCURVE",
"111 649 OFFCURVE",
"61 588 CURVE SMOOTH",
"47 571 OFFCURVE",
"31 536 OFFCURVE",
"32 502 CURVE SMOOTH",
"31 486 OFFCURVE",
"38 457 OFFCURVE",
"64 457 CURVE SMOOTH",
"87 457 OFFCURVE",
"129 526 OFFCURVE",
"132 531 CURVE SMOOTH",
"176 576 OFFCURVE",
"232 586 OFFCURVE",
"278 588 CURVE SMOOTH",
"445 594 OFFCURVE",
"528 501 OFFCURVE",
"534 394 CURVE SMOOTH",
"540 201 OFFCURVE",
"379 25 OFFCURVE",
"210 25 CURVE SMOOTH",
"188 25 OFFCURVE",
"187 48 OFFCURVE",
"188 86 CURVE SMOOTH",
"187 212 OFFCURVE",
"250 428 OFFCURVE",
"309 502 CURVE",
"294 528 OFFCURVE",
"271 543 OFFCURVE",
"249 543 CURVE SMOOTH",
"233 542 OFFCURVE",
"218 535 OFFCURVE",
"207 519 CURVE SMOOTH",
"136 415 OFFCURVE",
"79 193 OFFCURVE",
"80 21 CURVE SMOOTH",
"79 4 OFFCURVE",
"90 -12 OFFCURVE",
"104 -20 CURVE SMOOTH",
"124 -32 OFFCURVE",
"176 -53 OFFCURVE"
);
}
);
width = 636;
}
);
unicode = 0044;
userData = {
com.typemytype.robofont.layerData = {
};
};
},
{
glyphname = E;
lastChange = "2016-07-25 08:03:28 +0000";
layers = (
{
anchors = (
{
name = bot;
position = "{271, -89}";
},
{
name = ogonek;
position = "{352, -87}";
}
);
layerId = "1677BB6F-42BC-4502-A615-23038A63E498";
paths = (
{
closed = 1;
nodes = (
"45 92 CURVE SMOOTH",
"44 -6 OFFCURVE",
"111 -99 OFFCURVE",
"259 -109 CURVE SMOOTH",
"442 -121 OFFCURVE",
"607 -13 OFFCURVE",
"681 69 CURVE SMOOTH",
"690 78 OFFCURVE",
"693 88 OFFCURVE",
"693 99 CURVE SMOOTH",
"693 124 OFFCURVE",
"677 153 OFFCURVE",
"652 153 CURVE SMOOTH",
"642 153 OFFCURVE",
"631 147 OFFCURVE",
"620 136 CURVE SMOOTH",
"537 49 OFFCURVE",
"408 -11 OFFCURVE",
"309 -12 CURVE SMOOTH",
"235 -13 OFFCURVE",
"178 18 OFFCURVE",
"169 94 CURVE SMOOTH",
"159 179 OFFCURVE",
"220 265 OFFCURVE",
"390 274 CURVE SMOOTH",
"433 276 OFFCURVE",
"443 298 OFFCURVE",
"443 325 CURVE SMOOTH",
"443 345 OFFCURVE",
"430 368 OFFCURVE",
"404 372 CURVE SMOOTH",
"288 391 OFFCURVE",
"250 416 OFFCURVE",
"250 498 CURVE SMOOTH",
"250 639 OFFCURVE",
"473 678 OFFCURVE",
"562 604 CURVE",
"501 586 OFFCURVE",
"500 539 OFFCURVE",
"512 508 CURVE SMOOTH",
"521 486 OFFCURVE",
"548 473 OFFCURVE",
"576 474 CURVE SMOOTH",
"614 475 OFFCURVE",
"654 501 OFFCURVE",
"651 562 CURVE SMOOTH",
"646 665 OFFCURVE",
"534 718 OFFCURVE",
"414 718 CURVE SMOOTH",
"272 717 OFFCURVE",
"121 643 OFFCURVE",
"122 489 CURVE SMOOTH",
"123 407 OFFCURVE",
"186 334 OFFCURVE",
"316 331 CURVE",
"143 334 OFFCURVE",
"46 210 OFFCURVE"
);
}
);
width = 576;
}
);
unicode = 0045;
userData = {
com.typemytype.robofont.layerData = {
};
};
},
{
glyphname = F;
lastChange = "2016-07-25 08:03:28 +0000";
layers = (
{
layerId = "1677BB6F-42BC-4502-A615-23038A63E498";
paths = (
{
closed = 1;
nodes = (
"123 -66 CURVE SMOOTH",
"308 -72 OFFCURVE",
"353 71 OFFCURVE",
"407 248 CURVE",
"442 248 OFFCURVE",
"501 251 OFFCURVE",
"543 255 CURVE SMOOTH",
"561 257 OFFCURVE",
"567 274 OFFCURVE",
"567 295 CURVE SMOOTH",
"567 321 OFFCURVE",
"558 337 OFFCURVE",
"539 337 CURVE SMOOTH",
"527 337 OFFCURVE",
"440 336 OFFCURVE",
"425 336 CURVE",
"451 421 OFFCURVE",
"477 548 OFFCURVE",
"480 612 CURVE",
"593 618 OFFCURVE",
"739 605 OFFCURVE",
"789 597 CURVE SMOOTH",
"809 594 OFFCURVE",
"815 625 OFFCURVE",
"817 646 CURVE SMOOTH",
"821 698 OFFCURVE",
"731 716 OFFCURVE",
"507 708 CURVE SMOOTH",
"-1 689 OFFCURVE",
"-9 345 OFFCURVE",
"59 280 CURVE SMOOTH",
"86 238 OFFCURVE",
"201 250 OFFCURVE",
"181 270 CURVE SMOOTH",
"109 338 OFFCURVE",
"115 567 OFFCURVE",
"396 604 CURVE",
"389 585 OFFCURVE",
"344 402 OFFCURVE",
"324 333 CURVE",
"286 332 OFFCURVE",
"246 326 OFFCURVE",
"246 286 CURVE SMOOTH",
"247 260 OFFCURVE",
"260 248 OFFCURVE",
"286 248 CURVE",
"304 248 LINE",
"254 85 OFFCURVE",
"196 47 OFFCURVE",
"141 46 CURVE SMOOTH",
"102 45 OFFCURVE",
"68 65 OFFCURVE",
"49 80 CURVE SMOOTH",
"19 104 OFFCURVE",
"-38 29 OFFCURVE",
"-13 -1 CURVE SMOOTH",
"15 -34 OFFCURVE",
"72 -64 OFFCURVE"
);
}
);
width = 565;
}
);
unicode = 0046;
userData = {
com.typemytype.robofont.layerData = {
};
};
},
{
glyphname = G;
lastChange = "2016-07-25 08:03:28 +0000";
layers = (
{
anchors = (
{
name = bot;
position = "{277, -321}";
}
);
layerId = "1677BB6F-42BC-4502-A615-23038A63E498";
paths = (
{
closed = 1;
nodes = (
"284 -311 CURVE SMOOTH",
"501 -392 OFFCURVE",
"627 -257 OFFCURVE",
"691 117 CURVE SMOOTH",
"708 204 OFFCURVE",
"676 227 OFFCURVE",
"556 227 CURVE SMOOTH",
"523 227 OFFCURVE",
"487 215 OFFCURVE",
"487 178 CURVE SMOOTH",
"487 142 OFFCURVE",
"514 134 OFFCURVE",
"553 134 CURVE SMOOTH",
"586 134 OFFCURVE",
"595 133 OFFCURVE",
"590 108 CURVE SMOOTH",
"584 77 LINE",
"342 -8 OFFCURVE",
"168 17 OFFCURVE",
"164 203 CURVE SMOOTH",
"159 564 OFFCURVE",
"583 658 OFFCURVE",
"583 517 CURVE SMOOTH",
"583 461 OFFCURVE",
"612 455 OFFCURVE",
"639 455 CURVE SMOOTH",
"669 455 OFFCURVE",
"697 468 OFFCURVE",
"697 513 CURVE SMOOTH",
"697 826 OFFCURVE",
"32 673 OFFCURVE",
"45 191 CURVE SMOOTH",
"53 -158 OFFCURVE",
"529 -58 OFFCURVE",
"575 20 CURVE",
"504 -206 OFFCURVE",
"446 -239 OFFCURVE",
"311 -196 CURVE SMOOTH",
"258 -179 OFFCURVE",
"198 -278 OFFCURVE"
);
}
);
width = 703;
}
);
unicode = 0047;
userData = {
com.typemytype.robofont.layerData = {
};
};
},
{
glyphname = H;
lastChange = "2016-07-25 08:03:28 +0000";
layers = (
{
layerId = "1677BB6F-42BC-4502-A615-23038A63E498";
paths = (
{
closed = 1;
nodes = (
"804 -76 CURVE SMOOTH",
"838 -49 OFFCURVE",
"805 27 OFFCURVE",
"771 5 CURVE SMOOTH",
"677 -55 OFFCURVE",
"504 -145 OFFCURVE",
"576 132 CURVE SMOOTH",
"634 355 LINE SMOOTH",
"694 587 OFFCURVE",
"836 588 OFFCURVE",
"826 472 CURVE SMOOTH",
"819 391 OFFCURVE",
"758 218 OFFCURVE",
"160 284 CURVE SMOOTH",
"111 289 OFFCURVE",
"79 215 OFFCURVE",
"141 207 CURVE SMOOTH",
"820 118 OFFCURVE",
"916 371 OFFCURVE",
"918 482 CURVE SMOOTH",
"921 656 OFFCURVE",
"662 733 OFFCURVE",
"549 374 CURVE SMOOTH",
"476 143 LINE SMOOTH",
"372 -185 OFFCURVE",
"618 -223 OFFCURVE"
);
},
{
closed = 1;
nodes = (
"136 -157 CURVE SMOOTH",
"183 -168 OFFCURVE",
"203 -130 OFFCURVE",
"216 -89 CURVE SMOOTH",
"356 356 LINE SMOOTH",
"405 512 OFFCURVE",
"400 612 OFFCURVE",
"314 663 CURVE SMOOTH",
"178 743 OFFCURVE",
"-43 653 OFFCURVE",
"-90 439 CURVE SMOOTH",
"-102 384 OFFCURVE",
"-31 351 OFFCURVE",
"0 432 CURVE SMOOTH",
"44 546 OFFCURVE",
"111 604 OFFCURVE",
"190 600 CURVE SMOOTH",
"260 596 OFFCURVE",
"308 534 OFFCURVE",
"263 401 CURVE SMOOTH",
"107 -56 LINE SMOOTH",
"78 -136 OFFCURVE",
"108 -150 OFFCURVE"
);
}
);
width = 820;
}
);
unicode = 0048;
userData = {
com.typemytype.robofont.layerData = {
};
};
},
{
glyphname = Hbar;
lastChange = "2016-07-25 08:03:28 +0000";
layers = (
{
components = (
{
name = H;
}
);
layerId = "1677BB6F-42BC-4502-A615-23038A63E498";
paths = (
{
closed = 1;
nodes = (
"124 380 CURVE SMOOTH",
"647 381 LINE",
"690 382 OFFCURVE",
"692 452 OFFCURVE",
"655 451 CURVE SMOOTH",
"134 434 LINE",
"86 432 OFFCURVE",
"84 380 OFFCURVE"
);
}
);
width = 768;
}
);
unicode = 0126;
},
{
glyphname = I;
lastChange = "2016-07-25 08:03:28 +0000";
layers = (
{
anchors = (
{
name = ogonek;
position = "{174, 0}";
}
);
layerId = "1677BB6F-42BC-4502-A615-23038A63E498";
paths = (
{
closed = 1;
nodes = (
"19 -33 CURVE SMOOTH",
"35 -38 OFFCURVE",
"180 -13 OFFCURVE",
"283 -9 CURVE SMOOTH",
"337 -7 OFFCURVE",
"340 52 OFFCURVE",
"314 63 CURVE SMOOTH",
"293 71 OFFCURVE",
"197 74 OFFCURVE",
"221 71 CURVE",
"222 181 OFFCURVE",
"313 487 OFFCURVE",
"355 559 CURVE",
"420 559 OFFCURVE",
"463 559 OFFCURVE",
"469 589 CURVE SMOOTH",
"477 630 OFFCURVE",
"481 662 OFFCURVE",
"447 662 CURVE SMOOTH",
"345 662 OFFCURVE",
"205 661 OFFCURVE",
"178 661 CURVE SMOOTH",
"146 661 OFFCURVE",
"132 604 OFFCURVE",
"145 576 CURVE SMOOTH",
"157 550 OFFCURVE",
"183 555 OFFCURVE",
"265 557 CURVE",
"209 446 OFFCURVE",
"148 235 OFFCURVE",
"132 67 CURVE",
"93 66 OFFCURVE",
"4 53 OFFCURVE",
"-5 23 CURVE SMOOTH",
"-13 -4 OFFCURVE",
"-2 -26 OFFCURVE"
);
}
);
width = 346;
}
);
unicode = 0049;
userData = {
com.typemytype.robofont.layerData = {
};
};
},
{
glyphname = IJ;
lastChange = "2016-07-25 08:03:28 +0000";
layers = (
{
layerId = "1677BB6F-42BC-4502-A615-23038A63E498";
paths = (
{
closed = 1;
nodes = (
"553 -190 CURVE SMOOTH",
"706 -197 OFFCURVE",
"833 248 OFFCURVE",
"938 575 CURVE",
"955 574 OFFCURVE",
"962 574 OFFCURVE",
"958 576 CURVE SMOOTH",
"977 578 OFFCURVE",
"975 579 OFFCURVE",
"1028 582 CURVE SMOOTH",
"1040 576 OFFCURVE",
"1096 666 OFFCURVE",
"1023 667 CURVE SMOOTH",
"1008 667 OFFCURVE",
"987 666 OFFCURVE",
"962 667 CURVE",
"957 675 OFFCURVE",
"941 686 OFFCURVE",
"915 686 CURVE SMOOTH",
"896 686 OFFCURVE",
"882 681 OFFCURVE",
"873 667 CURVE",
"741 666 OFFCURVE",
"576 664 OFFCURVE",
"458 662 CURVE SMOOTH",
"551 658 OFFCURVE",
"205 657 OFFCURVE",
"178 661 CURVE SMOOTH",
"146 661 OFFCURVE",
"126 599 OFFCURVE",
"140 576 CURVE SMOOTH",
"132 545 OFFCURVE",
"218 557 OFFCURVE",
"261 556 CURVE",
"204 446 OFFCURVE",
"148 235 OFFCURVE",
"132 67 CURVE",
"93 66 OFFCURVE",
"4 53 OFFCURVE",
"-5 23 CURVE SMOOTH",
"-13 -4 OFFCURVE",
"-2 -26 OFFCURVE",
"19 -33 CURVE SMOOTH",
"35 -38 OFFCURVE",
"190 -8 OFFCURVE",
"293 -4 CURVE SMOOTH",
"347 -2 OFFCURVE",
"356 53 OFFCURVE",
"338 65 CURVE SMOOTH",
"304 77 OFFCURVE",
"239 73 OFFCURVE",
"220 69 CURVE",
"221 180 OFFCURVE",
"350 585 OFFCURVE",
"352 557 CURVE",
"373 560 OFFCURVE",
"412 561 OFFCURVE",
"444 563 CURVE",
"484 569 OFFCURVE",
"673 577 OFFCURVE",
"663 579 CURVE SMOOTH",
"646 580 OFFCURVE",
"860 575 OFFCURVE",
"845 575 CURVE",
"791 368 OFFCURVE",
"637 -81 OFFCURVE",
"545 -81 CURVE SMOOTH",
"485 -81 OFFCURVE",
"478 15 OFFCURVE",
"472 130 CURVE SMOOTH",
"470 189 OFFCURVE",
"399 194 OFFCURVE",
"401 119 CURVE SMOOTH",
"403 -49 OFFCURVE",
"439 -185 OFFCURVE"
);
}
);
width = 858;
}
);
unicode = 0132;
},
{
glyphname = J;
lastChange = "2016-07-25 08:03:28 +0000";
layers = (
{
layerId = "1677BB6F-42BC-4502-A615-23038A63E498";
paths = (
{
closed = 1;
nodes = (
"223 -222 CURVE SMOOTH",
"394 -222 OFFCURVE",
"499 167 OFFCURVE",
"629 653 CURVE SMOOTH",
"635 674 OFFCURVE",
"624 700 OFFCURVE",
"579 700 CURVE SMOOTH",
"551 700 OFFCURVE",
"534 691 OFFCURVE",
"526 647 CURVE SMOOTH",
"502 517 OFFCURVE",
"323 -114 OFFCURVE",
"215 -114 CURVE SMOOTH",
"160 -114 OFFCURVE",
"144 -85 OFFCURVE",
"138 16 CURVE SMOOTH",
"134 75 OFFCURVE",
"63 80 OFFCURVE",
"63 4 CURVE SMOOTH",
"67 -147 OFFCURVE",
"109 -222 OFFCURVE"
);
},
{
closed = 1;
nodes = (
"779 584 CURVE SMOOTH",
"797 594 OFFCURVE",
"803 615 OFFCURVE",
"801 642 CURVE SMOOTH",
"801 662 OFFCURVE",
"792 680 OFFCURVE",
"748 681 CURVE SMOOTH",
"623 681 OFFCURVE",
"516 694 OFFCURVE",
"416 699 CURVE SMOOTH",
"234 709 OFFCURVE",
"62 719 OFFCURVE",
"-4 503 CURVE SMOOTH",
"-20 443 OFFCURVE",
"44 443 OFFCURVE",
"60 476 CURVE SMOOTH",
"111 577 OFFCURVE",
"164 590 OFFCURVE",
"469 579 CURVE SMOOTH",
"736 569 OFFCURVE",
"759 573 OFFCURVE"
);
}
);
width = 523;
}
);
unicode = 004A;
userData = {
com.typemytype.robofont.layerData = {
};
};
},
{
glyphname = K;
lastChange = "2016-07-25 08:03:28 +0000";
layers = (
{
anchors = (
{
name = bot;
position = "{280, -152}";
}
);
layerId = "1677BB6F-42BC-4502-A615-23038A63E498";
paths = (
{
closed = 1;
nodes = (
"609 -151 CURVE SMOOTH",
"614 -151 OFFCURVE",
"750 -146 OFFCURVE",
"744 -101 CURVE SMOOTH",
"740 -69 OFFCURVE",
"735 -59 OFFCURVE",
"718 -56 CURVE SMOOTH",
"696 -51 OFFCURVE",
"662 -65 OFFCURVE",
"621 -65 CURVE SMOOTH",
"523 -62 OFFCURVE",
"443 73 OFFCURVE",
"411 285 CURVE",
"595 376 OFFCURVE",
"755 553 OFFCURVE",
"783 613 CURVE SMOOTH",
"797 647 OFFCURVE",
"807 692 OFFCURVE",
"760 692 CURVE SMOOTH",
"729 692 OFFCURVE",
"709 660 OFFCURVE",
"685 626 CURVE SMOOTH",
"634 557 OFFCURVE",
"496 416 OFFCURVE",
"327 327 CURVE",
"341 432 OFFCURVE",
"348 593 OFFCURVE",
"348 661 CURVE SMOOTH",
"348 691 OFFCURVE",
"323 707 OFFCURVE",
"297 702 CURVE SMOOTH",
"-64 642 OFFCURVE",
"-67 433 OFFCURVE",
"-38 348 CURVE SMOOTH",
"-31 314 OFFCURVE",
"-5 290 OFFCURVE",
"18 295 CURVE SMOOTH",
"54 303 OFFCURVE",
"67 314 OFFCURVE",
"64 338 CURVE SMOOTH",
"46 379 OFFCURVE",
"-19 550 OFFCURVE",
"237 615 CURVE",
"260 213 OFFCURVE",
"174 -42 OFFCURVE",
"-1 -42 CURVE SMOOTH",
"-17 -42 OFFCURVE",
"-30 -35 OFFCURVE",
"-43 -34 CURVE SMOOTH",
"-77 -32 OFFCURVE",
"-101 -62 OFFCURVE",
"-96 -103 CURVE SMOOTH",
"-92 -139 OFFCURVE",
"-15 -141 OFFCURVE",
"19 -141 CURVE SMOOTH",
"170 -141 OFFCURVE",
"265 5 OFFCURVE",
"320 286 CURVE",
"338 19 OFFCURVE",
"454 -151 OFFCURVE"
);
}
);
width = 697;
}
);
unicode = 004B;
userData = {
com.typemytype.robofont.layerData = {
};
};
},
{
glyphname = L;
lastChange = "2016-07-25 08:03:28 +0000";
layers = (
{
anchors = (
{
name = bot;
position = "{401, -160}";
}
);
layerId = "1677BB6F-42BC-4502-A615-23038A63E498";
paths = (
{
closed = 1;
nodes = (
"182 -121 CURVE SMOOTH",
"423 -109 OFFCURVE",
"482 89 OFFCURVE",
"496 333 CURVE SMOOTH",
"509 554 OFFCURVE",
"541 616 OFFCURVE",
"645 614 CURVE SMOOTH",
"708 613 OFFCURVE",
"748 582 OFFCURVE",
"750 531 CURVE SMOOTH",
"753 450 OFFCURVE",
"648 348 OFFCURVE",
"277 427 CURVE SMOOTH",
"228 437 OFFCURVE",
"214 360 OFFCURVE",
"261 350 CURVE SMOOTH",
"698 260 OFFCURVE",
"841 379 OFFCURVE",
"858 501 CURVE SMOOTH",
"874 617 OFFCURVE",
"787 691 OFFCURVE",
"659 700 CURVE SMOOTH",
"553 707 OFFCURVE",
"402 674 OFFCURVE",
"383 417 CURVE SMOOTH",
"367 203 OFFCURVE",
"357 -65 OFFCURVE",
"179 -45 CURVE SMOOTH",
"125 -39 OFFCURVE",
"127 21 OFFCURVE",
"169 28 CURVE SMOOTH",
"318 53 OFFCURVE",
"744 -414 OFFCURVE",
"894 -136 CURVE SMOOTH",
"922 -84 OFFCURVE",
"851 -48 OFFCURVE",
"824 -89 CURVE SMOOTH",
"706 -268 OFFCURVE",
"402 114 OFFCURVE",
"165 110 CURVE SMOOTH",
"4 107 OFFCURVE",
"-11 -131 OFFCURVE"
);
}
);
width = 645.003;
}
);
unicode = 004C;
userData = {
com.typemytype.robofont.layerData = {
};
};
},
{
glyphname = Lslash;
lastChange = "2016-07-25 08:03:28 +0000";
layers = (
{
components = (
{
name = L;
}
);
layerId = "1677BB6F-42BC-4502-A615-23038A63E498";
paths = (
{
closed = 1;
nodes = (
"558 226 LINE",
"569 233 OFFCURVE",
"576 243 OFFCURVE",
"576 253 CURVE SMOOTH",
"575 267 OFFCURVE",
"560 282 OFFCURVE",
"543 282 CURVE SMOOTH",
"540 282 OFFCURVE",
"537 281 OFFCURVE",
"533 278 CURVE SMOOTH",
"334 170 LINE",
"317 161 OFFCURVE",
"307 150 OFFCURVE",
"307 137 CURVE SMOOTH",
"307 123 OFFCURVE",
"319 111 OFFCURVE",
"335 111 CURVE SMOOTH",
"340 111 OFFCURVE",
"345 111 OFFCURVE",
"349 113 CURVE SMOOTH"
);
}
);
width = 622;
}
);
unicode = 0141;
},
{
glyphname = M;
lastChange = "2016-07-25 08:03:28 +0000";
layers = (
{
layerId = "1677BB6F-42BC-4502-A615-23038A63E498";
paths = (
{
closed = 1;
nodes = (
"177 14 CURVE SMOOTH",
"297 385 OFFCURVE",
"360 539 OFFCURVE",
"462 536 CURVE SMOOTH",
"530 534 OFFCURVE",
"514 443 OFFCURVE",
"497 381 CURVE SMOOTH",
"378 -23 LINE",
"383 -27 OFFCURVE",
"411 -49 OFFCURVE",
"445 -49 CURVE SMOOTH",
"484 -49 OFFCURVE",
"489 -9 OFFCURVE",
"506 39 CURVE SMOOTH",
"594 289 OFFCURVE",
"674 545 OFFCURVE",
"767 562 CURVE SMOOTH",
"849 577 OFFCURVE",
"823 465 OFFCURVE",
"791 358 CURVE SMOOTH",
"721 123 LINE SMOOTH",
"690 19 OFFCURVE",
"693 -79 OFFCURVE",
"822 -93 CURVE SMOOTH",
"870 -98 OFFCURVE",
"926 -88 OFFCURVE",
"974 -33 CURVE SMOOTH",
"1012 11 OFFCURVE",
"955 58 OFFCURVE",
"927 27 CURVE SMOOTH",
"877 -30 OFFCURVE",
"778 -18 OFFCURVE",
"806 78 CURVE SMOOTH",
"881 334 LINE SMOOTH",
"901 402 OFFCURVE",
"916 465 OFFCURVE",
"920 530 CURVE SMOOTH",
"923 569 OFFCURVE",
"913 675 OFFCURVE",
"791 660 CURVE SMOOTH",
"708 650 OFFCURVE",
"639 569 OFFCURVE",
"572 398 CURVE",
"622 580 OFFCURVE",
"586 656 OFFCURVE",
"495 650 CURVE SMOOTH",
"416 645 OFFCURVE",
"331 598 OFFCURVE",
"241 388 CURVE",
"290 557 OFFCURVE",
"308 648 OFFCURVE",
"187 657 CURVE SMOOTH",
"113 662 OFFCURVE",
"12 599 OFFCURVE",
"-9 510 CURVE SMOOTH",
"-17 473 OFFCURVE",
"52 433 OFFCURVE",
"58 433 CURVE SMOOTH",
"87 497 OFFCURVE",
"131 579 OFFCURVE",
"175 570 CURVE SMOOTH",
"199 564 OFFCURVE",
"193 482 OFFCURVE",
"145 318 CURVE SMOOTH",
"41 -32 LINE",
"47 -37 OFFCURVE",
"79 -59 OFFCURVE",
"121 -59 CURVE SMOOTH",
"160 -59 OFFCURVE",
"165 -23 OFFCURVE"
);
}
);
width = 919;
}
);
unicode = 004D;
userData = {
com.typemytype.robofont.layerData = {
};
};
},
{
glyphname = N;
lastChange = "2016-07-25 08:03:28 +0000";
layers = (
{
layerId = "1677BB6F-42BC-4502-A615-23038A63E498";
paths = (
{
closed = 1;
nodes = (
"68 -58 CURVE SMOOTH",
"104 -58 OFFCURVE",
"118 -34 OFFCURVE",
"144 30 CURVE SMOOTH",
"247 260 LINE SMOOTH",
"324 437 OFFCURVE",
"395 563 OFFCURVE",
"515 564 CURVE SMOOTH",
"536 565 OFFCURVE",
"554 550 OFFCURVE",
"554 530 CURVE SMOOTH",
"556 440 OFFCURVE",
"436 288 OFFCURVE",
"407 101 CURVE SMOOTH",
"385 -41 OFFCURVE",
"581 -102 OFFCURVE",
"694 31 CURVE SMOOTH",
"748 95 OFFCURVE",
"689 144 OFFCURVE",
"647 97 CURVE SMOOTH",
"597 38 OFFCURVE",
"504 44 OFFCURVE",
"519 115 CURVE SMOOTH",
"558 303 OFFCURVE",
"664 438 OFFCURVE",
"661 572 CURVE SMOOTH",
"660 629 OFFCURVE",
"623 668 OFFCURVE",
"559 673 CURVE SMOOTH",
"377 688 OFFCURVE",
"281 505 OFFCURVE",
"237 373 CURVE",
"292 494 OFFCURVE",
"337 677 OFFCURVE",
"189 677 CURVE SMOOTH",
"105 677 OFFCURVE",
"1 620 OFFCURVE",
"-25 493 CURVE SMOOTH",
"-37 433 OFFCURVE",
"8 426 OFFCURVE",
"49 424 CURVE",
"83 544 OFFCURVE",
"131 589 OFFCURVE",
"174 589 CURVE SMOOTH",
"219 589 OFFCURVE",
"227 511 OFFCURVE",
"150 328 CURVE SMOOTH",
"96 201 OFFCURVE",
"6 -9 OFFCURVE",
"-6 -41 CURVE",
"4 -48 OFFCURVE",
"32 -58 OFFCURVE"
);
}
);
width = 626;
}
);
unicode = 004E;
userData = {
com.typemytype.robofont.layerData = {
};
};
},
{
glyphname = Eng;
lastChange = "2016-07-25 08:03:28 +0000";
layers = (
{
layerId = "1677BB6F-42BC-4502-A615-23038A63E498";
paths = (
{
closed = 1;
nodes = (
"102 -320 CURVE SMOOTH",
"164 -324 OFFCURVE",
"298 -249 OFFCURVE",
"392 -24 CURVE",
"454 13 OFFCURVE",
"510 14 OFFCURVE",
"561 44 CURVE SMOOTH",
"619 72 OFFCURVE",
"610 115 OFFCURVE",
"573 104 CURVE SMOOTH",
"555 106 OFFCURVE",
"459 73 OFFCURVE",
"405 43 CURVE",
"501 326 OFFCURVE",
"576 471 OFFCURVE",
"573 572 CURVE SMOOTH",
"571 629 OFFCURVE",
"535 669 OFFCURVE",
"470 673 CURVE SMOOTH",
"273 685 OFFCURVE",
"196 504 OFFCURVE",
"152 372 CURVE",
"178 467 OFFCURVE",
"198 557 OFFCURVE",
"199 596 CURVE SMOOTH",
"200 650 OFFCURVE",
"138 680 OFFCURVE",
"90 671 CURVE SMOOTH",
"-7 657 OFFCURVE",
"-77 584 OFFCURVE",
"-110 504 CURVE SMOOTH",
"-135 445 OFFCURVE",
"-34 409 OFFCURVE",
"-41 412 CURVE SMOOTH",
"-33 461 OFFCURVE",
"42 591 OFFCURVE",
"86 589 CURVE SMOOTH",
"111 589 OFFCURVE",
"106 527 OFFCURVE",
"105 527 CURVE SMOOTH",
"104 403 OFFCURVE",
"-34 95 OFFCURVE",
"-92 -41 CURVE SMOOTH",
"-89 -33 OFFCURVE",
"-56 -58 OFFCURVE",
"-20 -58 CURVE SMOOTH",
"36 -58 OFFCURVE",
"37 -10 OFFCURVE",
"56 30 CURVE SMOOTH",
"187 310 OFFCURVE",
"260 562 OFFCURVE",
"426 564 CURVE SMOOTH",
"447 565 OFFCURVE",
"464 550 OFFCURVE",
"466 530 CURVE SMOOTH",
"468 465 OFFCURVE",
"415 337 OFFCURVE",
"295 -2 CURVE",
"104 -95 OFFCURVE",
"44 -213 OFFCURVE",
"39 -270 CURVE SMOOTH",
"37 -300 OFFCURVE",
"59 -317 OFFCURVE"
);
},
{
closed = 1;
nodes = (
"112 -261 CURVE SMOOTH",
"105 -262 OFFCURVE",
"98 -261 OFFCURVE",
"99 -249 CURVE SMOOTH",
"98 -223 OFFCURVE",
"137 -130 OFFCURVE",
"278 -62 CURVE",
"252 -129 OFFCURVE",
"172 -258 OFFCURVE"
);
}
);
width = 538;
}
);
unicode = 014A;
},
{
glyphname = O;
lastChange = "2016-07-25 08:03:28 +0000";
layers = (
{
anchors = (
{
name = ogonek;
position = "{348, -90}";
}
);
layerId = "1677BB6F-42BC-4502-A615-23038A63E498";
paths = (
{
closed = 1;
nodes = (
"576 314 CURVE SMOOTH",
"575 156 OFFCURVE",
"493 -16 OFFCURVE",
"326 -4 CURVE SMOOTH",
"224 4 OFFCURVE",
"171 121 OFFCURVE",
"172 247 CURVE SMOOTH",
"173 401 OFFCURVE",
"253 568 OFFCURVE",
"420 562 CURVE SMOOTH",
"524 558 OFFCURVE",
"577 441 OFFCURVE"
);
},
{
closed = 1;
nodes = (
"56 218 CURVE SMOOTH",
"62 56 OFFCURVE",
"146 -90 OFFCURVE",
"313 -103 CURVE SMOOTH",
"569 -122 OFFCURVE",
"699 107 OFFCURVE",
"698 318 CURVE SMOOTH",
"696 494 OFFCURVE",
"604 658 OFFCURVE",
"416 658 CURVE SMOOTH",
"171 658 OFFCURVE",
"49 426 OFFCURVE"
);
}
);
width = 662;
}
);
unicode = 004F;
userData = {
com.typemytype.robofont.layerData = {
};
};
},
{
glyphname = Oslash;
lastChange = "2016-07-25 08:03:28 +0000";
layers = (
{
components = (
{
name = O;
}
);
layerId = "1677BB6F-42BC-4502-A615-23038A63E498";
paths = (
{
closed = 1;
nodes = (
"136 -201 CURVE SMOOTH",
"711 702 LINE",
"734 733 OFFCURVE",
"687 751 OFFCURVE",
"674 725 CURVE",
"76 -158 LINE",
"47 -207 OFFCURVE",
"113 -236 OFFCURVE"
);
}
);
width = 678;
}
);
unicode = 00D8;
userData = {
com.typemytype.robofont.layerData = {
};
};
},
{
glyphname = OE;
lastChange = "2016-07-25 08:03:28 +0000";
layers = (
{
layerId = "1677BB6F-42BC-4502-A615-23038A63E498";
paths = (
{
closed = 1;
nodes = (
"328 -103 CURVE SMOOTH",
"464 -106 OFFCURVE",
"563 -36 OFFCURVE",
"587 16 CURVE",
"597 -49 OFFCURVE",
"648 -104 OFFCURVE",
"758 -104 CURVE SMOOTH",
"887 -104 OFFCURVE",
"1105 -12 OFFCURVE",
"1182 69 CURVE SMOOTH",
"1189 78 OFFCURVE",
"1193 88 OFFCURVE",
"1193 99 CURVE SMOOTH",
"1193 124 OFFCURVE",
"1176 153 OFFCURVE",
"1152 153 CURVE SMOOTH",
"1141 153 OFFCURVE",
"1132 147 OFFCURVE",
"1120 136 CURVE SMOOTH",
"1056 67 OFFCURVE",
"875 -1 OFFCURVE",
"760 -1 CURVE SMOOTH",
"658 -1 OFFCURVE",
"656 76 OFFCURVE",
"652 98 CURVE",
"683 143 OFFCURVE",
"703 263 OFFCURVE",
"695 273 CURVE",
"742 270 OFFCURVE",
"748 265 OFFCURVE",
"813 265 CURVE SMOOTH",
"857 265 OFFCURVE",
"880 298 OFFCURVE",
"880 325 CURVE SMOOTH",
"880 345 OFFCURVE",
"866 374 OFFCURVE",
"829 372 CURVE SMOOTH",
"697 372 LINE",
"693 392 OFFCURVE",
"685 430 OFFCURVE",
"679 453 CURVE",
"665 547 OFFCURVE",
"796 637 OFFCURVE",
"932 637 CURVE SMOOTH",
"978 637 OFFCURVE",
"1017 624 OFFCURVE",
"1047 598 CURVE",
"1055 614 OFFCURVE",
"1022 527 OFFCURVE",
"1022 544 CURVE",
"1000 502 OFFCURVE",
"1002 483 OFFCURVE",
"1033 483 CURVE SMOOTH",
"1056 483 OFFCURVE",
"1136 475 OFFCURVE",
"1138 567 CURVE SMOOTH",
"1142 671 OFFCURVE",
"1050 717 OFFCURVE",
"943 717 CURVE SMOOTH",
"818 717 OFFCURVE",
"654 655 OFFCURVE",
"616 545 CURVE",
"610 591 OFFCURVE",
"549 658 OFFCURVE",
"432 658 CURVE SMOOTH",
"191 658 OFFCURVE",
"81 451 OFFCURVE",
"77 223 CURVE SMOOTH",
"72 94 OFFCURVE",
"151 -96 OFFCURVE"
);
},
{
closed = 1;
nodes = (
"342 -4 CURVE SMOOTH",
"242 2 OFFCURVE",
"188 124 OFFCURVE",
"186 227 CURVE SMOOTH",
"184 337 OFFCURVE",
"242 562 OFFCURVE",
"436 562 CURVE SMOOTH",
"537 562 OFFCURVE",
"589 444 OFFCURVE",
"587 309 CURVE SMOOTH",
"583 100 OFFCURVE",
"532 -14 OFFCURVE"
);
}
);
width = 1076;
}
);
unicode = 0152;
},
{
glyphname = P;
lastChange = "2016-07-25 08:03:28 +0000";
layers = (
{
layerId = "1677BB6F-42BC-4502-A615-23038A63E498";
paths = (
{
closed = 1;
nodes = (
"238 -45 CURVE SMOOTH",
"175 -45 OFFCURVE",
"170 103 OFFCURVE",
"170 205 CURVE SMOOTH",
"170 383 OFFCURVE",
"218 602 OFFCURVE",
"392 625 CURVE SMOOTH",
"521 642 OFFCURVE",
"601 589 OFFCURVE",
"601 495 CURVE SMOOTH",
"601 410 OFFCURVE",
"529 337 OFFCURVE",
"412 319 CURVE",
"436 428 OFFCURVE",
"481 459 OFFCURVE",
"470 497 CURVE SMOOTH",
"465 516 OFFCURVE",
"442 520 OFFCURVE",
"425 520 CURVE SMOOTH",
"373 520 OFFCURVE",
"355 478 OFFCURVE",
"324 328 CURVE",
"313 331 OFFCURVE",
"280 344 OFFCURVE",
"254 358 CURVE SMOOTH",
"235 368 OFFCURVE",
"227 348 OFFCURVE",
"227 328 CURVE SMOOTH",
"227 278 OFFCURVE",
"261 274 OFFCURVE",
"312 254 CURVE",
"288 67 OFFCURVE",
"298 -45 OFFCURVE"
);
},
{
closed = 1;
nodes = (
"226 -129 CURVE SMOOTH",
"337 -129 OFFCURVE",
"369 -34 OFFCURVE",
"385 97 CURVE SMOOTH",
"403 240 LINE",
"609 255 OFFCURVE",
"736 382 OFFCURVE",
"728 519 CURVE SMOOTH",
"720 654 OFFCURVE",
"594 745 OFFCURVE",
"399 723 CURVE SMOOTH",
"176 698 OFFCURVE",
"71 471 OFFCURVE",
"71 198 CURVE SMOOTH",
"71 23 OFFCURVE",
"110 -129 OFFCURVE"
);
}
);
width = 579;
}
);
unicode = 0050;
userData = {
com.typemytype.robofont.layerData = {
};
};
},
{
glyphname = Thorn;
lastChange = "2016-07-25 08:03:28 +0000";
layers = (
{
layerId = "1677BB6F-42BC-4502-A615-23038A63E498";
paths = (
{
closed = 1;
nodes = (
"213 -125 CURVE SMOOTH",
"323 -125 OFFCURVE",
"355 -24 OFFCURVE",
"369 97 CURVE SMOOTH",
"380 180 OFFCURVE",
"380 255 OFFCURVE",
"393 258 CURVE",
"578 288 OFFCURVE",
"691 383 OFFCURVE",
"691 504 CURVE SMOOTH",
"691 607 OFFCURVE",
"609 698 OFFCURVE",
"473 720 CURVE",
"482 779 OFFCURVE",
"489 824 OFFCURVE",
"489 830 CURVE SMOOTH",
"490 844 OFFCURVE",
"485 849 OFFCURVE",
"472 849 CURVE SMOOTH",
"424 849 OFFCURVE",
"398 793 OFFCURVE",
"378 723 CURVE",
"161 708 OFFCURVE",
"59 468 OFFCURVE",
"59 198 CURVE SMOOTH",
"59 23 OFFCURVE",
"97 -125 OFFCURVE"
);
},
{
closed = 1;
nodes = (
"226 -46 CURVE SMOOTH",
"162 -46 OFFCURVE",
"154 103 OFFCURVE",
"154 205 CURVE SMOOTH",
"154 376 OFFCURVE",
"201 600 OFFCURVE",
"361 628 CURVE",
"347 546 OFFCURVE",
"332 446 OFFCURVE",
"311 328 CURVE",
"295 330 OFFCURVE",
"254 363 OFFCURVE",
"225 360 CURVE SMOOTH",
"212 358 OFFCURVE",
"212 349 OFFCURVE",
"212 328 CURVE SMOOTH",
"212 278 OFFCURVE",
"249 274 OFFCURVE",
"299 248 CURVE",
"274 61 OFFCURVE",
"285 -46 OFFCURVE"
);
},
{
closed = 1;
nodes = (
"397 326 CURVE",
"414 383 OFFCURVE",
"439 514 OFFCURVE",
"458 630 CURVE",
"543 616 OFFCURVE",
"587 570 OFFCURVE",
"587 495 CURVE SMOOTH",
"587 410 OFFCURVE",
"515 344 OFFCURVE"
);
}
);
width = 384;
}
);
unicode = 00DE;
},
{
glyphname = Q;
lastChange = "2016-07-25 08:03:28 +0000";
layers = (
{
components = (
{
name = O;
}
);
layerId = "1677BB6F-42BC-4502-A615-23038A63E498";
paths = (
{
closed = 1;
nodes = (
"980 -380 CURVE SMOOTH",
"1050 -328 OFFCURVE",
"1066 -287 OFFCURVE",
"1068 -277 CURVE SMOOTH",
"1070 -266 OFFCURVE",
"1067 -258 OFFCURVE",
"1059 -249 CURVE SMOOTH",
"1039 -227 OFFCURVE",
"1008 -228 OFFCURVE",
"995 -244 CURVE SMOOTH",
"990 -250 LINE SMOOTH",
"977 -266 OFFCURVE",
"962 -284 OFFCURVE",
"948 -294 CURVE SMOOTH",
"891 -336 OFFCURVE",
"722 -256 OFFCURVE",
"413 2 CURVE SMOOTH",
"391 17 OFFCURVE",
"333 -42 OFFCURVE",
"355 -57 CURVE SMOOTH",
"647 -292 OFFCURVE",
"848 -477 OFFCURVE"
);
}
);
width = 736;
}
);
unicode = 0051;
},
{
glyphname = R;
lastChange = "2016-07-25 08:03:28 +0000";
layers = (
{
layerId = "1677BB6F-42BC-4502-A615-23038A63E498";
paths = (
{
closed = 1;
nodes = (
"225 -145 CURVE SMOOTH",
"421 -145 OFFCURVE",
"392 199 OFFCURVE",
"434 391 CURVE SMOOTH",
"440 411 OFFCURVE",
"480 440 OFFCURVE",
"483 476 CURVE SMOOTH",
"483 503 OFFCURVE",
"468 513 OFFCURVE",
"443 514 CURVE SMOOTH",
"393 514 OFFCURVE",
"354 446 OFFCURVE",
"347 400 CURVE SMOOTH",
"315 191 OFFCURVE",
"298 -31 OFFCURVE",
"249 -48 CURVE SMOOTH",
"196 -66 OFFCURVE",
"181 20 OFFCURVE",
"183 193 CURVE SMOOTH",
"186 441 OFFCURVE",
"282 609 OFFCURVE",
"458 609 CURVE SMOOTH",
"577 609 OFFCURVE",
"629 556 OFFCURVE",
"630 498 CURVE SMOOTH",
"630 423 OFFCURVE",
"541 339 OFFCURVE",
"394 359 CURVE SMOOTH",
"370 362 OFFCURVE",
"310 371 OFFCURVE",
"299 371 CURVE SMOOTH",
"283 371 OFFCURVE",
"283 346 OFFCURVE",
"283 333 CURVE SMOOTH",
"286 269 OFFCURVE",
"423 286 OFFCURVE",
"463 289 CURVE",
"474 143 OFFCURVE",
"633 -236 OFFCURVE",
"805 -230 CURVE SMOOTH",
"904 -227 OFFCURVE",
"965 -135 OFFCURVE",
"971 -112 CURVE SMOOTH",
"975 -104 OFFCURVE",
"966 -85 OFFCURVE",
"956 -77 CURVE SMOOTH",
"945 -68 OFFCURVE",
"928 -58 OFFCURVE",
"918 -69 CURVE SMOOTH",
"864 -126 OFFCURVE",
"834 -126 OFFCURVE",
"803 -122 CURVE SMOOTH",
"703 -109 OFFCURVE",
"590 151 OFFCURVE",
"548 298 CURVE",
"682 329 OFFCURVE",
"749 417 OFFCURVE",
"748 503 CURVE SMOOTH",
"747 607 OFFCURVE",
"649 710 OFFCURVE",
"452 710 CURVE SMOOTH",
"234 710 OFFCURVE",
"91 515 OFFCURVE",
"78 182 CURVE",
"65 -23 OFFCURVE",
"129 -144 OFFCURVE"
);
}
);
width = 750;
}
);
unicode = 0052;
userData = {
com.typemytype.robofont.layerData = {
};
};
},
{
glyphname = S;
lastChange = "2016-07-25 08:03:28 +0000";
layers = (
{
anchors = (
{
name = bot;
position = "{342, -89}";
}
);
layerId = "1677BB6F-42BC-4502-A615-23038A63E498";
paths = (
{
closed = 1;
nodes = (
"338 -114 CURVE SMOOTH",
"515 -114 OFFCURVE",
"647 -41 OFFCURVE",
"647 91 CURVE SMOOTH",
"647 211 OFFCURVE",
"571 243 OFFCURVE",
"447 309 CURVE SMOOTH",
"314 380 OFFCURVE",
"269 392 OFFCURVE",
"269 454 CURVE SMOOTH",
"269 507 OFFCURVE",
"321 552 OFFCURVE",
"428 551 CURVE SMOOTH",
"518 550 OFFCURVE",
"563 521 OFFCURVE",
"563 474 CURVE SMOOTH",
"563 444 OFFCURVE",
"550 422 OFFCURVE",
"531 405 CURVE SMOOTH",
"523 395 OFFCURVE",
"519 385 OFFCURVE",
"519 375 CURVE SMOOTH",
"519 352 OFFCURVE",
"540 332 OFFCURVE",
"567 332 CURVE SMOOTH",
"571 332 OFFCURVE",
"574 332 OFFCURVE",
"578 333 CURVE SMOOTH",
"593 336 OFFCURVE",
"609 344 OFFCURVE",
"625 360 CURVE SMOOTH",
"649 386 OFFCURVE",
"670 425 OFFCURVE",
"671 474 CURVE SMOOTH",
"668 579 OFFCURVE",
"566 632 OFFCURVE",
"433 632 CURVE SMOOTH",
"292 632 OFFCURVE",
"142 569 OFFCURVE",
"142 446 CURVE SMOOTH",
"142 336 OFFCURVE",
"220 305 OFFCURVE",
"317 253 CURVE SMOOTH",
"419 198 OFFCURVE",
"520 167 OFFCURVE",
"520 84 CURVE SMOOTH",
"520 19 OFFCURVE",
"472 -26 OFFCURVE",
"342 -26 CURVE SMOOTH",
"228 -26 OFFCURVE",
"168 4 OFFCURVE",
"162 81 CURVE SMOOTH",
"158 134 OFFCURVE",
"190 139 OFFCURVE",
"190 173 CURVE SMOOTH",
"190 192 OFFCURVE",
"177 203 OFFCURVE",
"157 203 CURVE SMOOTH",
"85 203 OFFCURVE",
"45 136 OFFCURVE",
"49 79 CURVE SMOOTH",
"58 -56 OFFCURVE",
"191 -114 OFFCURVE"
);
}
);
width = 681;
}
);
unicode = 0053;
userData = {
com.typemytype.robofont.layerData = {
};
};
},
{
glyphname = T;
lastChange = "2016-07-25 08:03:28 +0000";
layers = (
{
anchors = (
{
name = bot;
position = "{320, -104}";
}
);
layerId = "1677BB6F-42BC-4502-A615-23038A63E498";
paths = (
{
closed = 1;
nodes = (
"69 432 CURVE SMOOTH",
"100 481 OFFCURVE",
"172 575 OFFCURVE",
"474 548 CURVE SMOOTH",
"591 537 OFFCURVE",
"783 528 OFFCURVE",
"803 541 CURVE SMOOTH",
"819 551 OFFCURVE",
"847 561 OFFCURVE",
"837 602 CURVE SMOOTH",
"833 618 OFFCURVE",
"817 626 OFFCURVE",
"789 627 CURVE SMOOTH",
"579 627 OFFCURVE",
"413 657 OFFCURVE",
"263 643 CURVE SMOOTH",
"166 627 OFFCURVE",
"57 614 OFFCURVE",
"1 454 CURVE SMOOTH",
"-15 403 OFFCURVE",
"58 410 OFFCURVE"
);
},
{
closed = 1;
nodes = (
"301 -85 CURVE SMOOTH",
"338 -89 OFFCURVE",
"367 -74 OFFCURVE",
"377 -6 CURVE SMOOTH",
"388 66 OFFCURVE",
"433 290 OFFCURVE",
"501 560 CURVE",
"427 568 LINE",
"345 339 OFFCURVE",
"298 184 OFFCURVE",
"274 85 CURVE SMOOTH",
"253 3 OFFCURVE",
"233 -78 OFFCURVE"
);
}
);
width = 489;
}
);
unicode = 0054;
userData = {
com.typemytype.robofont.layerData = {
};
};
},
{
glyphname = U;
lastChange = "2016-07-25 08:03:28 +0000";
layers = (
{
anchors = (
{
name = ogonek;
position = "{281, -69}";
}
);
layerId = "1677BB6F-42BC-4502-A615-23038A63E498";
paths = (
{
closed = 1;
nodes = (
"289 18 CURVE SMOOTH",
"106 18 OFFCURVE",
"180 368 OFFCURVE",
"293 556 CURVE SMOOTH",
"329 613 OFFCURVE",
"237 626 OFFCURVE",
"206 577 CURVE SMOOTH",
"61 355 OFFCURVE",
"-19 -64 OFFCURVE",
"275 -75 CURVE SMOOTH",
"686 -93 OFFCURVE",
"828 708 OFFCURVE",
"542 699 CURVE SMOOTH",
"276 691 OFFCURVE",
"452 173 OFFCURVE",
"793 476 CURVE SMOOTH",
"821 501 OFFCURVE",
"793 549 OFFCURVE",
"762 525 CURVE SMOOTH",
"514 326 OFFCURVE",
"426 613 OFFCURVE",
"529 617 CURVE SMOOTH",
"676 622 OFFCURVE",
"583 18 OFFCURVE"
);
},
{
closed = 1;
nodes = (
"75 423 CURVE SMOOTH",
"257 547 LINE",
"284 566 OFFCURVE",
"263 622 OFFCURVE",
"226 598 CURVE SMOOTH",
"46 478 LINE",
"12 457 OFFCURVE",
"30 394 OFFCURVE"
);
}
);
width = 632;
}
);
unicode = 0055;
userData = {
com.typemytype.robofont.layerData = {
};
};
},
{
glyphname = V;
lastChange = "2016-07-25 08:03:28 +0000";
layers = (
{
layerId = "1677BB6F-42BC-4502-A615-23038A63E498";
paths = (
{
closed = 1;
nodes = (
"474 289 CURVE SMOOTH",
"423 191 OFFCURVE",
"312 40 OFFCURVE",
"247 27 CURVE SMOOTH",
"217 19 OFFCURVE",
"191 51 OFFCURVE",
"191 143 CURVE SMOOTH",
"191 347 OFFCURVE",
"294 531 OFFCURVE",
"302 539 CURVE SMOOTH",
"314 557 OFFCURVE",
"259 616 OFFCURVE",
"209 544 CURVE SMOOTH",
"188 513 OFFCURVE",
"94 337 OFFCURVE",
"94 148 CURVE SMOOTH",
"94 18 OFFCURVE",
"142 -53 OFFCURVE",
"236 -51 CURVE",
"358 -45 OFFCURVE",
"481 106 OFFCURVE",
"562 258 CURVE SMOOTH",
"713 540 OFFCURVE",
"670 706 OFFCURVE",
"542 709 CURVE SMOOTH",
"275 715 OFFCURVE",
"416 205 OFFCURVE",
"788 492 CURVE SMOOTH",
"819 517 OFFCURVE",
"792 568 OFFCURVE",
"753 540 CURVE SMOOTH",
"489 352 OFFCURVE",
"422 642 OFFCURVE",
"526 634 CURVE SMOOTH",
"581 630 OFFCURVE",
"597 542 OFFCURVE"
);
},
{
closed = 1;
nodes = (
"30 370 CURVE SMOOTH",
"259 514 LINE",
"288 530 OFFCURVE",
"267 587 OFFCURVE",
"228 565 CURVE SMOOTH",
"1 427 LINE",
"-34 405 OFFCURVE",
"-15 343 OFFCURVE"
);
}
);
width = 562;
}
);
unicode = 0056;
},
{
glyphname = W;
lastChange = "2016-07-25 08:03:28 +0000";
layers = (
{
layerId = "1677BB6F-42BC-4502-A615-23038A63E498";
paths = (
{
closed = 1;
nodes = (
"608 -58 CURVE",
"735 -54 OFFCURVE",
"841 102 OFFCURVE",
"926 254 CURVE",
"1079 540 OFFCURVE",
"1038 722 OFFCURVE",
"916 722 CURVE SMOOTH",
"632 722 OFFCURVE",
"767 227 OFFCURVE",
"1161 484 CURVE",
"1204 515 OFFCURVE",
"1165 580 OFFCURVE",
"1114 543 CURVE",
"840 357 OFFCURVE",
"823 650 OFFCURVE",
"909 650 CURVE SMOOTH",
"947 650 OFFCURVE",
"958 540 OFFCURVE",
"839 297 CURVE",
"789 202 OFFCURVE",
"690 49 OFFCURVE",
"619 38 CURVE SMOOTH",
"564 30 OFFCURVE",
"577 184 OFFCURVE",
"577 192 CURVE SMOOTH",
"577 215 OFFCURVE",
"577 212 OFFCURVE",
"578 236 CURVE SMOOTH",
"594 380 OFFCURVE",
"614 380 OFFCURVE",
"631 435 CURVE SMOOTH",
"645 487 OFFCURVE",
"621 515 OFFCURVE",
"597 515 CURVE SMOOTH",
"580 516 OFFCURVE",
"560 513 OFFCURVE",
"549 497 CURVE SMOOTH",
"504 432 OFFCURVE",
"475 284 OFFCURVE",
"482 165 CURVE SMOOTH",
"488 58 OFFCURVE",
"523 -60 OFFCURVE"
);
},
{
closed = 1;
nodes = (
"221 -58 CURVE",
"346 -54 OFFCURVE",
"466 111 OFFCURVE",
"540 290 CURVE",
"508 398 LINE",
"490 354 OFFCURVE",
"485 350 OFFCURVE",
"464 308 CURVE SMOOTH",
"382 127 OFFCURVE",
"285 44 OFFCURVE",
"231 38 CURVE SMOOTH",
"205 35 OFFCURVE",
"183 59 OFFCURVE",
"183 145 CURVE SMOOTH",
"183 344 OFFCURVE",
"286 523 OFFCURVE",
"295 532 CURVE SMOOTH",
"316 562 OFFCURVE",
"248 636 OFFCURVE",
"188 550 CURVE SMOOTH",
"167 520 OFFCURVE",
"74 344 OFFCURVE",
"74 152 CURVE SMOOTH",
"74 18 OFFCURVE",
"121 -60 OFFCURVE"
);
},
{
closed = 1;
nodes = (
"21 361 CURVE",
"250 503 LINE",
"289 527 OFFCURVE",
"259 605 OFFCURVE",
"209 573 CURVE SMOOTH",
"-18 436 LINE",
"-63 410 OFFCURVE",
"-38 324 OFFCURVE"
);
}
);
width = 982;
}
);
unicode = 0057;
userData = {
com.typemytype.robofont.layerData = {
};
};
},
{
glyphname = X;
lastChange = "2016-07-25 08:03:28 +0000";
layers = (
{
layerId = "1677BB6F-42BC-4502-A615-23038A63E498";
paths = (
{
closed = 1;
nodes = (
"-13 -97 CURVE SMOOTH",
"59 -97 OFFCURVE",
"111 -89 OFFCURVE",
"224 58 CURVE SMOOTH",
"355 225 OFFCURVE",
"480 381 OFFCURVE",
"594 498 CURVE SMOOTH",
"692 597 OFFCURVE",
"596 642 OFFCURVE",
"546 584 CURVE",
"437 434 OFFCURVE",
"295 253 OFFCURVE",
"193 130 CURVE SMOOTH",
"115 38 OFFCURVE",
"60 10 OFFCURVE",
"-21 10 CURVE SMOOTH",
"-70 10 OFFCURVE",
"-73 -97 OFFCURVE"
);
},
{
closed = 1;
nodes = (
"10 413 CURVE SMOOTH",
"129 526 OFFCURVE",
"140 501 OFFCURVE",
"166 437 CURVE SMOOTH",
"343 9 LINE",
"402 -130 OFFCURVE",
"470 -117 OFFCURVE",
"564 -24 CURVE SMOOTH",
"674 83 LINE",
"699 110 OFFCURVE",
"654 145 OFFCURVE",
"641 132 CURVE SMOOTH",
"531 30 LINE",
"482 -17 OFFCURVE",
"464 30 OFFCURVE",
"445 77 CURVE SMOOTH",
"295 484 LINE",
"251 599 OFFCURVE",
"129 625 OFFCURVE",
"-26 466 CURVE SMOOTH",
"-60 431 OFFCURVE",
"-14 390 OFFCURVE"
);
}
);
width = 589;
}
);
unicode = 0058;
},
{
glyphname = Y;
lastChange = "2016-07-25 08:03:28 +0000";
layers = (
{
layerId = "1677BB6F-42BC-4502-A615-23038A63E498";
paths = (
{
closed = 1;
nodes = (
"250 -241 CURVE SMOOTH",
"250 -165 OFFCURVE",
"521 91 OFFCURVE",
"716 228 CURVE SMOOTH",
"739 244 OFFCURVE",
"714 301 OFFCURVE",
"683 280 CURVE SMOOTH",
"551 191 OFFCURVE",
"168 -115 OFFCURVE",
"168 -274 CURVE SMOOTH",
"168 -312 OFFCURVE",
"194 -345 OFFCURVE",
"240 -345 CURVE SMOOTH",
"374 -345 OFFCURVE",
"430 -194 OFFCURVE",
"508 105 CURVE",
"620 537 LINE",
"630 581 OFFCURVE",
"629 609 OFFCURVE",
"577 609 CURVE SMOOTH",
"555 609 OFFCURVE",
"539 592 OFFCURVE",
"531 560 CURVE SMOOTH",
"442 210 LINE",
"295 24 OFFCURVE",
"36 8 OFFCURVE",
"275 589 CURVE SMOOTH",
"286 615 OFFCURVE",
"257 620 OFFCURVE",
"239 620 CURVE SMOOTH",
"208 620 OFFCURVE",
"197 601 OFFCURVE",
"189 588 CURVE SMOOTH",
"-59 152 OFFCURVE",
"158 -122 OFFCURVE",
"420 102 CURVE",
"361 -133 OFFCURVE",
"282 -265 OFFCURVE",
"262 -265 CURVE SMOOTH",
"254 -265 OFFCURVE",
"250 -259 OFFCURVE"
);
}
);
width = 589;
}
);
unicode = 0059;
userData = {
com.typemytype.robofont.layerData = {
};
};
},
{
glyphname = Z;
lastChange = "2016-07-25 08:03:28 +0000";
layers = (
{
layerId = "1677BB6F-42BC-4502-A615-23038A63E498";
paths = (
{
closed = 1;
nodes = (
"729 524 OFFCURVE",
"759 528 OFFCURVE",
"771 531 CURVE SMOOTH",
"795 537 OFFCURVE",
"816 552 OFFCURVE",
"809 590 CURVE SMOOTH",
"803 622 OFFCURVE",
"768 624 OFFCURVE",
"737 627 CURVE",
"628 630 OFFCURVE",
"509 643 OFFCURVE",
"401 646 CURVE SMOOTH",
"254 649 OFFCURVE",
"105 659 OFFCURVE",
"41 454 CURVE SMOOTH",
"27 403 OFFCURVE",
"95 410 OFFCURVE",
"106 432 CURVE",
"134 481 OFFCURVE",
"203 535 OFFCURVE",
"489 524 CURVE SMOOTH",
"520 523 OFFCURVE",
"548 522 OFFCURVE",
"573 522 CURVE",
"561 514 LINE SMOOTH",
"404 410 OFFCURVE",
"214 186 OFFCURVE",
"178 151 CURVE SMOOTH",
"112 86 OFFCURVE",
"69 39 OFFCURVE",
"82 12 CURVE SMOOTH",
"92 -9 OFFCURVE",
"127 -22 OFFCURVE",
"147 -9 CURVE SMOOTH",
"166 4 OFFCURVE",
"216 41 OFFCURVE",
"249 63 CURVE",
"394 -8 OFFCURVE",
"539 -154 OFFCURVE",
"745 -21 CURVE",
"750 -17 OFFCURVE",
"790 9 OFFCURVE",
"777 47 CURVE",
"767 82 OFFCURVE",
"732 74 OFFCURVE",
"711 61 CURVE",
"542 -65 OFFCURVE",
"476 49 OFFCURVE",
"316 129 CURVE",
"367 184 OFFCURVE",
"555 418 OFFCURVE",
"695 523 CURVE"
);
}
);
width = 631;
}
);
unicode = 005A;
userData = {
com.typemytype.robofont.layerData = {
};
};
},
{
glyphname = a;
lastChange = "2016-07-25 08:03:28 +0000";
layers = (
{
anchors = (
{
name = ogonek;
position = "{301, 1}";
}
);
layerId = "1677BB6F-42BC-4502-A615-23038A63E498";
paths = (
{
closed = 1;
nodes = (
"119 -4 CURVE SMOOTH",
"160 -8 OFFCURVE",
"194 12 OFFCURVE",
"217 44 CURVE SMOOTH",
"230 62 LINE",
"233 30 OFFCURVE",
"260 1 OFFCURVE",
"301 1 CURVE SMOOTH",
"360 1 OFFCURVE",
"415 54 OFFCURVE",
"441 88 CURVE",
"443 93 OFFCURVE",
"443 99 OFFCURVE",
"444 102 CURVE SMOOTH",
"444 127 OFFCURVE",
"434 158 OFFCURVE",
"414 158 CURVE SMOOTH",
"407 158 OFFCURVE",
"401 153 OFFCURVE",
"395 147 CURVE SMOOTH",
"351 88 OFFCURVE",
"288 58 OFFCURVE",
"297 111 CURVE SMOOTH",
"325 272 LINE SMOOTH",
"330 300 OFFCURVE",
"314 313 OFFCURVE",
"291 310 CURVE SMOOTH",
"264 307 LINE",
"266 320 OFFCURVE",
"268 337 OFFCURVE",
"224 337 CURVE SMOOTH",
"139 337 OFFCURVE",
"19 247 OFFCURVE",
"23 107 CURVE SMOOTH",
"26 46 OFFCURVE",
"59 2 OFFCURVE"
);
},
{
closed = 1;
nodes = (
"139 80 CURVE SMOOTH",
"67 94 OFFCURVE",
"131 270 OFFCURVE",
"249 276 CURVE",
"226 168 LINE SMOOTH",
"210 93 OFFCURVE",
"169 74 OFFCURVE"
);
}
);
width = 360;
}
);
unicode = 0061;
userData = {
com.typemytype.robofont.layerData = {
};
};
},
{
glyphname = ae;
lastChange = "2016-07-25 08:03:28 +0000";
layers = (
{
anchors = (
{
name = ogonek;
position = "{363, 0}";
}
);
layerId = "1677BB6F-42BC-4502-A615-23038A63E498";
paths = (
{
closed = 1;
nodes = (
"351 -6 CURVE SMOOTH",
"435 -9 OFFCURVE",
"522 41 OFFCURVE",
"555 86 CURVE SMOOTH",
"582 122 OFFCURVE",
"538 152 OFFCURVE",
"516 132 CURVE SMOOTH",
"477 93 OFFCURVE",
"412 73 OFFCURVE",
"369 74 CURVE SMOOTH",
"338 74 OFFCURVE",
"309 88 OFFCURVE",
"302 120 CURVE",
"435 126 OFFCURVE",
"490 160 OFFCURVE",
"490 239 CURVE SMOOTH",
"490 296 OFFCURVE",
"448 329 OFFCURVE",
"393 329 CURVE SMOOTH",
"367 329 OFFCURVE",
"344 322 OFFCURVE",
"323 311 CURVE",
"331 304 OFFCURVE",
"349 337 OFFCURVE",
"296 337 CURVE SMOOTH",
"108 337 OFFCURVE",
"16 275 OFFCURVE",
"6 117 CURVE SMOOTH",
"1 78 OFFCURVE",
"16 4 OFFCURVE",
"93 -4 CURVE SMOOTH",
"138 -12 OFFCURVE",
"181 -5 OFFCURVE",
"223 73 CURVE",
"244 19 OFFCURVE",
"304 -3 OFFCURVE"
);
},
{
closed = 1;
nodes = (
"135 82 CURVE SMOOTH",
"111 86 OFFCURVE",
"110 108 OFFCURVE",
"110 124 CURVE SMOOTH",
"110 165 OFFCURVE",
"151 201 OFFCURVE",
"219 238 CURVE SMOOTH",
"233 246 OFFCURVE",
"247 253 OFFCURVE",
"271 261 CURVE",
"244 240 OFFCURVE",
"225 190 OFFCURVE",
"217 141 CURVE SMOOTH",
"216 140 OFFCURVE",
"212 140 OFFCURVE",
"206 140 CURVE",
"184 110 OFFCURVE",
"169 78 OFFCURVE"
);
},
{
closed = 1;
nodes = (
"301 170 CURVE",
"304 168 OFFCURVE",
"305 167 OFFCURVE",
"307 165 CURVE SMOOTH",
"316 203 OFFCURVE",
"355 251 OFFCURVE",
"397 251 CURVE SMOOTH",
"413 251 OFFCURVE",
"423 246 OFFCURVE",
"420 223 CURVE SMOOTH",
"413 188 OFFCURVE",
"315 159 OFFCURVE"
);
}
);
width = 491;
}
);
unicode = 00E6;
},
{
glyphname = b;
lastChange = "2016-07-25 08:03:28 +0000";
layers = (
{
layerId = "1677BB6F-42BC-4502-A615-23038A63E498";
paths = (
{
closed = 1;
nodes = (
"192 -5 CURVE SMOOTH",
"299 -5 OFFCURVE",
"366 94 OFFCURVE",
"365 255 CURVE SMOOTH",
"365 296 OFFCURVE",
"331 316 OFFCURVE",
"312 319 CURVE SMOOTH",
"254 322 OFFCURVE",
"202 279 OFFCURVE",
"213 285 CURVE",
"283 343 OFFCURVE",
"349 492 OFFCURVE",
"360 557 CURVE SMOOTH",
"367 598 OFFCURVE",
"359 656 OFFCURVE",
"295 656 CURVE SMOOTH",
"145 656 OFFCURVE",
"40 354 OFFCURVE",
"34 147 CURVE SMOOTH",
"31 52 OFFCURVE",
"96 -5 OFFCURVE"
);
},
{
closed = 1;
nodes = (
"324 122 CURVE SMOOTH",
"376 122 OFFCURVE",
"437 139 OFFCURVE",
"464 164 CURVE SMOOTH",
"476 175 OFFCURVE",
"478 183 OFFCURVE",
"478 196 CURVE SMOOTH",
"478 213 OFFCURVE",
"469 227 OFFCURVE",
"450 227 CURVE SMOOTH",
"433 227 OFFCURVE",
"395 182 OFFCURVE",
"341 182 CURVE SMOOTH",
"304 182 OFFCURVE",
"306 227 OFFCURVE",
"290 228 CURVE SMOOTH",
"266 229 OFFCURVE",
"234 201 OFFCURVE",
"234 179 CURVE SMOOTH",
"234 128 OFFCURVE",
"273 122 OFFCURVE"
);
},
{
closed = 1;
nodes = (
"205 73 CURVE SMOOTH",
"157 68 OFFCURVE",
"147 113 OFFCURVE",
"147 145 CURVE SMOOTH",
"147 200 OFFCURVE",
"187 252 OFFCURVE",
"237 252 CURVE SMOOTH",
"290 252 OFFCURVE",
"269 235 OFFCURVE",
"269 196 CURVE SMOOTH",
"269 140 OFFCURVE",
"245 77 OFFCURVE"
);
},
{
closed = 1;
nodes = (
"134 260 CURVE",
"128 285 OFFCURVE",
"195 558 OFFCURVE",
"261 558 CURVE SMOOTH",
"270 558 OFFCURVE",
"275 551 OFFCURVE",
"272 524 CURVE SMOOTH",
"259 452 OFFCURVE",
"221 376 OFFCURVE"
);
}
);
width = 390;
}
);
unicode = 0062;
userData = {
com.typemytype.robofont.layerData = {
};
};
},
{
glyphname = c;
lastChange = "2016-07-25 08:03:28 +0000";
layers = (
{
anchors = (
{
name = bot;
position = "{130, 0}";
}
);
layerId = "1677BB6F-42BC-4502-A615-23038A63E498";
paths = (
{
closed = 1;
nodes = (
"176 -5 CURVE SMOOTH",
"259 3 OFFCURVE",
"319 62 OFFCURVE",
"351 105 CURVE SMOOTH",
"366 128 OFFCURVE",
"341 168 OFFCURVE",
"319 146 CURVE SMOOTH",
"279 113 OFFCURVE",
"242 67 OFFCURVE",
"183 61 CURVE SMOOTH",
"137 56 OFFCURVE",
"101 84 OFFCURVE",
"104 137 CURVE SMOOTH",
"107 225 OFFCURVE",
"148 253 OFFCURVE",
"183 255 CURVE SMOOTH",
"199 256 OFFCURVE",
"209 250 OFFCURVE",
"209 238 CURVE SMOOTH",
"209 221 OFFCURVE",
"193 207 OFFCURVE",
"196 192 CURVE SMOOTH",
"199 177 OFFCURVE",
"210 162 OFFCURVE",
"221 161 CURVE SMOOTH",
"258 159 OFFCURVE",
"291 197 OFFCURVE",
"290 250 CURVE SMOOTH",
"289 288 OFFCURVE",
"253 330 OFFCURVE",
"190 330 CURVE SMOOTH",
"71 330 OFFCURVE",
"9 205 OFFCURVE",
"20 118 CURVE SMOOTH",
"30 -1 OFFCURVE",
"127 -10 OFFCURVE"
);
}
);
width = 270;
}
);
unicode = 0063;
userData = {
com.typemytype.robofont.layerData = {
};
};
},
{
glyphname = d;
lastChange = "2016-07-25 08:03:28 +0000";
layers = (
{
anchors = (
{
name = caron.alt;
position = "{521, 555}";
}
);
layerId = "1677BB6F-42BC-4502-A615-23038A63E498";
paths = (
{
closed = 1;
nodes = (
"135 -5 CURVE SMOOTH",
"176 -7 OFFCURVE",
"211 13 OFFCURVE",
"230 62 CURVE",
"248 20 OFFCURVE",
"298 -3 OFFCURVE",
"337 -3 CURVE SMOOTH",
"413 -3 OFFCURVE",
"463 45 OFFCURVE",
"495 87 CURVE SMOOTH",
"498 91 OFFCURVE",
"505 103 OFFCURVE",
"504 115 CURVE SMOOTH",
"501 137 OFFCURVE",
"483 149 OFFCURVE",
"467 150 CURVE SMOOTH",
"459 150 OFFCURVE",
"452 150 OFFCURVE",
"449 147 CURVE SMOOTH",
"437 133 OFFCURVE",
"388 71 OFFCURVE",
"345 71 CURVE SMOOTH",
"321 71 OFFCURVE",
"292 90 OFFCURVE",
"296 160 CURVE",
"372 276 OFFCURVE",
"531 457 OFFCURVE",
"498 589 CURVE SMOOTH",
"489 625 OFFCURVE",
"460 657 OFFCURVE",
"414 657 CURVE SMOOTH",
"308 657 OFFCURVE",
"257 547 OFFCURVE",
"229 329 CURVE",
"115 358 OFFCURVE",
"9 226 OFFCURVE",
"21 101 CURVE SMOOTH",
"28 35 OFFCURVE",
"81 -2 OFFCURVE"
);
},
{
closed = 1;
nodes = (
"146 78 CURVE SMOOTH",
"123 82 OFFCURVE",
"110 111 OFFCURVE",
"111 146 CURVE SMOOTH",
"112 198 OFFCURVE",
"146 263 OFFCURVE",
"222 270 CURVE",
"214 194 LINE SMOOTH",
"203 86 OFFCURVE",
"177 72 OFFCURVE"
);
},
{
closed = 1;
nodes = (
"418 537 CURVE SMOOTH",
"418 484 OFFCURVE",
"349 352 OFFCURVE",
"298 263 CURVE",
"315 399 OFFCURVE",
"341 561 OFFCURVE",
"401 561 CURVE SMOOTH",
"413 561 OFFCURVE",
"419 552 OFFCURVE"
);
}
);
width = 368.997;
}
);
unicode = 0064;
userData = {
com.typemytype.robofont.layerData = {
};
};
},
{
glyphname = eth;
lastChange = "2016-07-25 08:03:28 +0000";
layers = (
{
layerId = "1677BB6F-42BC-4502-A615-23038A63E498";
paths = (
{
closed = 1;
nodes = (
"174 0 CURVE SMOOTH",
"316 -6 OFFCURVE",
"399 166 OFFCURVE",
"402 328 CURVE SMOOTH",
"402 368 OFFCURVE",
"394 408 OFFCURVE",
"383 442 CURVE",
"408 452 LINE",
"428 461 OFFCURVE",
"444 472 OFFCURVE",
"444 494 CURVE SMOOTH",
"444 518 OFFCURVE",
"431 538 OFFCURVE",
"411 538 CURVE SMOOTH",
"401 538 OFFCURVE",
"394 534 OFFCURVE",
"388 532 CURVE SMOOTH",
"346 515 LINE",
"319 554 OFFCURVE",
"278 605 OFFCURVE",
"181 605 CURVE SMOOTH",
"152 605 OFFCURVE",
"118 594 OFFCURVE",
"118 557 CURVE SMOOTH",
"118 536 OFFCURVE",
"128 509 OFFCURVE",
"148 509 CURVE SMOOTH",
"208 509 OFFCURVE",
"233 492 OFFCURVE",
"250 474 CURVE",
"207 457 LINE",
"192 449 OFFCURVE",
"180 442 OFFCURVE",
"180 423 CURVE SMOOTH",
"180 400 OFFCURVE",
"197 377 OFFCURVE",
"220 377 CURVE SMOOTH",
"227 377 OFFCURVE",
"233 378 OFFCURVE",
"239 381 CURVE SMOOTH",
"273 395 OFFCURVE",
"254 388 OFFCURVE",
"288 402 CURVE",
"292 378 OFFCURVE",
"293 355 OFFCURVE",
"293 339 CURVE",
"270 338 OFFCURVE",
"249 339 OFFCURVE",
"220 338 CURVE SMOOTH",
"135 337 OFFCURVE",
"22 248 OFFCURVE",
"22 142 CURVE SMOOTH",
"22 52 OFFCURVE",
"86 4 OFFCURVE"
);
},
{
closed = 1;
nodes = (
"187 78 CURVE SMOOTH",
"143 83 OFFCURVE",
"114 101 OFFCURVE",
"114 143 CURVE SMOOTH",
"114 187 OFFCURVE",
"168 242 OFFCURVE",
"228 241 CURVE SMOOTH",
"255 241 OFFCURVE",
"268 237 OFFCURVE",
"283 233 CURVE",
"261 189 OFFCURVE",
"240 72 OFFCURVE"
);
}
);
width = 383;
}
);
unicode = 00F0;
},
{
glyphname = e;
lastChange = "2016-07-25 08:03:28 +0000";
layers = (
{
anchors = (
{
name = ogonek;
position = "{170, 0}";
}
);
layerId = "1677BB6F-42BC-4502-A615-23038A63E498";
paths = (
{
closed = 1;
nodes = (
"162 -6 CURVE SMOOTH",
"245 -7 OFFCURVE",
"323 42 OFFCURVE",
"354 86 CURVE SMOOTH",
"382 123 OFFCURVE",
"337 152 OFFCURVE",
"317 132 CURVE SMOOTH",
"253 72 OFFCURVE",
"143 51 OFFCURVE",
"116 99 CURVE",
"239 120 OFFCURVE",
"298 172 OFFCURVE",
"295 241 CURVE SMOOTH",
"293 298 OFFCURVE",
"255 332 OFFCURVE",
"195 329 CURVE SMOOTH",
"95 324 OFFCURVE",
"20 212 OFFCURVE",
"20 127 CURVE SMOOTH",
"20 27 OFFCURVE",
"94 -5 OFFCURVE"
);
},
{
closed = 1;
nodes = (
"109 146 CURVE",
"109 202 OFFCURVE",
"155 251 OFFCURVE",
"197 251 CURVE SMOOTH",
"211 251 OFFCURVE",
"222 247 OFFCURVE",
"220 228 CURVE SMOOTH",
"217 197 OFFCURVE",
"149 156 OFFCURVE"
);
}
);
width = 293;
}
);
unicode = 0065;
userData = {
com.typemytype.robofont.layerData = {
};
};
},
{
glyphname = f;
lastChange = "2016-07-25 08:03:28 +0000";
layers = (
{
layerId = "1677BB6F-42BC-4502-A615-23038A63E498";
paths = (
{
closed = 1;
nodes = (
"99 -261 CURVE SMOOTH",
"190 -228 OFFCURVE",
"230 -130 OFFCURVE",
"230 -64 CURVE SMOOTH",
"230 -4 OFFCURVE",
"215 88 OFFCURVE",
"202 134 CURVE",
"267 150 OFFCURVE",
"355 141 OFFCURVE",
"352 215 CURVE SMOOTH",
"351 231 OFFCURVE",
"343 245 OFFCURVE",
"335 245 CURVE SMOOTH",
"334 245 OFFCURVE",
"338 244 OFFCURVE",
"342 249 CURVE SMOOTH",
"280 221 OFFCURVE",
"259 208 OFFCURVE",
"198 208 CURVE SMOOTH",
"187 208 OFFCURVE",
"184 205 OFFCURVE",
"177 204 CURVE",
"212 253 OFFCURVE",
"333 399 OFFCURVE",
"336 538 CURVE SMOOTH",
"337 589 OFFCURVE",
"311 620 OFFCURVE",
"264 620 CURVE SMOOTH",
"68 620 OFFCURVE",
"12 102 OFFCURVE",
"12 -90 CURVE SMOOTH",
"12 -173 OFFCURVE",
"20 -286 OFFCURVE"
);
},
{
closed = 1;
nodes = (
"112 -185 CURVE SMOOTH",
"102 -187 OFFCURVE",
"100 -127 OFFCURVE",
"100 -79 CURVE SMOOTH",
"100 -18 OFFCURVE",
"111 113 OFFCURVE",
"110 175 CURVE",
"139 125 OFFCURVE",
"156 -3 OFFCURVE",
"156 -91 CURVE SMOOTH",
"156 -114 OFFCURVE",
"166 -182 OFFCURVE"
);
},
{
closed = 1;
nodes = (
"135 241 CURVE",
"139 243 OFFCURVE",
"181 525 OFFCURVE",
"253 525 CURVE SMOOTH",
"261 525 OFFCURVE",
"263 513 OFFCURVE",
"263 494 CURVE SMOOTH",
"263 396 OFFCURVE",
"126 228 OFFCURVE"
);
}
);
width = 260;
}
);
unicode = 0066;
userData = {
com.typemytype.robofont.layerData = {
};
};
},
{
glyphname = g;
lastChange = "2016-07-25 08:03:28 +0000";
layers = (
{
layerId = "1677BB6F-42BC-4502-A615-23038A63E498";
paths = (
{
closed = 1;
nodes = (
"66 -328 CURVE SMOOTH",
"194 -328 OFFCURVE",
"244 -188 OFFCURVE",
"278 -41 CURVE",
"347 4 OFFCURVE",
"396 20 OFFCURVE",
"445 47 CURVE SMOOTH",
"497 73 OFFCURVE",
"457 123 OFFCURVE",
"421 113 CURVE SMOOTH",
"403 115 OFFCURVE",
"336 77 OFFCURVE",
"292 39 CURVE",
"346 264 LINE",
"352 294 OFFCURVE",
"322 320 OFFCURVE",
"279 304 CURVE SMOOTH",
"279 304 OFFCURVE",
"277 327 OFFCURVE",
"248 328 CURVE SMOOTH",
"135 331 OFFCURVE",
"25 226 OFFCURVE",
"25 97 CURVE SMOOTH",
"25 40 OFFCURVE",
"60 -3 OFFCURVE",
"126 -5 CURVE SMOOTH",
"166 -6 OFFCURVE",
"200 12 OFFCURVE",
"219 35 CURVE",
"212 -5 LINE",
"97 -73 OFFCURVE",
"-19 -158 OFFCURVE",
"-19 -248 CURVE SMOOTH",
"-19 -300 OFFCURVE",
"14 -328 OFFCURVE"
);
},
{
closed = 1;
nodes = (
"150 72 CURVE SMOOTH",
"126 72 OFFCURVE",
"121 91 OFFCURVE",
"121 112 CURVE SMOOTH",
"121 160 OFFCURVE",
"183 247 OFFCURVE",
"260 253 CURVE",
"237 164 LINE",
"228 133 OFFCURVE",
"209 72 OFFCURVE"
);
},
{
closed = 1;
nodes = (
"76 -255 CURVE SMOOTH",
"64 -254 OFFCURVE",
"61 -245 OFFCURVE",
"61 -237 CURVE SMOOTH",
"61 -183 OFFCURVE",
"111 -150 OFFCURVE",
"204 -79 CURVE",
"197 -124 OFFCURVE",
"146 -261 OFFCURVE"
);
}
);
width = 345;
}
);
unicode = 0067;
userData = {
com.typemytype.robofont.layerData = {
};
};
},
{
glyphname = h;
lastChange = "2016-07-25 08:03:28 +0000";
layers = (
{
layerId = "1677BB6F-42BC-4502-A615-23038A63E498";
paths = (
{
closed = 1;
nodes = (
"74 0 CURVE SMOOTH",
"109 -2 OFFCURVE",
"112 15 OFFCURVE",
"120 43 CURVE SMOOTH",
"136 104 OFFCURVE",
"240 230 OFFCURVE",
"265 225 CURVE SMOOTH",
"284 221 OFFCURVE",
"218 113 OFFCURVE",
"215 54 CURVE SMOOTH",
"213 10 OFFCURVE",
"243 -8 OFFCURVE",
"283 -7 CURVE SMOOTH",
"335 -6 OFFCURVE",
"405 24 OFFCURVE",
"451 65 CURVE SMOOTH",
"468 80 OFFCURVE",
"475 95 OFFCURVE",
"474 109 CURVE SMOOTH",
"476 150 OFFCURVE",
"461 164 OFFCURVE",
"438 153 CURVE SMOOTH",
"431 150 OFFCURVE",
"334 77 OFFCURVE",
"315 77 CURVE SMOOTH",
"309 77 OFFCURVE",
"304 80 OFFCURVE",
"304 88 CURVE SMOOTH",
"303 108 OFFCURVE",
"357 196 OFFCURVE",
"383 281 CURVE SMOOTH",
"392 314 OFFCURVE",
"362 332 OFFCURVE",
"323 332 CURVE SMOOTH",
"283 332 OFFCURVE",
"182 278 OFFCURVE",
"126 165 CURVE",
"154 284 LINE",
"333 420 OFFCURVE",
"385 516 OFFCURVE",
"397 596 CURVE",
"401 651 OFFCURVE",
"370 690 OFFCURVE",
"316 690 CURVE SMOOTH",
"139 690 OFFCURVE",
"57 314 OFFCURVE",
"42 119 CURVE SMOOTH",
"38 85 OFFCURVE",
"30 4 OFFCURVE"
);
},
{
closed = 1;
nodes = (
"163 354 CURVE",
"172 396 OFFCURVE",
"223 607 OFFCURVE",
"295 591 CURVE SMOOTH",
"333 578 OFFCURVE",
"267 460 OFFCURVE"
);
}
);
width = 391.988;
}
);
unicode = 0068;
},
{
glyphname = i;
lastChange = "2016-07-25 08:03:28 +0000";
layers = (
{
anchors = (
{
name = ogonek;
position = "{0, 0}";
}
);
layerId = "1677BB6F-42BC-4502-A615-23038A63E498";
paths = (
{
closed = 1;
nodes = (
"129 -3 CURVE SMOOTH",
"182 -9 OFFCURVE",
"251 19 OFFCURVE",
"306 85 CURVE SMOOTH",
"313 94 OFFCURVE",
"319 99 OFFCURVE",
"319 107 CURVE SMOOTH",
"320 135 OFFCURVE",
"301 149 OFFCURVE",
"281 149 CURVE SMOOTH",
"272 149 OFFCURVE",
"264 145 OFFCURVE",
"258 137 CURVE SMOOTH",
"184 52 OFFCURVE",
"136 55 OFFCURVE",
"133 112 CURVE SMOOTH",
"130 169 OFFCURVE",
"157 236 OFFCURVE",
"181 282 CURVE SMOOTH",
"193 305 OFFCURVE",
"182 326 OFFCURVE",
"150 330 CURVE SMOOTH",
"125 333 OFFCURVE",
"104 325 OFFCURVE",
"87 296 CURVE SMOOTH",
"57 245 OFFCURVE",
"34 155 OFFCURVE",
"40 97 CURVE SMOOTH",
"46 39 OFFCURVE",
"82 2 OFFCURVE"
);
},
{
closed = 1;
nodes = (
"208 382 CURVE SMOOTH",
"248 379 OFFCURVE",
"278 400 OFFCURVE",
"279 439 CURVE SMOOTH",
"280 483 OFFCURVE",
"256 498 OFFCURVE",
"224 500 CURVE SMOOTH",
"185 503 OFFCURVE",
"150 478 OFFCURVE",
"150 438 CURVE SMOOTH",
"150 402 OFFCURVE",
"169 385 OFFCURVE"
);
}
);
width = 205;
}
);
unicode = 0069;
userData = {
com.typemytype.robofont.layerData = {
};
};
},
{
glyphname = dotlessi;
lastChange = "2016-07-25 08:03:28 +0000";
layers = (
{
layerId = "1677BB6F-42BC-4502-A615-23038A63E498";
paths = (
{
closed = 1;
nodes = (
"122 -3 CURVE SMOOTH",
"176 -11 OFFCURVE",
"242 19 OFFCURVE",
"297 85 CURVE SMOOTH",
"304 94 OFFCURVE",
"310 99 OFFCURVE",
"310 107 CURVE SMOOTH",
"311 135 OFFCURVE",
"292 149 OFFCURVE",
"272 149 CURVE SMOOTH",
"263 149 OFFCURVE",
"256 145 OFFCURVE",
"249 137 CURVE SMOOTH",
"175 52 OFFCURVE",
"124 55 OFFCURVE",
"124 111 CURVE SMOOTH",
"124 160 OFFCURVE",
"155 257 OFFCURVE",
"180 303 CURVE SMOOTH",
"192 328 OFFCURVE",
"163 345 OFFCURVE",
"144 347 CURVE SMOOTH",
"121 350 OFFCURVE",
"104 342 OFFCURVE",
"89 314 CURVE SMOOTH",
"61 261 OFFCURVE",
"34 161 OFFCURVE",
"34 101 CURVE SMOOTH",
"34 43 OFFCURVE",
"68 4 OFFCURVE"
);
}
);
width = 218;
}
);
unicode = 0131;
userData = {
com.typemytype.robofont.layerData = {
};
};
},
{
glyphname = j;
lastChange = "2016-07-25 08:03:28 +0000";
layers = (
{
layerId = "1677BB6F-42BC-4502-A615-23038A63E498";
paths = (
{
closed = 1;
nodes = (
"80 -208 CURVE SMOOTH",
"183 -222 OFFCURVE",
"207 -119 OFFCURVE",
"208 -1 CURVE SMOOTH",
"209 42 OFFCURVE",
"200 106 OFFCURVE",
"197 129 CURVE",
"249 127 OFFCURVE",
"343 144 OFFCURVE",
"343 215 CURVE SMOOTH",
"343 234 OFFCURVE",
"334 248 OFFCURVE",
"316 239 CURVE",
"239 208 OFFCURVE",
"206 213 OFFCURVE",
"147 194 CURVE",
"164 233 LINE",
"172 250 OFFCURVE",
"184 277 OFFCURVE",
"186 300 CURVE SMOOTH",
"187 315 OFFCURVE",
"179 329 OFFCURVE",
"160 329 CURVE SMOOTH",
"101 329 OFFCURVE",
"87 314 OFFCURVE",
"71 277 CURVE SMOOTH",
"38 198 OFFCURVE",
"15 96 OFFCURVE",
"5 1 CURVE SMOOTH",
"-4 -86 OFFCURVE",
"-16 -195 OFFCURVE"
);
},
{
closed = 1;
nodes = (
"137 -31 CURVE SMOOTH",
"135 -95 OFFCURVE",
"125 -144 OFFCURVE",
"99 -137 CURVE SMOOTH",
"89 -134 OFFCURVE",
"85 -118 OFFCURVE",
"85 -93 CURVE SMOOTH",
"84 -31 OFFCURVE",
"109 81 OFFCURVE",
"131 152 CURVE",
"135 101 OFFCURVE",
"140 29 OFFCURVE"
);
},
{
closed = 1;
nodes = (
"182 388 CURVE SMOOTH",
"219 388 OFFCURVE",
"243 411 OFFCURVE",
"243 447 CURVE SMOOTH",
"243 481 OFFCURVE",
"220 496 OFFCURVE",
"190 496 CURVE SMOOTH",
"154 496 OFFCURVE",
"125 475 OFFCURVE",
"125 438 CURVE SMOOTH",
"125 406 OFFCURVE",
"147 388 OFFCURVE"
);
}
);
width = 217;
}
);
unicode = 006A;
},
{
glyphname = k;
lastChange = "2016-07-25 08:03:28 +0000";
layers = (
{
layerId = "1677BB6F-42BC-4502-A615-23038A63E498";
paths = (
{
closed = 1;
nodes = (
"340 -9 CURVE SMOOTH",
"412 -9 OFFCURVE",
"489 63 OFFCURVE",
"503 88 CURVE SMOOTH",
"524 118 OFFCURVE",
"476 175 OFFCURVE",
"455 132 CURVE SMOOTH",
"402 59 OFFCURVE",
"371 69 OFFCURVE",
"370 61 CURVE SMOOTH",
"330 55 OFFCURVE",
"317 59 OFFCURVE",
"322 81 CURVE SMOOTH",
"335 148 OFFCURVE",
"438 153 OFFCURVE",
"454 238 CURVE SMOOTH",
"463 285 OFFCURVE",
"440 316 OFFCURVE",
"393 318 CURVE SMOOTH",
"290 319 OFFCURVE",
"185 201 OFFCURVE",
"125 79 CURVE",
"125 86 OFFCURVE",
"138 188 OFFCURVE",
"143 206 CURVE",
"158 224 OFFCURVE",
"387 459 OFFCURVE",
"387 586 CURVE SMOOTH",
"387 633 OFFCURVE",
"362 663 OFFCURVE",
"310 663 CURVE SMOOTH",
"59 663 OFFCURVE",
"34 114 OFFCURVE",
"44 59 CURVE SMOOTH",
"44 69 OFFCURVE",
"47 -5 OFFCURVE",
"87 -5 CURVE SMOOTH",
"197 -5 OFFCURVE",
"244 214 OFFCURVE",
"355 210 CURVE SMOOTH",
"356 208 OFFCURVE",
"353 207 OFFCURVE",
"353 206 CURVE SMOOTH",
"346 172 OFFCURVE",
"235 149 OFFCURVE",
"250 64 CURVE SMOOTH",
"259 9 OFFCURVE",
"313 -9 OFFCURVE"
);
},
{
closed = 1;
nodes = (
"161 318 CURVE",
"171 394 OFFCURVE",
"227 565 OFFCURVE",
"283 564 CURVE SMOOTH",
"292 564 OFFCURVE",
"295 561 OFFCURVE",
"295 550 CURVE SMOOTH",
"295 465 OFFCURVE",
"240 426 OFFCURVE"
);
}
);
width = 440;
}
);
unicode = 006B;
},
{
glyphname = kgreenlandic;
lastChange = "2016-07-25 08:03:28 +0000";
layers = (
{
layerId = "1677BB6F-42BC-4502-A615-23038A63E498";
paths = (
{
closed = 1;
nodes = (
"340 -9 CURVE SMOOTH",
"412 -9 OFFCURVE",
"489 63 OFFCURVE",
"503 88 CURVE SMOOTH",
"524 118 OFFCURVE",
"476 175 OFFCURVE",
"455 132 CURVE SMOOTH",
"402 59 OFFCURVE",
"371 69 OFFCURVE",
"370 61 CURVE SMOOTH",
"330 55 OFFCURVE",
"317 59 OFFCURVE",
"322 81 CURVE SMOOTH",
"335 148 OFFCURVE",
"438 153 OFFCURVE",
"454 238 CURVE SMOOTH",
"463 285 OFFCURVE",
"440 316 OFFCURVE",
"393 318 CURVE SMOOTH",
"290 319 OFFCURVE",
"185 201 OFFCURVE",
"125 79 CURVE",
"125 86 OFFCURVE",
"138 188 OFFCURVE",
"143 206 CURVE",
"324 329 OFFCURVE",
"308 451 OFFCURVE",
"228 468 CURVE SMOOTH",
"103 494 OFFCURVE",
"34 217 OFFCURVE",
"44 59 CURVE SMOOTH",
"44 69 OFFCURVE",
"47 -5 OFFCURVE",
"87 -5 CURVE SMOOTH",
"197 -5 OFFCURVE",
"244 214 OFFCURVE",
"355 210 CURVE SMOOTH",
"356 208 OFFCURVE",
"353 207 OFFCURVE",
"353 206 CURVE SMOOTH",
"346 172 OFFCURVE",
"235 149 OFFCURVE",
"250 64 CURVE SMOOTH",
"259 9 OFFCURVE",
"313 -9 OFFCURVE"
);
},
{
closed = 1;
nodes = (
"152 283 CURVE",
"165 351 OFFCURVE",
"184 395 OFFCURVE",
"206 396 CURVE SMOOTH",
"243 398 OFFCURVE",
"208 331 OFFCURVE"
);
}
);
width = 440;
}
);
unicode = 0138;
},
{
glyphname = l;
lastChange = "2016-07-25 08:03:28 +0000";
layers = (
{
layerId = "1677BB6F-42BC-4502-A615-23038A63E498";
paths = (
{
closed = 1;
nodes = (
"174 -5 CURVE SMOOTH",
"232 -5 OFFCURVE",
"282 18 OFFCURVE",
"338 82 CURVE SMOOTH",
"378 125 OFFCURVE",
"319 167 OFFCURVE",
"294 138 CURVE SMOOTH",
"260 99 OFFCURVE",
"225 72 OFFCURVE",
"189 72 CURVE SMOOTH",
"146 72 OFFCURVE",
"145 143 OFFCURVE",
"149 172 CURVE",
"269 268 OFFCURVE",
"392 472 OFFCURVE",
"391 581 CURVE SMOOTH",
"391 626 OFFCURVE",
"370 655 OFFCURVE",
"320 655 CURVE SMOOTH",
"166 655 OFFCURVE",
"75 355 OFFCURVE",
"57 181 CURVE SMOOTH",
"48 73 OFFCURVE",
"95 -5 OFFCURVE"
);
},
{
closed = 1;
nodes = (
"303 539 CURVE SMOOTH",
"302 486 OFFCURVE",
"228 341 OFFCURVE",
"160 260 CURVE",
"177 369 OFFCURVE",
"233 558 OFFCURVE",
"290 558 CURVE SMOOTH",
"299 558 OFFCURVE",
"303 551 OFFCURVE"
);
}
);
width = 247.974;
}
);
unicode = 006C;
},
{
glyphname = lslash;
lastChange = "2016-07-25 08:03:28 +0000";
layers = (
{
components = (
{
name = l;
}
);
layerId = "1677BB6F-42BC-4502-A615-23038A63E498";
paths = (
{
closed = 1;
nodes = (
"198 105 LINE",
"212 111 OFFCURVE",
"218 122 OFFCURVE",
"217 130 CURVE SMOOTH",
"216 145 OFFCURVE",
"200 159 OFFCURVE",
"185 159 CURVE SMOOTH",
"182 159 OFFCURVE",
"178 159 OFFCURVE",
"173 157 CURVE SMOOTH",
"43 103 LINE",
"24 96 OFFCURVE",
"16 83 OFFCURVE",
"16 70 CURVE SMOOTH",
"16 57 OFFCURVE",
"28 44 OFFCURVE",
"42 44 CURVE SMOOTH",
"47 44 OFFCURVE",
"54 44 OFFCURVE",
"57 46 CURVE SMOOTH"
);
}
);
width = 263;
}
);
unicode = 0142;
},
{
glyphname = m;
lastChange = "2016-07-25 08:03:28 +0000";
layers = (
{
layerId = "1677BB6F-42BC-4502-A615-23038A63E498";
paths = (
{
closed = 1;
nodes = (
"604 100 CURVE SMOOTH",
"611 113 OFFCURVE",
"572 151 OFFCURVE",
"556 131 CURVE SMOOTH",
"523 91 OFFCURVE",
"497 69 OFFCURVE",
"474 62 CURVE SMOOTH",
"445 53 OFFCURVE",
"434 71 OFFCURVE",
"434 97 CURVE SMOOTH",
"433 152 OFFCURVE",
"462 226 OFFCURVE",
"482 298 CURVE SMOOTH",
"487 316 OFFCURVE",
"471 333 OFFCURVE",
"441 333 CURVE SMOOTH",
"406 333 OFFCURVE",
"347 304 OFFCURVE",
"279 152 CURVE",
"290 206 OFFCURVE",
"304 269 OFFCURVE",
"308 295 CURVE SMOOTH",
"312 321 OFFCURVE",
"283 335 OFFCURVE",
"265 335 CURVE SMOOTH",
"230 335 OFFCURVE",
"172 287 OFFCURVE",
"114 143 CURVE",
"114 186 OFFCURVE",
"136 274 OFFCURVE",
"143 297 CURVE SMOOTH",
"148 317 OFFCURVE",
"130 331 OFFCURVE",
"111 330 CURVE SMOOTH",
"88 330 OFFCURVE",
"76 310 OFFCURVE",
"73 303 CURVE SMOOTH",
"46 225 OFFCURVE",
"30 125 OFFCURVE",
"37 77 CURVE SMOOTH",
"38 35 OFFCURVE",
"46 2 OFFCURVE",
"83 0 CURVE SMOOTH",
"104 -1 OFFCURVE",
"121 5 OFFCURVE",
"145 55 CURVE SMOOTH",
"182 132 OFFCURVE",
"193 165 OFFCURVE",
"243 233 CURVE",
"212 136 OFFCURVE",
"207 88 OFFCURVE",
"206 71 CURVE SMOOTH",
"203 32 OFFCURVE",
"207 6 OFFCURVE",
"248 2 CURVE SMOOTH",
"265 0 OFFCURVE",
"279 9 OFFCURVE",
"290 29 CURVE SMOOTH",
"325 102 OFFCURVE",
"353 177 OFFCURVE",
"400 239 CURVE",
"362 156 OFFCURVE",
"358 108 OFFCURVE",
"357 77 CURVE SMOOTH",
"355 35 OFFCURVE",
"376 -6 OFFCURVE",
"441 -2 CURVE SMOOTH",
"493 1 OFFCURVE",
"563 43 OFFCURVE"
);
}
);
width = 489;
}
);
unicode = 006D;
userData = {
com.typemytype.robofont.layerData = {
};
};
},
{
glyphname = n;
lastChange = "2016-07-25 08:03:28 +0000";
layers = (
{
layerId = "1677BB6F-42BC-4502-A615-23038A63E498";
paths = (
{
closed = 1;
nodes = (
"250 0 CURVE SMOOTH",
"306 -10 OFFCURVE",
"379 31 OFFCURVE",
"426 70 CURVE SMOOTH",
"451 91 OFFCURVE",
"426 157 OFFCURVE",
"393 129 CURVE SMOOTH",
"358 99 OFFCURVE",
"329 82 OFFCURVE",
"314 82 CURVE SMOOTH",
"305 82 OFFCURVE",
"300 88 OFFCURVE",
"301 103 CURVE SMOOTH",
"308 171 OFFCURVE",
"358 241 OFFCURVE",
"355 295 CURVE SMOOTH",
"353 328 OFFCURVE",
"326 336 OFFCURVE",
"299 333 CURVE SMOOTH",
"245 328 OFFCURVE",
"175 274 OFFCURVE",
"113 166 CURVE",
"124 216 OFFCURVE",
"141 266 OFFCURVE",
"150 289 CURVE SMOOTH",
"159 312 OFFCURVE",
"144 330 OFFCURVE",
"121 332 CURVE SMOOTH",
"91 335 OFFCURVE",
"78 317 OFFCURVE",
"68 292 CURVE SMOOTH",
"43 230 OFFCURVE",
"25 152 OFFCURVE",
"24 82 CURVE SMOOTH",
"24 46 OFFCURVE",
"29 -2 OFFCURVE",
"68 -2 CURVE SMOOTH",
"93 -2 OFFCURVE",
"103 8 OFFCURVE",
"115 41 CURVE SMOOTH",
"153 148 OFFCURVE",
"206 206 OFFCURVE",
"235 216 CURVE SMOOTH",
"258 224 OFFCURVE",
"207 130 OFFCURVE",
"204 63 CURVE SMOOTH",
"202 23 OFFCURVE",
"221 5 OFFCURVE"
);
}
);
width = 338.003;
}
);
unicode = 006E;
userData = {
com.typemytype.robofont.layerData = {
};
};
},
{
glyphname = eng;
lastChange = "2016-07-25 08:03:28 +0000";
layers = (
{
layerId = "1677BB6F-42BC-4502-A615-23038A63E498";
paths = (
{
closed = 1;
nodes = (
"271 70 CURVE",
"299 146 LINE",
"310 172 OFFCURVE",
"336 262 OFFCURVE",
"325 302 CURVE SMOOTH",
"324 316 OFFCURVE",
"313 328 OFFCURVE",
"290 328 CURVE SMOOTH",
"243 328 OFFCURVE",
"206 262 OFFCURVE",
"123 171 CURVE",
"137 204 OFFCURVE",
"149 253 OFFCURVE",
"159 287 CURVE SMOOTH",
"166 311 OFFCURVE",
"155 332 OFFCURVE",
"130 332 CURVE SMOOTH",
"102 332 OFFCURVE",
"84 313 OFFCURVE",
"77 292 CURVE SMOOTH",
"57 227 OFFCURVE",
"38 150 OFFCURVE",
"38 81 CURVE SMOOTH",
"37 43 OFFCURVE",
"34 0 OFFCURVE",
"73 0 CURVE SMOOTH",
"92 0 OFFCURVE",
"101 25 OFFCURVE",
"124 59 CURVE SMOOTH",
"173 108 OFFCURVE",
"185 157 OFFCURVE",
"247 205 CURVE",
"224 152 OFFCURVE",
"224 146 OFFCURVE",
"220 141 CURVE SMOOTH",
"181 39 LINE",
"130 17 OFFCURVE",
"99 -3 OFFCURVE",
"76 -23 CURVE SMOOTH",
"51 -41 OFFCURVE",
"34 -60 OFFCURVE",
"12 -78 CURVE SMOOTH",
"-36 -136 OFFCURVE",
"-33 -184 OFFCURVE",
"28 -191 CURVE SMOOTH",
"48 -194 OFFCURVE",
"79 -189 OFFCURVE",
"127 -154 CURVE SMOOTH",
"175 -122 OFFCURVE",
"223 -68 OFFCURVE",
"259 17 CURVE",
"303 43 OFFCURVE",
"346 42 OFFCURVE",
"385 62 CURVE SMOOTH",
"428 82 OFFCURVE",
"426 117 OFFCURVE",
"395 109 CURVE SMOOTH",
"386 112 OFFCURVE",
"310 89 OFFCURVE"
);
},
{
closed = 1;
nodes = (
"169 -28 CURVE",
"146 -56 OFFCURVE",
"72 -130 OFFCURVE",
"54 -119 CURVE SMOOTH",
"57 -119 OFFCURVE",
"57 -123 OFFCURVE",
"55 -124 CURVE SMOOTH",
"51 -123 OFFCURVE",
"68 -73 OFFCURVE"
);
}
);
width = 321;
}
);
unicode = 014B;
},
{
glyphname = o;
lastChange = "2016-07-25 08:03:28 +0000";
layers = (
{
anchors = (
{
name = ogonek;
position = "{175, 15}";
}
);
layerId = "1677BB6F-42BC-4502-A615-23038A63E498";
paths = (
{
closed = 1;
nodes = (
"168 -6 CURVE SMOOTH",
"262 -9 OFFCURVE",
"299 62 OFFCURVE",
"317 110 CURVE",
"399 137 OFFCURVE",
"440 167 OFFCURVE",
"462 196 CURVE SMOOTH",
"476 214 OFFCURVE",
"443 260 OFFCURVE",
"421 237 CURVE SMOOTH",
"404 220 OFFCURVE",
"368 194 OFFCURVE",
"328 180 CURVE",
"343 259 OFFCURVE",
"303 328 OFFCURVE",
"227 330 CURVE SMOOTH",
"122 333 OFFCURVE",
"44 236 OFFCURVE",
"44 126 CURVE SMOOTH",
"44 51 OFFCURVE",
"96 -4 OFFCURVE"
);
},
{
closed = 1;
nodes = (
"180 66 CURVE SMOOTH",
"145 67 OFFCURVE",
"128 96 OFFCURVE",
"126 132 CURVE SMOOTH",
"123 187 OFFCURVE",
"157 257 OFFCURVE",
"218 256 CURVE SMOOTH",
"229 256 OFFCURVE",
"236 253 OFFCURVE",
"236 253 CURVE",
"194 200 OFFCURVE",
"195 147 OFFCURVE",
"246 128 CURVE",
"241 99 OFFCURVE",
"222 65 OFFCURVE"
);
}
);
width = 346.997;
}
);
unicode = 006F;
userData = {
com.typemytype.robofont.layerData = {
};
};
},
{
glyphname = oslash;
lastChange = "2016-07-25 08:03:28 +0000";
layers = (
{
components = (
{
name = o;
}
);
layerId = "1677BB6F-42BC-4502-A615-23038A63E498";
paths = (
{
closed = 1;
nodes = (
"7 -60 CURVE SMOOTH",
"104 77 OFFCURVE",
"235 241 OFFCURVE",
"407 358 CURVE SMOOTH",
"428 373 OFFCURVE",
"403 417 OFFCURVE",
"372 395 CURVE SMOOTH",
"205 278 OFFCURVE",
"81 101 OFFCURVE",
"-15 -30 CURVE SMOOTH",
"-35 -57 OFFCURVE",
"-4 -76 OFFCURVE"
);
}
);
width = 332;
}
);
unicode = 00F8;
},
{
glyphname = oe;
lastChange = "2016-07-25 08:03:28 +0000";
layers = (
{
layerId = "1677BB6F-42BC-4502-A615-23038A63E498";
paths = (
{
closed = 1;
nodes = (
"486 132 CURVE SMOOTH",
"422 72 OFFCURVE",
"312 51 OFFCURVE",
"285 99 CURVE",
"403 130 OFFCURVE",
"460 160 OFFCURVE",
"460 239 CURVE SMOOTH",
"460 296 OFFCURVE",
"417 329 OFFCURVE",
"362 329 CURVE SMOOTH",
"314 329 OFFCURVE",
"274 303 OFFCURVE",
"244 268 CURVE",
"224 302 OFFCURVE",
"198 327 OFFCURVE",
"153 326 CURVE SMOOTH",
"105 324 OFFCURVE",
"20 278 OFFCURVE",
"10 151 CURVE SMOOTH",
"1 51 OFFCURVE",
"43 2 OFFCURVE",
"122 2 CURVE SMOOTH",
"156 2 OFFCURVE",
"184 22 OFFCURVE",
"209 41 CURVE",
"237 6 OFFCURVE",
"288 -4 OFFCURVE",
"329 -6 CURVE SMOOTH",
"412 -7 OFFCURVE",
"492 42 OFFCURVE",
"525 86 CURVE SMOOTH",
"551 123 OFFCURVE",
"508 152 OFFCURVE"
);
},
{
closed = 1;
nodes = (
"155 248 CURVE SMOOTH",
"190 251 OFFCURVE",
"188 199 OFFCURVE",
"188 188 CURVE SMOOTH",
"188 116 OFFCURVE",
"162 78 OFFCURVE",
"133 77 CURVE SMOOTH",
"113 80 OFFCURVE",
"99 100 OFFCURVE",
"103 131 CURVE SMOOTH",
"109 188 OFFCURVE",
"113 243 OFFCURVE"
);
},
{
closed = 1;
nodes = (
"278 146 CURVE",
"278 202 OFFCURVE",
"324 251 OFFCURVE",
"366 251 CURVE SMOOTH",
"381 251 OFFCURVE",
"391 247 OFFCURVE",
"390 228 CURVE SMOOTH",
"386 197 OFFCURVE",
"312 166 OFFCURVE"
);
}
);
width = 471;
}
);
unicode = 0153;
},
{
glyphname = p;
lastChange = "2016-07-25 08:03:28 +0000";
layers = (
{
layerId = "1677BB6F-42BC-4502-A615-23038A63E498";
paths = (
{
closed = 1;
nodes = (
"304 128 CURVE SMOOTH",
"371 134 OFFCURVE",
"485 217 OFFCURVE",
"523 262 CURVE",
"532 266 OFFCURVE",
"535 274 OFFCURVE",
"536 281 CURVE SMOOTH",
"536 298 OFFCURVE",
"526 314 OFFCURVE",
"511 317 CURVE SMOOTH",
"508 318 OFFCURVE",
"509 321 OFFCURVE",
"506 320 CURVE",
"472 286 OFFCURVE",
"390 203 OFFCURVE",
"338 203 CURVE SMOOTH",
"340 203 OFFCURVE",
"307 239 OFFCURVE",
"280 239 CURVE SMOOTH",
"273 239 OFFCURVE",
"270 235 OFFCURVE",
"270 234 CURVE",
"239 213 OFFCURVE",
"231 207 OFFCURVE",
"227 189 CURVE SMOOTH",
"218 145 OFFCURVE",
"253 125 OFFCURVE"
);
},
{
closed = 1;
nodes = (
"-10 -250 CURVE SMOOTH",
"13 -250 OFFCURVE",
"45 -226 OFFCURVE",
"53 -208 CURVE",
"70 -220 OFFCURVE",
"110 -6 OFFCURVE",
"115 14 CURVE",
"133 -1 OFFCURVE",
"143 -8 OFFCURVE",
"165 -8 CURVE SMOOTH",
"270 -8 OFFCURVE",
"347 111 OFFCURVE",
"356 210 CURVE SMOOTH",
"364 277 OFFCURVE",
"334 332 OFFCURVE",
"270 331 CURVE SMOOTH",
"117 328 OFFCURVE",
"85 206 OFFCURVE",
"44 88 CURVE SMOOTH",
"36 68 OFFCURVE",
"-24 -201 OFFCURVE",
"-26 -224 CURVE SMOOTH",
"-29 -259 OFFCURVE",
"-24 -250 OFFCURVE"
);
},
{
closed = 1;
nodes = (
"167 68 CURVE SMOOTH",
"153 68 OFFCURVE",
"140 76 OFFCURVE",
"129 84 CURVE",
"150 145 OFFCURVE",
"167 254 OFFCURVE",
"238 254 CURVE SMOOTH",
"262 254 OFFCURVE",
"278 223 OFFCURVE",
"273 191 CURVE SMOOTH",
"265 134 OFFCURVE",
"216 68 OFFCURVE"
);
}
);
width = 365;
}
);
unicode = 0070;
userData = {
com.typemytype.robofont.layerData = {
};
};
},
{
glyphname = thorn;
lastChange = "2016-07-25 08:03:28 +0000";
layers = (
{
layerId = "1677BB6F-42BC-4502-A615-23038A63E498";
paths = (
{
closed = 1;
nodes = (
"-15 -191 LINE",
"-23 -242 OFFCURVE",
"62 -243 OFFCURVE",
"70 -200 CURVE SMOOTH",
"110 24 LINE",
"124 17 OFFCURVE",
"150 0 OFFCURVE",
"190 0 CURVE SMOOTH",
"220 0 OFFCURVE",
"240 4 OFFCURVE",
"269 27 CURVE",
"308 28 OFFCURVE",
"377 68 OFFCURVE",
"428 118 CURVE",
"465 152 OFFCURVE",
"449 216 OFFCURVE",
"408 182 CURVE SMOOTH",
"372 152 OFFCURVE",
"311 103 OFFCURVE",
"297 103 CURVE",
"321 128 OFFCURVE",
"334 165 OFFCURVE",
"330 221 CURVE SMOOTH",
"325 279 OFFCURVE",
"300 329 OFFCURVE",
"246 329 CURVE SMOOTH",
"197 329 OFFCURVE",
"177 308 OFFCURVE",
"158 290 CURVE",
"198 494 LINE",
"212 565 OFFCURVE",
"124 554 OFFCURVE",
"115 505 CURVE SMOOTH",
"89 368 OFFCURVE",
"80 316 OFFCURVE",
"69 256 CURVE SMOOTH"
);
},
{
closed = 1;
nodes = (
"190 78 CURVE SMOOTH",
"163 78 OFFCURVE",
"132 83 OFFCURVE",
"122 95 CURVE",
"126 139 OFFCURVE",
"136 249 OFFCURVE",
"216 249 CURVE SMOOTH",
"246 249 OFFCURVE",
"261 222 OFFCURVE",
"261 186 CURVE SMOOTH",
"262 156 OFFCURVE",
"229 78 OFFCURVE"
);
}
);
width = 355;
}
);
unicode = 00FE;
},
{
glyphname = q;
lastChange = "2016-07-25 08:03:28 +0000";
layers = (
{
layerId = "1677BB6F-42BC-4502-A615-23038A63E498";
paths = (
{
closed = 1;
nodes = (
"217 55 CURVE",
"89 37 OFFCURVE",
"123 273 OFFCURVE",
"234 273 CURVE SMOOTH",
"251 273 OFFCURVE",
"278 268 OFFCURVE",
"277 267 CURVE SMOOTH",
"270 237 OFFCURVE",
"241 122 OFFCURVE"
);
},
{
closed = 1;
nodes = (
"315 70 LINE",
"330 123 OFFCURVE",
"357 217 OFFCURVE",
"367 268 CURVE SMOOTH",
"372 298 OFFCURVE",
"300 336 OFFCURVE",
"227 336 CURVE",
"-12 328 OFFCURVE",
"-13 -39 OFFCURVE",
"202 -16 CURVE",
"184 -85 OFFCURVE",
"154 -172 OFFCURVE",
"131 -240 CURVE SMOOTH",
"121 -272 OFFCURVE",
"208 -312 OFFCURVE",
"223 -257 CURVE SMOOTH"
);
},
{
closed = 1;
nodes = (
"304 60 CURVE",
"361 70 OFFCURVE",
"464 177 OFFCURVE",
"492 233 CURVE SMOOTH",
"507 264 OFFCURVE",
"466 301 OFFCURVE",
"442 266 CURVE SMOOTH",
"406 214 OFFCURVE",
"328 147 OFFCURVE",
"299 133 CURVE",
"178 189 OFFCURVE",
"178 -18 OFFCURVE"
);
}
);
width = 395;
}
);
unicode = 0071;
},
{
glyphname = r;
lastChange = "2016-07-25 08:03:28 +0000";
layers = (
{
layerId = "1677BB6F-42BC-4502-A615-23038A63E498";
paths = (
{
closed = 1;
nodes = (
"75 0 CURVE SMOOTH",
"106 0 OFFCURVE",
"118 13 OFFCURVE",
"127 30 CURVE",
"175 161 OFFCURVE",
"209 212 OFFCURVE",
"218 253 CURVE SMOOTH",
"183 182 OFFCURVE",
"188 131 OFFCURVE",
"294 139 CURVE SMOOTH",
"336 143 OFFCURVE",
"382 170 OFFCURVE",
"411 193 CURVE SMOOTH",
"423 203 OFFCURVE",
"390 246 OFFCURVE",
"375 244 CURVE SMOOTH",
"302 215 OFFCURVE",
"268 210 OFFCURVE",
"279 227 CURVE SMOOTH",
"306 293 OFFCURVE",
"314 329 OFFCURVE",
"249 329 CURVE SMOOTH",
"211 329 OFFCURVE",
"126 201 OFFCURVE",
"104 135 CURVE",
"117 162 OFFCURVE",
"135 254 OFFCURVE",
"142 286 CURVE SMOOTH",
"148 308 OFFCURVE",
"133 330 OFFCURVE",
"109 330 CURVE SMOOTH",
"81 330 OFFCURVE",
"65 315 OFFCURVE",
"52 281 CURVE SMOOTH",
"34 220 OFFCURVE",
"25 150 OFFCURVE",
"26 81 CURVE SMOOTH",
"24 43 OFFCURVE",
"33 0 OFFCURVE"
);
}
);
width = 282;
}
);
unicode = 0072;
userData = {
com.typemytype.robofont.layerData = {
};
};
},
{
glyphname = s;
lastChange = "2016-07-25 08:03:28 +0000";
layers = (
{
anchors = (
{
name = bot;
position = "{146, 20}";
}
);
layerId = "1677BB6F-42BC-4502-A615-23038A63E498";
paths = (
{
closed = 1;
nodes = (
"179 -6 CURVE SMOOTH",
"299 -6 OFFCURVE",
"386 34 OFFCURVE",
"418 95 CURVE SMOOTH",
"438 128 OFFCURVE",
"393 183 OFFCURVE",
"367 152 CURVE SMOOTH",
"356 138 OFFCURVE",
"317 91 OFFCURVE",
"279 75 CURVE",
"325 152 OFFCURVE",
"172 231 OFFCURVE",
"194 266 CURVE SMOOTH",
"240 344 OFFCURVE",
"141 368 OFFCURVE",
"109 306 CURVE SMOOTH",
"133 352 OFFCURVE",
"23 132 OFFCURVE",
"-6 88 CURVE",
"26 31 OFFCURVE",
"97 -7 OFFCURVE"
);
},
{
closed = 1;
nodes = (
"152 61 CURVE SMOOTH",
"141 60 OFFCURVE",
"124 70 OFFCURVE",
"105 80 CURVE",
"111 92 OFFCURVE",
"104 82 OFFCURVE",
"127 129 CURVE SMOOTH",
"161 199 LINE",
"213 122 OFFCURVE",
"221 58 OFFCURVE"
);
}
);
width = 291;
}
);
unicode = 0073;
userData = {
com.typemytype.robofont.layerData = {
};
};
},
{
glyphname = germandbls;
lastChange = "2016-07-25 08:03:28 +0000";
layers = (
{
layerId = "1677BB6F-42BC-4502-A615-23038A63E498";
paths = (
{
closed = 1;
nodes = (
"65 -60 CURVE SMOOTH",
"95 -60 OFFCURVE",
"119 -44 OFFCURVE",
"119 -13 CURVE SMOOTH",
"119 10 OFFCURVE",
"119 31 OFFCURVE",
"119 54 CURVE SMOOTH",
"119 221 OFFCURVE",
"122 474 OFFCURVE",
"286 474 CURVE SMOOTH",
"326 474 OFFCURVE",
"359 458 OFFCURVE",
"359 421 CURVE SMOOTH",
"359 360 OFFCURVE",
"319 340 OFFCURVE",
"256 340 CURVE SMOOTH",
"221 340 OFFCURVE",
"215 328 OFFCURVE",
"215 289 CURVE SMOOTH",
"215 267 OFFCURVE",
"227 256 OFFCURVE",
"243 250 CURVE SMOOTH",
"302 222 OFFCURVE",
"347 242 OFFCURVE",
"347 167 CURVE SMOOTH",
"347 93 OFFCURVE",
"285 59 OFFCURVE",
"216 75 CURVE SMOOTH",
"167 86 OFFCURVE",
"155 83 OFFCURVE",
"152 74 CURVE SMOOTH",
"145 42 OFFCURVE",
"119 6 OFFCURVE",
"234 -5 CURVE SMOOTH",
"339 -17 OFFCURVE",
"437 41 OFFCURVE",
"437 155 CURVE SMOOTH",
"437 244 OFFCURVE",
"364 296 OFFCURVE",
"283 291 CURVE",
"373 293 OFFCURVE",
"448 330 OFFCURVE",
"448 424 CURVE SMOOTH",
"448 507 OFFCURVE",
"370 552 OFFCURVE",
"285 552 CURVE SMOOTH",
"256 552 OFFCURVE",
"229 548 OFFCURVE",
"207 539 CURVE SMOOTH",
"36 469 OFFCURVE",
"16 209 OFFCURVE",
"16 -23 CURVE SMOOTH",
"16 -48 OFFCURVE",
"41 -60 OFFCURVE"
);
}
);
width = 438;
}
);
unicode = 00DF;
},
{
glyphname = t;
lastChange = "2016-07-25 08:03:28 +0000";
layers = (
{
anchors = (
{
name = caron.alt;
position = "{359, 551}";
}
);
layerId = "1677BB6F-42BC-4502-A615-23038A63E498";
paths = (
{
closed = 1;
nodes = (
"146 2 CURVE SMOOTH",
"199 8 OFFCURVE",
"247 26 OFFCURVE",
"304 88 CURVE SMOOTH",
"345 130 OFFCURVE",
"286 172 OFFCURVE",
"261 144 CURVE SMOOTH",
"227 109 OFFCURVE",
"191 85 OFFCURVE",
"163 79 CURVE SMOOTH",
"120 71 OFFCURVE",
"127 188 OFFCURVE",
"135 255 CURVE",
"228 306 OFFCURVE",
"348 420 OFFCURVE",
"357 551 CURVE SMOOTH",
"361 590 OFFCURVE",
"340 630 OFFCURVE",
"283 631 CURVE SMOOTH",
"151 632 OFFCURVE",
"62 375 OFFCURVE",
"48 224 CURVE SMOOTH",
"36 116 OFFCURVE",
"57 -5 OFFCURVE"
);
},
{
closed = 1;
nodes = (
"54 163 CURVE SMOOTH",
"91 190 OFFCURVE",
"238 256 OFFCURVE",
"297 269 CURVE SMOOTH",
"335 276 OFFCURVE",
"316 335 OFFCURVE",
"275 324 CURVE SMOOTH",
"225 311 OFFCURVE",
"107 271 OFFCURVE",
"22 219 CURVE SMOOTH",
"-8 204 OFFCURVE",
"15 137 OFFCURVE"
);
},
{
closed = 1;
nodes = (
"147 320 CURVE",
"163 421 OFFCURVE",
"215 527 OFFCURVE",
"268 527 CURVE SMOOTH",
"271 526 OFFCURVE",
"276 532 OFFCURVE",
"276 527 CURVE",
"273 446 OFFCURVE",
"220 390 OFFCURVE"
);
}
);
width = 268;
}
);
unicode = 0074;
userData = {
com.typemytype.robofont.layerData = {
};
};
},
{
glyphname = u;
lastChange = "2016-07-25 08:03:28 +0000";
layers = (
{
anchors = (
{
name = ogonek;
position = "{334, 0}";
}
);
layerId = "1677BB6F-42BC-4502-A615-23038A63E498";
paths = (
{
closed = 1;
nodes = (
"134 -3 CURVE SMOOTH",
"200 -9 OFFCURVE",
"246 38 OFFCURVE",
"269 89 CURVE",
"264 72 OFFCURVE",
"261 -7 OFFCURVE",
"334 -4 CURVE SMOOTH",
"419 -1 OFFCURVE",
"470 66 OFFCURVE",
"487 103 CURVE",
"485 117 OFFCURVE",
"461 139 OFFCURVE",
"444 139 CURVE SMOOTH",
"439 139 OFFCURVE",
"434 135 OFFCURVE",
"428 128 CURVE SMOOTH",
"421 120 OFFCURVE",
"383 77 OFFCURVE",
"355 80 CURVE SMOOTH",
"346 81 OFFCURVE",
"337 87 OFFCURVE",
"343 114 CURVE SMOOTH",
"354 166 OFFCURVE",
"379 255 OFFCURVE",
"392 292 CURVE SMOOTH",
"400 316 OFFCURVE",
"389 331 OFFCURVE",
"355 332 CURVE SMOOTH",
"330 333 OFFCURVE",
"313 327 OFFCURVE",
"299 283 CURVE SMOOTH",
"264 172 LINE SMOOTH",
"241 99 OFFCURVE",
"178 58 OFFCURVE",
"153 79 CURVE SMOOTH",
"143 87 OFFCURVE",
"143 103 OFFCURVE",
"143 119 CURVE SMOOTH",
"144 177 OFFCURVE",
"180 266 OFFCURVE",
"196 299 CURVE SMOOTH",
"205 317 OFFCURVE",
"177 331 OFFCURVE",
"154 331 CURVE SMOOTH",
"137 331 OFFCURVE",
"122 325 OFFCURVE",
"112 311 CURVE SMOOTH",
"101 296 OFFCURVE",
"61 237 OFFCURVE",
"51 128 CURVE SMOOTH",
"44 67 OFFCURVE",
"65 3 OFFCURVE"
);
}
);
width = 394.896;
}
);
unicode = 0075;
userData = {
com.typemytype.robofont.layerData = {
};
};
},
{
glyphname = v;
lastChange = "2016-07-25 08:03:28 +0000";
layers = (
{
layerId = "1677BB6F-42BC-4502-A615-23038A63E498";
paths = (
{
closed = 1;
nodes = (
"160 -4 CURVE SMOOTH",
"241 35 OFFCURVE",
"314 145 OFFCURVE",
"350 289 CURVE SMOOTH",
"370 367 OFFCURVE",
"226 358 OFFCURVE",
"235 181 CURVE",
"195 94 OFFCURVE",
"154 76 OFFCURVE",
"156 76 CURVE",
"164 76 OFFCURVE",
"121 144 OFFCURVE",
"153 292 CURVE SMOOTH",
"161 332 OFFCURVE",
"83 357 OFFCURVE",
"65 305 CURVE SMOOTH",
"1 92 OFFCURVE",
"86 -41 OFFCURVE"
);
},
{
closed = 1;
nodes = (
"510 249 CURVE SMOOTH",
"527 281 OFFCURVE",
"485 329 OFFCURVE",
"459 295 CURVE SMOOTH",
"415 236 OFFCURVE",
"323 199 OFFCURVE",
"252 211 CURVE",
"245 148 LINE",
"320 115 OFFCURVE",
"473 185 OFFCURVE"
);
}
);
width = 348;
}
);
unicode = 0076;
},
{
glyphname = w;
lastChange = "2016-07-25 08:03:28 +0000";
layers = (
{
layerId = "1677BB6F-42BC-4502-A615-23038A63E498";
paths = (
{
closed = 1;
nodes = (
"374 -10 CURVE SMOOTH",
"432 -7 OFFCURVE",
"513 51 OFFCURVE",
"558 144 CURVE SMOOTH",
"624 273 OFFCURVE",
"584 384 OFFCURVE",
"503 386 CURVE",
"319 382 OFFCURVE",
"412 73 OFFCURVE",
"710 162 CURVE SMOOTH",
"747 175 OFFCURVE",
"724 238 OFFCURVE",
"681 214 CURVE",
"458 178 OFFCURVE",
"465 318 OFFCURVE",
"500 318 CURVE SMOOTH",
"534 318 OFFCURVE",
"535 255 OFFCURVE",
"482 174 CURVE",
"455 105 OFFCURVE",
"405 59 OFFCURVE",
"364 66 CURVE SMOOTH",
"317 71 OFFCURVE",
"310 142 OFFCURVE",
"353 228 CURVE SMOOTH",
"393 319 OFFCURVE",
"387 319 OFFCURVE",
"341 315 CURVE SMOOTH",
"303 316 OFFCURVE",
"275 168 OFFCURVE",
"270 112 CURVE SMOOTH",
"267 86 OFFCURVE",
"279 -18 OFFCURVE"
);
},
{
closed = 1;
nodes = (
"186 -7 CURVE SMOOTH",
"274 -2 OFFCURVE",
"304 99 OFFCURVE",
"352 204 CURVE",
"320 298 LINE",
"272 197 LINE",
"213 50 OFFCURVE",
"191 64 OFFCURVE",
"177 70 CURVE SMOOTH",
"145 74 OFFCURVE",
"139 125 OFFCURVE",
"147 161 CURVE SMOOTH",
"158 212 OFFCURVE",
"224 285 OFFCURVE",
"228 291 CURVE SMOOTH",
"243 313 OFFCURVE",
"182 371 OFFCURVE",
"141 309 CURVE SMOOTH",
"128 288 OFFCURVE",
"57 203 OFFCURVE",
"54 126 CURVE SMOOTH",
"51 38 OFFCURVE",
"109 -12 OFFCURVE"
);
}
);
width = 583;
}
);
unicode = 0077;
userData = {
com.typemytype.robofont.layerData = {
};
};
},
{
glyphname = x;
lastChange = "2016-07-25 08:03:28 +0000";
layers = (
{
layerId = "1677BB6F-42BC-4502-A615-23038A63E498";
paths = (
{
closed = 1;
nodes = (
"379 263 CURVE SMOOTH",
"397 337 OFFCURVE",
"301 360 OFFCURVE",
"252 300 CURVE SMOOTH",
"141 154 LINE",
"104 107 OFFCURVE",
"77 83 OFFCURVE",
"54 66 CURVE SMOOTH",
"3 32 OFFCURVE",
"74 -54 OFFCURVE",
"114 5 CURVE SMOOTH",
"137 41 OFFCURVE",
"154 70 OFFCURVE",
"183 108 CURVE SMOOTH",
"281 243 LINE",
"310 281 OFFCURVE",
"366 215 OFFCURVE"
);
},
{
closed = 1;
nodes = (
"243 -6 CURVE SMOOTH",
"345 -35 OFFCURVE",
"385 70 OFFCURVE",
"406 106 CURVE SMOOTH",
"430 144 OFFCURVE",
"391 190 OFFCURVE",
"359 147 CURVE SMOOTH",
"341 123 OFFCURVE",
"312 66 OFFCURVE",
"274 66 CURVE SMOOTH",
"230 66 OFFCURVE",
"211 122 OFFCURVE",
"96 318 CURVE SMOOTH",
"83 343 OFFCURVE",
"17 314 OFFCURVE",
"39 272 CURVE SMOOTH",
"142 95 OFFCURVE",
"163 19 OFFCURVE"
);
}
);
width = 326;
}
);
unicode = 0078;
},
{
glyphname = y;
lastChange = "2016-07-25 08:03:28 +0000";
layers = (
{
layerId = "1677BB6F-42BC-4502-A615-23038A63E498";
paths = (
{
closed = 1;
nodes = (
"61 -314 CURVE SMOOTH",
"215 -314 OFFCURVE",
"256 -167 OFFCURVE",
"279 -47 CURVE",
"344 -11 OFFCURVE",
"445 44 OFFCURVE",
"498 82 CURVE SMOOTH",
"556 120 OFFCURVE",
"509 177 OFFCURVE",
"476 154 CURVE SMOOTH",
"445 132 OFFCURVE",
"328 59 OFFCURVE",
"293 36 CURVE",
"303 97 OFFCURVE",
"305 108 OFFCURVE",
"312 138 CURVE SMOOTH",
"312 154 OFFCURVE",
"336 230 OFFCURVE",
"336 277 CURVE SMOOTH",
"336 294 OFFCURVE",
"314 302 OFFCURVE",
"298 302 CURVE SMOOTH",
"273 302 OFFCURVE",
"261 283 OFFCURVE",
"253 254 CURVE SMOOTH",
"226 162 LINE",
"210 111 OFFCURVE",
"191 76 OFFCURVE",
"159 69 CURVE SMOOTH",
"127 65 OFFCURVE",
"119 88 OFFCURVE",
"119 110 CURVE SMOOTH",
"119 153 OFFCURVE",
"130 190 OFFCURVE",
"137 218 CURVE SMOOTH",
"145 237 OFFCURVE",
"161 253 OFFCURVE",
"161 275 CURVE SMOOTH",
"161 297 OFFCURVE",
"140 306 OFFCURVE",
"124 306 CURVE SMOOTH",
"106 306 OFFCURVE",
"78 290 OFFCURVE",
"68 271 CURVE SMOOTH",
"40 218 OFFCURVE",
"23 174 OFFCURVE",
"23 94 CURVE SMOOTH",
"23 37 OFFCURVE",
"67 0 OFFCURVE",
"118 0 CURVE SMOOTH",
"138 0 OFFCURVE",
"196 22 OFFCURVE",
"228 77 CURVE",
"195 -11 LINE",
"143 -49 OFFCURVE",
"82 -80 OFFCURVE",
"40 -128 CURVE SMOOTH",
"13 -160 OFFCURVE",
"-24 -192 OFFCURVE",
"-28 -240 CURVE SMOOTH",
"-31 -299 OFFCURVE",
"4 -314 OFFCURVE"
);
},
{
closed = 1;
nodes = (
"66 -244 CURVE SMOOTH",
"61 -244 OFFCURVE",
"61 -237 OFFCURVE",
"61 -236 CURVE SMOOTH",
"61 -207 OFFCURVE",
"151 -106 OFFCURVE",
"178 -92 CURVE",
"165 -157 OFFCURVE",
"118 -253 OFFCURVE"
);
}
);
width = 346;
}
);
unicode = 0079;
userData = {
com.typemytype.robofont.layerData = {
};
};
},
{
glyphname = z;
lastChange = "2016-07-25 08:03:28 +0000";
layers = (
{
layerId = "1677BB6F-42BC-4502-A615-23038A63E498";
paths = (
{
closed = 1;
nodes = (
"296 64 CURVE SMOOTH",
"320 83 OFFCURVE",
"306 136 OFFCURVE",
"287 124 CURVE SMOOTH",
"126 30 OFFCURVE",
"80 70 OFFCURVE",
"79 91 CURVE",
"94 100 OFFCURVE",
"226 213 OFFCURVE",
"240 224 CURVE SMOOTH",
"258 242 OFFCURVE",
"257 273 OFFCURVE",
"257 287 CURVE SMOOTH",
"257 299 OFFCURVE",
"243 319 OFFCURVE",
"216 319 CURVE SMOOTH",
"199 319 OFFCURVE",
"117 318 OFFCURVE",
"58 318 CURVE SMOOTH",
"6 318 OFFCURVE",
"31 245 OFFCURVE",
"47 245 CURVE SMOOTH",
"71 245 OFFCURVE",
"147 249 OFFCURVE",
"188 255 CURVE",
"39 145 LINE",
"25 135 OFFCURVE",
"6 114 OFFCURVE",
"0 89 CURVE SMOOTH",
"-22 -13 OFFCURVE",
"149 -47 OFFCURVE"
);
}
);
width = 224;
}
);
unicode = 007A;
userData = {
com.typemytype.robofont.layerData = {
};
};
},
{
glyphname = f_f;
lastChange = "2016-07-25 08:03:28 +0000";
layers = (
{
layerId = "1677BB6F-42BC-4502-A615-23038A63E498";
paths = (
{
closed = 1;
nodes = (
"99 -214 CURVE SMOOTH",
"193 -209 OFFCURVE",
"230 -100 OFFCURVE",
"229 -41 CURVE SMOOTH",
"227 20 OFFCURVE",
"209 79 OFFCURVE",
"196 131 CURVE",
"222 138 OFFCURVE",
"242 142 OFFCURVE",
"267 148 CURVE",
"264 106 OFFCURVE",
"265 61 OFFCURVE",
"265 18 CURVE SMOOTH",
"265 -66 OFFCURVE",
"278 -160 OFFCURVE",
"354 -160 CURVE SMOOTH",
"441 -160 OFFCURVE",
"457 -79 OFFCURVE",
"457 -27 CURVE SMOOTH",
"457 39 OFFCURVE",
"435 93 OFFCURVE",
"416 137 CURVE",
"492 144 OFFCURVE",
"595 153 OFFCURVE",
"595 247 CURVE SMOOTH",
"595 268 OFFCURVE",
"588 277 OFFCURVE",
"577 277 CURVE SMOOTH",
"577 280 OFFCURVE",
"576 283 OFFCURVE",
"577 282 CURVE SMOOTH",
"515 233 OFFCURVE",
"455 182 OFFCURVE",
"394 208 CURVE",
"465 288 OFFCURVE",
"580 393 OFFCURVE",
"580 504 CURVE SMOOTH",
"580 554 OFFCURVE",
"552 589 OFFCURVE",
"505 589 CURVE SMOOTH",
"371 589 OFFCURVE",
"303 390 OFFCURVE",
"273 219 CURVE",
"251 210 OFFCURVE",
"201 191 OFFCURVE",
"166 205 CURVE",
"234 286 OFFCURVE",
"347 427 OFFCURVE",
"347 555 CURVE SMOOTH",
"347 607 OFFCURVE",
"321 640 OFFCURVE",
"274 640 CURVE SMOOTH",
"79 640 OFFCURVE",
"12 179 OFFCURVE",
"12 -13 CURVE SMOOTH",
"12 -96 OFFCURVE",
"21 -217 OFFCURVE"
);
},
{
closed = 1;
nodes = (
"111 -118 CURVE SMOOTH",
"105 -118 OFFCURVE",
"101 -58 OFFCURVE",
"101 -12 CURVE SMOOTH",
"101 47 OFFCURVE",
"107 105 OFFCURVE",
"109 162 CURVE",
"131 115 OFFCURVE",
"146 56 OFFCURVE",
"146 -16 CURVE SMOOTH",
"146 -16 LINE",
"146 -54 OFFCURVE",
"145 -118 OFFCURVE"
);
},
{
closed = 1;
nodes = (
"354 -65 CURVE SMOOTH",
"342 -65 OFFCURVE",
"337 32 OFFCURVE",
"337 105 CURVE SMOOTH",
"337 158 OFFCURVE",
"338 128 OFFCURVE",
"336 163 CURVE",
"341 160 LINE",
"365 106 OFFCURVE",
"378 27 OFFCURVE",
"378 -15 CURVE SMOOTH",
"378 -46 OFFCURVE",
"371 -65 OFFCURVE"
);
},
{
closed = 1;
nodes = (
"133 226 CURVE",
"137 224 OFFCURVE",
"128 232 OFFCURVE",
"130 227 CURVE",
"144 264 OFFCURVE",
"195 550 OFFCURVE",
"267 550 CURVE SMOOTH",
"276 550 OFFCURVE",
"279 538 OFFCURVE",
"279 520 CURVE SMOOTH",
"279 446 OFFCURVE",
"190 298 OFFCURVE"
);
},
{
closed = 1;
nodes = (
"353 247 CURVE",
"359 249 OFFCURVE",
"418 499 OFFCURVE",
"489 499 CURVE SMOOTH",
"500 499 OFFCURVE",
"504 494 OFFCURVE",
"504 483 CURVE SMOOTH",
"504 429 OFFCURVE",
"408 290 OFFCURVE"
);
}
);
width = 511;
}
);
},
{
glyphname = fi;
lastChange = "2016-07-25 08:03:28 +0000";
layers = (
{
layerId = "1677BB6F-42BC-4502-A615-23038A63E498";
paths = (
{
closed = 1;
nodes = (
"113 -208 CURVE SMOOTH",
"199 -208 OFFCURVE",
"230 -121 OFFCURVE",
"236 -21 CURVE SMOOTH",
"239 33 OFFCURVE",
"221 84 OFFCURVE",
"201 126 CURVE",
"228 131 OFFCURVE",
"253 137 OFFCURVE",
"279 139 CURVE",
"257 81 OFFCURVE",
"296 -14 OFFCURVE",
"374 -11 CURVE SMOOTH",
"439 -8 OFFCURVE",
"492 32 OFFCURVE",
"526 62 CURVE",
"587 110 OFFCURVE",
"535 172 OFFCURVE",
"500 141 CURVE",
"447 85 OFFCURVE",
"430 71 OFFCURVE",
"387 70 CURVE SMOOTH",
"379 69 OFFCURVE",
"370 84 OFFCURVE",
"370 99 CURVE SMOOTH",
"370 174 OFFCURVE",
"405 250 OFFCURVE",
"431 301 CURVE SMOOTH",
"438 317 OFFCURVE",
"413 340 OFFCURVE",
"397 336 CURVE SMOOTH",
"370 334 OFFCURVE",
"339 325 OFFCURVE",
"330 301 CURVE SMOOTH",
"322 276 OFFCURVE",
"315 263 OFFCURVE",
"306 241 CURVE",
"275 221 OFFCURVE",
"214 207 OFFCURVE",
"165 210 CURVE",
"245 314 OFFCURVE",
"315 380 OFFCURVE",
"319 557 CURVE SMOOTH",
"321 610 OFFCURVE",
"296 641 OFFCURVE",
"245 641 CURVE SMOOTH",
"86 641 OFFCURVE",
"15 238 OFFCURVE",
"15 -7 CURVE SMOOTH",
"15 -90 OFFCURVE",
"26 -208 OFFCURVE"
);
},
{
closed = 1;
nodes = (
"120 -126 CURVE SMOOTH",
"110 -126 OFFCURVE",
"100 -63 OFFCURVE",
"100 -10 CURVE SMOOTH",
"100 -50 OFFCURVE",
"94 143 OFFCURVE",
"122 143 CURVE SMOOTH",
"130 170 OFFCURVE",
"154 49 OFFCURVE",
"149 -13 CURVE SMOOTH",
"145 -41 OFFCURVE",
"151 -126 OFFCURVE"
);
},
{
closed = 1;
nodes = (
"425 383 CURVE SMOOTH",
"469 383 OFFCURVE",
"500 409 OFFCURVE",
"500 456 CURVE SMOOTH",
"500 499 OFFCURVE",
"471 514 OFFCURVE",
"433 514 CURVE SMOOTH",
"390 514 OFFCURVE",
"354 488 OFFCURVE",
"354 446 CURVE SMOOTH",
"354 404 OFFCURVE",
"383 383 OFFCURVE"
);
},
{
closed = 1;
nodes = (
"139 301 CURVE",
"163 448 OFFCURVE",
"204 551 OFFCURVE",
"236 551 CURVE SMOOTH",
"246 551 OFFCURVE",
"246 537 OFFCURVE",
"247 522 CURVE SMOOTH",
"251 496 OFFCURVE",
"171 382 OFFCURVE"
);
}
);
width = 441;
}
);
unicode = FB01;
},
{
glyphname = ordfeminine;
lastChange = "2016-07-25 08:03:28 +0000";
layers = (
{
layerId = "1677BB6F-42BC-4502-A615-23038A63E498";
paths = (
{
closed = 1;
nodes = (
"243 268 CURVE SMOOTH",
"292 268 OFFCURVE",
"320 301 OFFCURVE",
"357 338 CURVE",
"337 432 LINE",
"306 369 OFFCURVE",
"293 346 OFFCURVE",
"252 346 CURVE SMOOTH",
"245 346 OFFCURVE",
"245 356 OFFCURVE",
"245 371 CURVE SMOOTH",
"245 419 OFFCURVE",
"263 459 OFFCURVE",
"263 508 CURVE SMOOTH",
"263 540 OFFCURVE",
"251 541 OFFCURVE",
"215 541 CURVE SMOOTH",
"200 541 OFFCURVE",
"195 563 OFFCURVE",
"173 563 CURVE SMOOTH",
"158 563 OFFCURVE",
"149 559 OFFCURVE",
"143 556 CURVE SMOOTH",
"74 525 OFFCURVE",
"17 449 OFFCURVE",
"17 358 CURVE SMOOTH",
"17 309 OFFCURVE",
"46 269 OFFCURVE",
"96 269 CURVE SMOOTH",
"134 269 OFFCURVE",
"163 290 OFFCURVE",
"186 312 CURVE",
"197 289 OFFCURVE",
"211 268 OFFCURVE"
);
},
{
closed = 1;
nodes = (
"121 336 CURVE SMOOTH",
"106 336 OFFCURVE",
"103 352 OFFCURVE",
"103 371 CURVE SMOOTH",
"103 420 OFFCURVE",
"136 490 OFFCURVE",
"182 496 CURVE",
"166 416 LINE",
"161 387 OFFCURVE",
"149 336 OFFCURVE"
);
}
);
width = 317;
}
);
unicode = 00AA;
},
{
glyphname = ordmasculine;
lastChange = "2016-07-25 08:03:28 +0000";
layers = (
{
layerId = "1677BB6F-42BC-4502-A615-23038A63E498";
paths = (
{
closed = 1;
nodes = (
"131 338 CURVE SMOOTH",
"104 338 OFFCURVE",
"94 360 OFFCURVE",
"94 391 CURVE SMOOTH",
"94 430 OFFCURVE",
"113 495 OFFCURVE",
"148 495 CURVE SMOOTH",
"171 495 OFFCURVE",
"177 465 OFFCURVE",
"177 437 CURVE SMOOTH",
"177 401 OFFCURVE",
"161 338 OFFCURVE"
);
},
{
closed = 1;
nodes = (
"121 268 CURVE SMOOTH",
"209 268 OFFCURVE",
"253 359 OFFCURVE",
"253 445 CURVE SMOOTH",
"253 506 OFFCURVE",
"229 565 OFFCURVE",
"165 565 CURVE SMOOTH",
"78 565 OFFCURVE",
"18 490 OFFCURVE",
"18 403 CURVE SMOOTH",
"18 333 OFFCURVE",
"48 268 OFFCURVE"
);
}
);
width = 273;
}
);
unicode = 00BA;
},
{
glyphname = Delta;
lastChange = "2016-07-25 08:03:28 +0000";
layers = (
{
layerId = "1677BB6F-42BC-4502-A615-23038A63E498";
paths = (
{
closed = 1;
nodes = (
"151 1 CURVE SMOOTH",
"625 1 LINE",
"664 1 OFFCURVE",
"680 24 OFFCURVE",
"680 58 CURVE",
"491 507 LINE",
"474 544 OFFCURVE",
"422 562 OFFCURVE",
"394 515 CURVE SMOOTH",
"321 398 OFFCURVE",
"251 281 OFFCURVE",
"196 191 CURVE SMOOTH",
"148 116 OFFCURVE",
"114 66 OFFCURVE",
"108 51 CURVE",
"106 23 OFFCURVE",
"123 1 OFFCURVE"
);
},
{
closed = 1;
nodes = (
"233 93 LINE",
"285 177 OFFCURVE",
"366 313 OFFCURVE",
"425 412 CURVE",
"559 93 LINE"
);
}
);
width = 721;
}
);
unicode = 0394;
},
{
glyphname = Omega;
lastChange = "2016-07-25 08:03:28 +0000";
layers = (
{
layerId = "1677BB6F-42BC-4502-A615-23038A63E498";
paths = (
{
closed = 1;
nodes = (
"701 47 CURVE",
"955 220 OFFCURVE",
"915 697 OFFCURVE",
"536 697 CURVE SMOOTH",
"168 697 OFFCURVE",
"52 241 OFFCURVE",
"258 58 CURVE",
"224 58 OFFCURVE",
"200 59 OFFCURVE",
"177 58 CURVE SMOOTH",
"155 58 OFFCURVE",
"148 34 OFFCURVE",
"151 19 CURVE SMOOTH",
"153 8 OFFCURVE",
"172 -16 OFFCURVE",
"194 -17 CURVE SMOOTH",
"258 -19 OFFCURVE",
"312 -15 OFFCURVE",
"458 -13 CURVE",
"452 50 LINE",
"115 83 OFFCURVE",
"205 617 OFFCURVE",
"534 617 CURVE SMOOTH",
"861 617 OFFCURVE",
"863 84 OFFCURVE",
"521 50 CURVE",
"508 -12 LINE",
"622 -27 OFFCURVE",
"712 -32 OFFCURVE",
"778 -24 CURVE SMOOTH",
"798 -21 OFFCURVE",
"820 -1 OFFCURVE",
"823 11 CURVE SMOOTH",
"827 29 OFFCURVE",
"824 53 OFFCURVE",
"797 51 CURVE SMOOTH",
"771 48 OFFCURVE",
"741 47 OFFCURVE"
);
}
);
width = 904;
}
);
unicode = 03A9;
},
{
glyphname = mu;
lastChange = "2016-07-25 08:03:28 +0000";
layers = (
{
layerId = "1677BB6F-42BC-4502-A615-23038A63E498";
paths = (
{
closed = 1;
nodes = (
"-59 -103 LINE",
"-73 -165 OFFCURVE",
"1 -188 OFFCURVE",
"25 -100 CURVE SMOOTH",
"54 5 LINE",
"64 1 OFFCURVE",
"75 -1 OFFCURVE",
"86 -3 CURVE SMOOTH",
"163 -13 OFFCURVE",
"212 72 OFFCURVE",
"216 98 CURVE",
"216 101 OFFCURVE",
"212 55 OFFCURVE",
"211 59 CURVE",
"211 7 OFFCURVE",
"233 -7 OFFCURVE",
"281 -4 CURVE SMOOTH",
"327 0 OFFCURVE",
"423 54 OFFCURVE",
"447 101 CURVE",
"445 115 OFFCURVE",
"413 139 OFFCURVE",
"396 139 CURVE SMOOTH",
"389 139 OFFCURVE",
"392 136 OFFCURVE",
"383 132 CURVE SMOOTH",
"375 126 OFFCURVE",
"333 82 OFFCURVE",
"305 80 CURVE SMOOTH",
"301 80 OFFCURVE",
"297 81 OFFCURVE",
"299 99 CURVE SMOOTH",
"309 182 OFFCURVE",
"330 265 OFFCURVE",
"340 292 CURVE SMOOTH",
"344 314 OFFCURVE",
"318 334 OFFCURVE",
"297 332 CURVE SMOOTH",
"270 331 OFFCURVE",
"261 327 OFFCURVE",
"244 276 CURVE SMOOTH",
"221 191 LINE",
"196 108 OFFCURVE",
"135 62 OFFCURVE",
"105 79 CURVE SMOOTH",
"100 85 OFFCURVE",
"93 102 OFFCURVE",
"95 125 CURVE SMOOTH",
"102 222 OFFCURVE",
"161 315 OFFCURVE",
"147 299 CURVE SMOOTH",
"148 317 OFFCURVE",
"129 331 OFFCURVE",
"106 331 CURVE SMOOTH",
"89 331 OFFCURVE",
"76 325 OFFCURVE",
"66 311 CURVE SMOOTH",
"64 314 OFFCURVE",
"40 265 OFFCURVE",
"23 194 CURVE SMOOTH"
);
}
);
width = 347;
}
);
unicode = 03BC;
},
{
glyphname = pi;
lastChange = "2016-07-25 08:03:28 +0000";
layers = (
{
layerId = "1677BB6F-42BC-4502-A615-23038A63E498";
paths = (
{
closed = 1;
nodes = (
"314 423 CURVE SMOOTH",
"202 423 OFFCURVE",
"109 378 OFFCURVE",
"118 248 CURVE SMOOTH",
"118 210 OFFCURVE",
"179 197 OFFCURVE",
"188 234 CURVE SMOOTH",
"199 310 OFFCURVE",
"215 335 OFFCURVE",
"266 340 CURVE",
"213 184 OFFCURVE",
"169 61 OFFCURVE",
"170 26 CURVE SMOOTH",
"172 4 OFFCURVE",
"181 -22 OFFCURVE",
"214 -22 CURVE SMOOTH",
"246 -22 OFFCURVE",
"300 83 OFFCURVE",
"263 32 CURVE",
"279 113 OFFCURVE",
"318 209 OFFCURVE",
"345 338 CURVE",
"377 336 OFFCURVE",
"390 333 OFFCURVE",
"431 329 CURVE",
"365 -68 OFFCURVE",
"412 -41 OFFCURVE",
"476 -20 CURVE SMOOTH",
"539 -3 OFFCURVE",
"469 17 OFFCURVE",
"510 324 CURVE",
"529 322 OFFCURVE",
"549 323 OFFCURVE",
"569 323 CURVE SMOOTH",
"652 323 OFFCURVE",
"658 401 OFFCURVE",
"658 362 CURVE",
"660 387 OFFCURVE",
"640 409 OFFCURVE",
"616 407 CURVE",
"482 407 OFFCURVE",
"419 423 OFFCURVE"
);
}
);
width = 605;
}
);
unicode = 03C0;
},
{
glyphname = zero;
lastChange = "2016-07-25 08:03:28 +0000";
layers = (
{
layerId = "1677BB6F-42BC-4502-A615-23038A63E498";
paths = (
{
closed = 1;
nodes = (
"304 261 CURVE SMOOTH",
"293 116 OFFCURVE",
"248 75 OFFCURVE",
"199 81 CURVE SMOOTH",
"161 86 OFFCURVE",
"145 136 OFFCURVE",
"150 210 CURVE SMOOTH",
"160 349 OFFCURVE",
"208 409 OFFCURVE",
"256 403 CURVE SMOOTH",
"304 397 OFFCURVE",
"310 336 OFFCURVE"
);
},
{
closed = 1;
nodes = (
"187 -7 CURVE SMOOTH",
"293 -13 OFFCURVE",
"392 57 OFFCURVE",
"408 273 CURVE SMOOTH",
"417 388 OFFCURVE",
"374 490 OFFCURVE",
"263 495 CURVE SMOOTH",
"129 501 OFFCURVE",
"48 375 OFFCURVE",
"42 190 CURVE SMOOTH",
"39 85 OFFCURVE",
"87 -1 OFFCURVE"
);
}
);
width = 417;
}
);
unicode = 0030;
},
{
glyphname = one;
lastChange = "2016-07-25 08:03:28 +0000";
layers = (
{
layerId = "1677BB6F-42BC-4502-A615-23038A63E498";
paths = (
{
closed = 1;
nodes = (
"235 12 CURVE SMOOTH",
"271 170 OFFCURVE",
"316 417 OFFCURVE",
"322 448 CURVE SMOOTH",
"327 475 OFFCURVE",
"323 496 OFFCURVE",
"303 492 CURVE SMOOTH",
"268 485 OFFCURVE",
"157 465 OFFCURVE",
"129 456 CURVE SMOOTH",
"105 449 OFFCURVE",
"109 365 OFFCURVE",
"134 372 CURVE SMOOTH",
"147 375 OFFCURVE",
"202 391 OFFCURVE",
"218 397 CURVE",
"198 312 OFFCURVE",
"169 181 OFFCURVE",
"137 22 CURVE SMOOTH",
"128 -27 OFFCURVE",
"228 -26 OFFCURVE"
);
}
);
width = 333;
}
);
unicode = 0031;
},
{
glyphname = two;
lastChange = "2016-07-25 08:03:28 +0000";
layers = (
{
layerId = "1677BB6F-42BC-4502-A615-23038A63E498";
paths = (
{
closed = 1;
nodes = (
"170 -26 OFFCURVE",
"250 42 CURVE",
"274 24 OFFCURVE",
"305 0 OFFCURVE",
"344 0 CURVE SMOOTH",
"393 0 OFFCURVE",
"410 51 OFFCURVE",
"410 83 CURVE SMOOTH",
"410 103 OFFCURVE",
"411 112 OFFCURVE",
"397 113 CURVE SMOOTH",
"381 114 OFFCURVE",
"375 96 OFFCURVE",
"359 88 CURVE SMOOTH",
"349 83 OFFCURVE",
"331 85 OFFCURVE",
"309 102 CURVE",
"450 261 OFFCURVE",
"435 513 OFFCURVE",
"224 501 CURVE SMOOTH",
"125 495 OFFCURVE",
"59 444 OFFCURVE",
"59 339 CURVE SMOOTH",
"59 293 OFFCURVE",
"69 254 OFFCURVE",
"117 260 CURVE SMOOTH",
"205 271 OFFCURVE",
"99 409 OFFCURVE",
"228 425 CURVE SMOOTH",
"336 438 OFFCURVE",
"331 233 OFFCURVE",
"242 151 CURVE",
"209 174 OFFCURVE",
"177 186 OFFCURVE",
"133 186 CURVE SMOOTH",
"81 186 OFFCURVE",
"46 154 OFFCURVE",
"46 100 CURVE SMOOTH",
"46 -9 OFFCURVE"
);
},
{
closed = 1;
nodes = (
"114 65 OFFCURVE",
"114 96 CURVE SMOOTH",
"114 116 OFFCURVE",
"137 136 OFFCURVE",
"207 102 CURVE",
"158 60 OFFCURVE"
);
}
);
width = 417;
}
);
unicode = 0032;
},
{
glyphname = three;
lastChange = "2016-07-25 08:03:28 +0000";
layers = (
{
layerId = "1677BB6F-42BC-4502-A615-23038A63E498";
paths = (
{
closed = 1;
nodes = (
"396 145 CURVE SMOOTH",
"396 200 OFFCURVE",
"359 254 OFFCURVE",
"290 269 CURVE",
"363 280 OFFCURVE",
"384 345 OFFCURVE",
"386 382 CURVE SMOOTH",
"387 452 OFFCURVE",
"340 480 OFFCURVE",
"280 489 CURVE SMOOTH",
"218 499 OFFCURVE",
"142 469 OFFCURVE",
"105 427 CURVE SMOOTH",
"84 401 OFFCURVE",
"125 334 OFFCURVE",
"170 384 CURVE SMOOTH",
"212 422 OFFCURVE",
"280 422 OFFCURVE",
"280 360 CURVE SMOOTH",
"280 311 OFFCURVE",
"226 293 OFFCURVE",
"195 293 CURVE SMOOTH",
"158 293 OFFCURVE",
"143 282 OFFCURVE",
"143 258 CURVE SMOOTH",
"143 232 OFFCURVE",
"155 219 OFFCURVE",
"176 219 CURVE SMOOTH",
"239 219 OFFCURVE",
"296 187 OFFCURVE",
"301 146 CURVE SMOOTH",
"315 31 OFFCURVE",
"167 39 OFFCURVE",
"133 112 CURVE SMOOTH",
"114 152 OFFCURVE",
"38 116 OFFCURVE",
"66 61 CURVE SMOOTH",
"97 -1 OFFCURVE",
"167 -24 OFFCURVE",
"237 -23 CURVE SMOOTH",
"308 -22 OFFCURVE",
"396 15 OFFCURVE"
);
}
);
width = 417;
}
);
unicode = 0033;
},
{
glyphname = four;
lastChange = "2016-07-25 08:03:28 +0000";
layers = (
{
layerId = "1677BB6F-42BC-4502-A615-23038A63E498";
paths = (
{
closed = 1;
nodes = (
"254 -21 CURVE SMOOTH",
"280 -21 OFFCURVE",
"295 -18 OFFCURVE",
"307 32 CURVE SMOOTH",
"315 61 LINE",
"304 61 OFFCURVE",
"380 63 OFFCURVE",
"367 63 CURVE",
"413 64 OFFCURVE",
"420 143 OFFCURVE",
"380 142 CURVE SMOOTH",
"386 142 OFFCURVE",
"298 143 OFFCURVE",
"333 143 CURVE",
"341 180 OFFCURVE",
"363 265 OFFCURVE",
"369 289 CURVE SMOOTH",
"374 311 OFFCURVE",
"351 316 OFFCURVE",
"333 316 CURVE SMOOTH",
"305 316 OFFCURVE",
"290 302 OFFCURVE",
"282 277 CURVE SMOOTH",
"275 254 OFFCURVE",
"249 166 OFFCURVE",
"242 138 CURVE",
"257 149 OFFCURVE",
"161 143 OFFCURVE",
"167 143 CURVE",
"204 261 OFFCURVE",
"233 357 OFFCURVE",
"257 440 CURVE SMOOTH",
"270 484 OFFCURVE",
"185 492 OFFCURVE",
"174 455 CURVE SMOOTH",
"148 378 OFFCURVE",
"91 210 OFFCURVE",
"69 132 CURVE SMOOTH",
"53 77 OFFCURVE",
"68 61 OFFCURVE",
"100 61 CURVE SMOOTH",
"70 61 OFFCURVE",
"261 60 OFFCURVE",
"225 60 CURVE",
"218 30 LINE",
"213 1 OFFCURVE",
"212 -20 OFFCURVE"
);
}
);
width = 417;
}
);
unicode = 0034;
},
{
glyphname = five;
lastChange = "2016-07-25 08:03:28 +0000";
layers = (
{
layerId = "1677BB6F-42BC-4502-A615-23038A63E498";
paths = (
{
closed = 1;
nodes = (
"237 -8 CURVE SMOOTH",
"320 -9 OFFCURVE",
"415 36 OFFCURVE",
"410 154 CURVE SMOOTH",
"406 292 OFFCURVE",
"289 320 OFFCURVE",
"204 301 CURVE",
"232 377 LINE",
"351 380 OFFCURVE",
"422 339 OFFCURVE",
"433 431 CURVE SMOOTH",
"440 495 OFFCURVE",
"412 495 OFFCURVE",
"406 487 CURVE SMOOTH",
"364 428 OFFCURVE",
"311 485 OFFCURVE",
"224 485 CURVE SMOOTH",
"123 485 OFFCURVE",
"179 414 OFFCURVE",
"119 304 CURVE SMOOTH",
"97 260 OFFCURVE",
"110 225 OFFCURVE",
"147 232 CURVE SMOOTH",
"251 252 OFFCURVE",
"317 211 OFFCURVE",
"312 138 CURVE SMOOTH",
"310 93 OFFCURVE",
"263 73 OFFCURVE",
"226 73 CURVE SMOOTH",
"178 74 OFFCURVE",
"162 88 OFFCURVE",
"149 110 CURVE SMOOTH",
"141 115 OFFCURVE",
"138 125 OFFCURVE",
"138 138 CURVE SMOOTH",
"138 158 OFFCURVE",
"124 164 OFFCURVE",
"126 166 CURVE SMOOTH",
"108 166 OFFCURVE",
"74 155 OFFCURVE",
"72 111 CURVE SMOOTH",
"68 30 OFFCURVE",
"133 -8 OFFCURVE"
);
}
);
width = 430;
}
);
unicode = 0035;
},
{
glyphname = six;
lastChange = "2016-07-25 08:03:28 +0000";
layers = (
{
layerId = "1677BB6F-42BC-4502-A615-23038A63E498";
paths = (
{
closed = 1;
nodes = (
"201 -12 CURVE SMOOTH",
"315 -26 OFFCURVE",
"393 52 OFFCURVE",
"388 164 CURVE SMOOTH",
"382 304 OFFCURVE",
"228 365 OFFCURVE",
"159 282 CURVE",
"201 372 OFFCURVE",
"271 400 OFFCURVE",
"333 429 CURVE SMOOTH",
"350 436 OFFCURVE",
"360 453 OFFCURVE",
"360 472 CURVE SMOOTH",
"360 494 OFFCURVE",
"347 505 OFFCURVE",
"321 505 CURVE SMOOTH",
"308 505 OFFCURVE",
"299 501 OFFCURVE",
"289 496 CURVE SMOOTH",
"168 437 OFFCURVE",
"50 348 OFFCURVE",
"54 168 CURVE SMOOTH",
"56 47 OFFCURVE",
"121 0 OFFCURVE"
);
},
{
closed = 1;
nodes = (
"208 75 CURVE SMOOTH",
"166 85 OFFCURVE",
"146 127 OFFCURVE",
"146 150 CURVE SMOOTH",
"144 208 OFFCURVE",
"177 235 OFFCURVE",
"231 235 CURVE SMOOTH",
"316 235 OFFCURVE",
"320 48 OFFCURVE"
);
}
);
width = 387;
}
);
unicode = 0036;
},
{
glyphname = seven;
lastChange = "2016-07-25 08:03:28 +0000";
layers = (
{
layerId = "1677BB6F-42BC-4502-A615-23038A63E498";
paths = (
{
closed = 1;
nodes = (
"248 23 CURVE SMOOTH",
"274 112 OFFCURVE",
"337 240 OFFCURVE",
"413 362 CURVE",
"415 369 OFFCURVE",
"446 399 OFFCURVE",
"446 429 CURVE SMOOTH",
"446 448 OFFCURVE",
"439 467 OFFCURVE",
"416 467 CURVE SMOOTH",
"408 467 OFFCURVE",
"376 462 OFFCURVE",
"362 462 CURVE SMOOTH",
"268 462 OFFCURVE",
"206 462 OFFCURVE",
"141 462 CURVE SMOOTH",
"115 462 OFFCURVE",
"94 358 OFFCURVE",
"168 372 CURVE SMOOTH",
"198 378 OFFCURVE",
"246 385 OFFCURVE",
"283 388 CURVE SMOOTH",
"331 391 LINE",
"237 248 OFFCURVE",
"185 125 OFFCURVE",
"152 46 CURVE SMOOTH",
"134 -7 OFFCURVE",
"228 -43 OFFCURVE"
);
}
);
width = 417;
}
);
unicode = 0037;
},
{
glyphname = eight;
lastChange = "2016-07-25 08:03:28 +0000";
layers = (
{
layerId = "1677BB6F-42BC-4502-A615-23038A63E498";
paths = (
{
closed = 1;
nodes = (
"232 -18 CURVE SMOOTH",
"322 -18 OFFCURVE",
"385 29 OFFCURVE",
"385 111 CURVE SMOOTH",
"385 178 OFFCURVE",
"344 218 OFFCURVE",
"302 248 CURVE",
"364 276 OFFCURVE",
"409 321 OFFCURVE",
"409 408 CURVE SMOOTH",
"409 478 OFFCURVE",
"348 502 OFFCURVE",
"284 508 CURVE SMOOTH",
"188 518 OFFCURVE",
"115 457 OFFCURVE",
"115 367 CURVE SMOOTH",
"115 320 OFFCURVE",
"159 283 OFFCURVE",
"189 267 CURVE",
"131 235 OFFCURVE",
"86 187 OFFCURVE",
"86 102 CURVE SMOOTH",
"86 18 OFFCURVE",
"141 -18 OFFCURVE"
);
},
{
closed = 1;
nodes = (
"216 65 CURVE SMOOTH",
"181 69 OFFCURVE",
"174 94 OFFCURVE",
"174 110 CURVE SMOOTH",
"174 158 OFFCURVE",
"209 190 OFFCURVE",
"240 207 CURVE",
"256 190 OFFCURVE",
"282 147 OFFCURVE",
"282 126 CURVE SMOOTH",
"282 98 OFFCURVE",
"262 60 OFFCURVE"
);
},
{
closed = 1;
nodes = (
"256 308 CURVE",
"241 324 OFFCURVE",
"208 351 OFFCURVE",
"208 377 CURVE SMOOTH",
"208 415 OFFCURVE",
"234 428 OFFCURVE",
"273 428 CURVE SMOOTH",
"282 428 OFFCURVE",
"310 416 OFFCURVE",
"310 387 CURVE SMOOTH",
"310 355 OFFCURVE",
"274 321 OFFCURVE"
);
}
);
width = 417;
}
);
unicode = 0038;
},
{
glyphname = nine;
lastChange = "2016-07-25 08:03:28 +0000";
layers = (
{
layerId = "1677BB6F-42BC-4502-A615-23038A63E498";
paths = (
{
closed = 1;
nodes = (
"242 398 CURVE SMOOTH",
"121 414 OFFCURVE",
"37 332 OFFCURVE",
"37 214 CURVE SMOOTH",
"34 62 OFFCURVE",
"202 33 OFFCURVE",
"279 91 CURVE",
"229 -5 OFFCURVE",
"146 -38 OFFCURVE",
"78 -70 CURVE SMOOTH",
"10 -99 OFFCURVE",
"56 -166 OFFCURVE",
"121 -139 CURVE SMOOTH",
"259 -82 OFFCURVE",
"384 17 OFFCURVE",
"389 208 CURVE SMOOTH",
"392 336 OFFCURVE",
"328 388 OFFCURVE"
);
},
{
closed = 1;
nodes = (
"238 318 CURVE SMOOTH",
"284 312 OFFCURVE",
"293 263 OFFCURVE",
"292 226 CURVE SMOOTH",
"290 166 OFFCURVE",
"265 134 OFFCURVE",
"197 138 CURVE SMOOTH",
"107 143 OFFCURVE",
"105 336 OFFCURVE"
);
}
);
width = 417;
}
);
unicode = 0039;
},
{
glyphname = fraction;
lastChange = "2016-07-25 08:03:28 +0000";
layers = (
{
layerId = "1677BB6F-42BC-4502-A615-23038A63E498";
paths = (
{
closed = 1;
nodes = (
"93 -29 CURVE SMOOTH",
"349 575 LINE",
"368 619 OFFCURVE",
"300 661 OFFCURVE",
"274 601 CURVE SMOOTH",
"18 15 LINE",
"-4 -35 OFFCURVE",
"76 -74 OFFCURVE"
);
}
);
width = 265;
}
);
unicode = 2044;
},
{
glyphname = onehalf;
lastChange = "2016-07-25 08:03:28 +0000";
layers = (
{
layerId = "1677BB6F-42BC-4502-A615-23038A63E498";
paths = (
{
closed = 1;
nodes = (
"751 2 CURVE SMOOTH",
"791 2 OFFCURVE",
"823 20 OFFCURVE",
"849 42 CURVE",
"871 24 OFFCURVE",
"902 0 OFFCURVE",
"943 0 CURVE SMOOTH",
"991 0 OFFCURVE",
"1008 46 OFFCURVE",
"1008 83 CURVE SMOOTH",
"1008 96 OFFCURVE",
"1007 110 OFFCURVE",
"993 111 CURVE SMOOTH",
"977 116 OFFCURVE",
"975 95 OFFCURVE",
"957 95 CURVE SMOOTH",
"938 95 OFFCURVE",
"921 94 OFFCURVE",
"906 102 CURVE",
"964 165 OFFCURVE",
"996 238 OFFCURVE",
"1000 297 CURVE SMOOTH",
"1003 467 OFFCURVE",
"896 505 OFFCURVE",
"823 501 CURVE SMOOTH",
"723 495 OFFCURVE",
"657 444 OFFCURVE",
"657 339 CURVE SMOOTH",
"657 293 OFFCURVE",
"666 266 OFFCURVE",
"714 260 CURVE SMOOTH",
"768 254 OFFCURVE",
"761 282 OFFCURVE",
"749 342 CURVE SMOOTH",
"737 388 OFFCURVE",
"790 423 OFFCURVE",
"825 425 CURVE SMOOTH",
"883 427 OFFCURVE",
"910 375 OFFCURVE",
"904 276 CURVE SMOOTH",
"896 250 OFFCURVE",
"890 196 OFFCURVE",
"841 151 CURVE",
"808 174 OFFCURVE",
"776 186 OFFCURVE",
"731 186 CURVE SMOOTH",
"678 186 OFFCURVE",
"644 154 OFFCURVE",
"644 100 CURVE SMOOTH",
"644 41 OFFCURVE",
"694 2 OFFCURVE"
);
},
{
closed = 1;
nodes = (
"737 78 CURVE SMOOTH",
"723 78 OFFCURVE",
"711 85 OFFCURVE",
"711 96 CURVE SMOOTH",
"711 105 OFFCURVE",
"717 110 OFFCURVE",
"730 110 CURVE SMOOTH",
"744 110 OFFCURVE",
"777 111 OFFCURVE",
"791 102 CURVE",
"769 85 OFFCURVE",
"747 78 OFFCURVE"
);
},
{
closed = 1;
nodes = (
"406 -29 CURVE SMOOTH",
"660 575 LINE",
"680 619 OFFCURVE",
"611 661 OFFCURVE",
"585 601 CURVE SMOOTH",
"331 15 LINE",
"309 -35 OFFCURVE",
"387 -74 OFFCURVE"
);
},
{
closed = 1;
nodes = (
"235 217 CURVE SMOOTH",
"271 375 OFFCURVE",
"316 622 OFFCURVE",
"322 653 CURVE SMOOTH",
"327 680 OFFCURVE",
"323 701 OFFCURVE",
"303 697 CURVE SMOOTH",
"268 690 OFFCURVE",
"157 670 OFFCURVE",
"129 662 CURVE SMOOTH",
"105 654 OFFCURVE",
"109 570 OFFCURVE",
"134 577 CURVE SMOOTH",
"147 579 OFFCURVE",
"202 596 OFFCURVE",
"218 602 CURVE",
"198 517 OFFCURVE",
"169 386 OFFCURVE",
"137 228 CURVE SMOOTH",
"128 178 OFFCURVE",
"228 181 OFFCURVE"
);
}
);
width = 1017;
}
);
unicode = 00BD;
},
{
glyphname = onequarter;
lastChange = "2016-07-25 08:03:28 +0000";
layers = (
{
layerId = "1677BB6F-42BC-4502-A615-23038A63E498";
paths = (
{
closed = 1;
nodes = (
"851 -21 CURVE SMOOTH",
"879 -21 OFFCURVE",
"892 -18 OFFCURVE",
"905 32 CURVE SMOOTH",
"914 61 LINE",
"903 61 OFFCURVE",
"977 63 OFFCURVE",
"965 63 CURVE",
"1011 64 OFFCURVE",
"1020 143 OFFCURVE",
"978 142 CURVE SMOOTH",
"984 142 OFFCURVE",
"896 143 OFFCURVE",
"930 143 CURVE",
"938 180 OFFCURVE",
"961 265 OFFCURVE",
"967 289 CURVE SMOOTH",
"972 311 OFFCURVE",
"950 316 OFFCURVE",
"931 316 CURVE SMOOTH",
"904 316 OFFCURVE",
"889 302 OFFCURVE",
"880 277 CURVE SMOOTH",
"874 254 OFFCURVE",
"847 166 OFFCURVE",
"841 138 CURVE",
"856 149 OFFCURVE",
"761 143 OFFCURVE",
"766 143 CURVE",
"802 261 OFFCURVE",
"833 357 OFFCURVE",
"857 440 CURVE SMOOTH",
"869 484 OFFCURVE",
"784 492 OFFCURVE",
"772 455 CURVE SMOOTH",
"745 378 OFFCURVE",
"690 210 OFFCURVE",
"666 132 CURVE SMOOTH",
"652 77 OFFCURVE",
"667 61 OFFCURVE",
"699 61 CURVE SMOOTH",
"669 61 OFFCURVE",
"858 60 OFFCURVE",
"822 60 CURVE",
"816 30 LINE",
"810 1 OFFCURVE",
"811 -20 OFFCURVE"
);
},
{
closed = 1;
nodes = (
"437 -29 CURVE SMOOTH",
"693 575 LINE",
"711 619 OFFCURVE",
"644 661 OFFCURVE",
"617 601 CURVE SMOOTH",
"362 15 LINE",
"340 -35 OFFCURVE",
"419 -74 OFFCURVE"
);
},
{
closed = 1;
nodes = (
"235 217 CURVE SMOOTH",
"271 375 OFFCURVE",
"316 622 OFFCURVE",
"322 653 CURVE SMOOTH",
"327 680 OFFCURVE",
"323 701 OFFCURVE",
"303 697 CURVE SMOOTH",
"268 690 OFFCURVE",
"157 670 OFFCURVE",
"129 662 CURVE SMOOTH",
"105 654 OFFCURVE",
"109 570 OFFCURVE",
"134 577 CURVE SMOOTH",
"147 579 OFFCURVE",
"202 596 OFFCURVE",
"218 602 CURVE",
"198 517 OFFCURVE",
"169 386 OFFCURVE",
"137 228 CURVE SMOOTH",
"128 178 OFFCURVE",
"228 181 OFFCURVE"
);
}
);
width = 1017;
}
);
unicode = 00BC;
},
{
glyphname = threequarters;
lastChange = "2016-07-25 08:03:28 +0000";
layers = (
{
layerId = "1677BB6F-42BC-4502-A615-23038A63E498";
paths = (
{
closed = 1;
nodes = (
"834 -21 CURVE SMOOTH",
"862 -21 OFFCURVE",
"876 -18 OFFCURVE",
"887 32 CURVE SMOOTH",
"897 61 LINE",
"886 61 OFFCURVE",
"962 63 OFFCURVE",
"949 63 CURVE",
"993 64 OFFCURVE",
"1002 143 OFFCURVE",
"961 142 CURVE SMOOTH",
"967 142 OFFCURVE",
"878 143 OFFCURVE",
"913 143 CURVE",
"923 180 OFFCURVE",
"945 265 OFFCURVE",
"949 289 CURVE SMOOTH",
"955 311 OFFCURVE",
"933 316 OFFCURVE",
"915 316 CURVE SMOOTH",
"887 316 OFFCURVE",
"871 302 OFFCURVE",
"864 277 CURVE SMOOTH",
"857 254 OFFCURVE",
"830 170 OFFCURVE",
"825 143 CURVE",
"833 143 OFFCURVE",
"744 143 OFFCURVE",
"749 143 CURVE",
"785 261 OFFCURVE",
"815 357 OFFCURVE",
"839 440 CURVE SMOOTH",
"852 484 OFFCURVE",
"767 492 OFFCURVE",
"755 455 CURVE SMOOTH",
"730 378 OFFCURVE",
"672 210 OFFCURVE",
"651 132 CURVE SMOOTH",
"635 77 OFFCURVE",
"650 61 OFFCURVE",
"682 61 CURVE SMOOTH",
"652 61 OFFCURVE",
"841 60 OFFCURVE",
"805 60 CURVE",
"800 30 LINE",
"793 1 OFFCURVE",
"794 -20 OFFCURVE"
);
},
{
closed = 1;
nodes = (
"423 -29 CURVE SMOOTH",
"680 575 LINE",
"697 619 OFFCURVE",
"630 661 OFFCURVE",
"603 601 CURVE SMOOTH",
"348 15 LINE",
"326 -35 OFFCURVE",
"406 -74 OFFCURVE"
);
},
{
closed = 1;
nodes = (
"354 350 CURVE SMOOTH",
"354 405 OFFCURVE",
"317 459 OFFCURVE",
"250 474 CURVE",
"321 485 OFFCURVE",
"343 550 OFFCURVE",
"346 587 CURVE SMOOTH",
"347 657 OFFCURVE",
"298 685 OFFCURVE",
"238 694 CURVE SMOOTH",
"176 704 OFFCURVE",
"102 674 OFFCURVE",
"65 632 CURVE SMOOTH",
"43 606 OFFCURVE",
"83 541 OFFCURVE",
"129 589 CURVE SMOOTH",
"171 627 OFFCURVE",
"240 627 OFFCURVE",
"240 565 CURVE SMOOTH",
"240 516 OFFCURVE",
"185 498 OFFCURVE",
"153 498 CURVE SMOOTH",
"118 498 OFFCURVE",
"103 487 OFFCURVE",
"103 463 CURVE SMOOTH",
"103 437 OFFCURVE",
"114 424 OFFCURVE",
"134 424 CURVE SMOOTH",
"199 424 OFFCURVE",
"258 392 OFFCURVE",
"260 351 CURVE SMOOTH",
"263 211 OFFCURVE",
"127 271 OFFCURVE",
"94 319 CURVE SMOOTH",
"68 355 OFFCURVE",
"-13 308 OFFCURVE",
"22 256 CURVE SMOOTH",
"66 198 OFFCURVE",
"131 180 OFFCURVE",
"197 183 CURVE SMOOTH",
"265 187 OFFCURVE",
"354 220 OFFCURVE"
);
}
);
width = 1102;
}
);
unicode = 00BE;
},
{
glyphname = asterisk;
lastChange = "2016-07-25 08:03:28 +0000";
layers = (
{
layerId = "1677BB6F-42BC-4502-A615-23038A63E498";
paths = (
{
closed = 1;
nodes = (
"145 291 CURVE SMOOTH",
"167 291 OFFCURVE",
"192 304 OFFCURVE",
"192 327 CURVE SMOOTH",
"192 378 OFFCURVE",
"190 370 OFFCURVE",
"191 421 CURVE",
"227 383 OFFCURVE",
"221 391 OFFCURVE",
"260 354 CURVE SMOOTH",
"294 319 OFFCURVE",
"353 417 OFFCURVE",
"300 429 CURVE SMOOTH",
"256 437 OFFCURVE",
"238 448 OFFCURVE",
"226 451 CURVE",
"257 456 OFFCURVE",
"343 456 OFFCURVE",
"343 496 CURVE SMOOTH",
"343 524 OFFCURVE",
"302 549 OFFCURVE",
"283 539 CURVE SMOOTH",
"260 525 OFFCURVE",
"230 507 OFFCURVE",
"205 493 CURVE",
"215 521 OFFCURVE",
"230 556 OFFCURVE",
"239 583 CURVE SMOOTH",
"247 605 OFFCURVE",
"227 628 OFFCURVE",
"206 628 CURVE SMOOTH",
"184 628 OFFCURVE",
"160 616 OFFCURVE",
"160 592 CURVE SMOOTH",
"160 563 OFFCURVE",
"160 526 OFFCURVE",
"160 497 CURVE",
"140 517 OFFCURVE",
"126 524 OFFCURVE",
"101 560 CURVE SMOOTH",
"70 600 OFFCURVE",
"-29 520 OFFCURVE",
"51 490 CURVE SMOOTH",
"94 482 OFFCURVE",
"99 476 OFFCURVE",
"121 467 CURVE",
"74 458 OFFCURVE",
"7 461 OFFCURVE",
"7 422 CURVE SMOOTH",
"7 397 OFFCURVE",
"43 365 OFFCURVE",
"67 379 CURVE",
"92 392 OFFCURVE",
"121 408 OFFCURVE",
"145 422 CURVE",
"131 393 OFFCURVE",
"109 356 OFFCURVE",
"109 322 CURVE SMOOTH",
"109 301 OFFCURVE",
"125 291 OFFCURVE"
);
}
);
width = 350;
}
);
unicode = 002A;
},
{
glyphname = backslash;
lastChange = "2016-07-25 08:03:28 +0000";
layers = (
{
layerId = "1677BB6F-42BC-4502-A615-23038A63E498";
paths = (
{
closed = 1;
nodes = (
"370 -10 CURVE SMOOTH",
"398 0 OFFCURVE",
"402 28 OFFCURVE",
"383 69 CURVE SMOOTH",
"148 583 LINE SMOOTH",
"128 627 OFFCURVE",
"121 649 OFFCURVE",
"88 637 CURVE SMOOTH",
"52 624 OFFCURVE",
"56 600 OFFCURVE",
"77 553 CURVE SMOOTH",
"309 42 LINE SMOOTH",
"326 5 OFFCURVE",
"344 -19 OFFCURVE"
);
}
);
width = 426;
}
);
unicode = 005C;
},
{
glyphname = periodcentered;
lastChange = "2016-07-25 08:03:28 +0000";
layers = (
{
layerId = "1677BB6F-42BC-4502-A615-23038A63E498";
paths = (
{
closed = 1;
nodes = (
"236 -13 CURVE SMOOTH",
"284 -13 OFFCURVE",
"314 19 OFFCURVE",
"314 66 CURVE SMOOTH",
"314 111 OFFCURVE",
"287 134 OFFCURVE",
"243 134 CURVE SMOOTH",
"194 134 OFFCURVE",
"168 101 OFFCURVE",
"168 54 CURVE SMOOTH",
"168 11 OFFCURVE",
"193 -13 OFFCURVE"
);
}
);
width = 240;
}
);
unicode = 00B7;
},
{
glyphname = bullet;
lastChange = "2016-07-25 08:03:28 +0000";
layers = (
{
layerId = "1677BB6F-42BC-4502-A615-23038A63E498";
paths = (
{
closed = 1;
nodes = (
"175 80 CURVE SMOOTH",
"254 80 OFFCURVE",
"301 149 OFFCURVE",
"301 229 CURVE SMOOTH",
"301 285 OFFCURVE",
"272 312 OFFCURVE",
"219 312 CURVE SMOOTH",
"144 312 OFFCURVE",
"80 262 OFFCURVE",
"80 186 CURVE SMOOTH",
"80 124 OFFCURVE",
"113 80 OFFCURVE"
);
}
);
width = 383;
}
);
unicode = 2022;
},
{
glyphname = colon;
lastChange = "2016-07-25 08:03:28 +0000";
layers = (
{
layerId = "1677BB6F-42BC-4502-A615-23038A63E498";
paths = (
{
closed = 1;
nodes = (
"166 0 CURVE SMOOTH",
"210 0 OFFCURVE",
"235 29 OFFCURVE",
"235 71 CURVE SMOOTH",
"235 112 OFFCURVE",
"213 134 OFFCURVE",
"172 134 CURVE SMOOTH",
"128 134 OFFCURVE",
"102 103 OFFCURVE",
"102 61 CURVE SMOOTH",
"102 22 OFFCURVE",
"125 0 OFFCURVE"
);
},
{
closed = 1;
nodes = (
"186 229 CURVE SMOOTH",
"231 229 OFFCURVE",
"256 260 OFFCURVE",
"256 302 CURVE SMOOTH",
"256 342 OFFCURVE",
"232 364 OFFCURVE",
"192 364 CURVE SMOOTH",
"148 364 OFFCURVE",
"124 334 OFFCURVE",
"124 292 CURVE SMOOTH",
"124 253 OFFCURVE",
"147 229 OFFCURVE"
);
}
);
width = 240;
}
);
unicode = 003A;
},
{
glyphname = comma;
lastChange = "2016-07-25 08:03:28 +0000";
layers = (
{
layerId = "1677BB6F-42BC-4502-A615-23038A63E498";
paths = (
{
closed = 1;
nodes = (
"111 -95 CURVE SMOOTH",
"165 -61 OFFCURVE",
"217 -6 OFFCURVE",
"217 58 CURVE SMOOTH",
"217 93 OFFCURVE",
"202 115 OFFCURVE",
"165 114 CURVE SMOOTH",
"133 113 OFFCURVE",
"121 93 OFFCURVE",
"119 72 CURVE SMOOTH",
"111 8 OFFCURVE",
"106 -12 OFFCURVE",
"75 -65 CURVE SMOOTH",
"63 -85 OFFCURVE",
"94 -105 OFFCURVE"
);
}
);
width = 290;
}
);
unicode = 002C;
},
{
glyphname = ellipsis;
lastChange = "2016-07-25 08:03:28 +0000";
layers = (
{
layerId = "1677BB6F-42BC-4502-A615-23038A63E498";
paths = (
{
closed = 1;
nodes = (
"207 0 CURVE SMOOTH",
"247 0 OFFCURVE",
"270 26 OFFCURVE",
"270 65 CURVE SMOOTH",
"270 102 OFFCURVE",
"250 121 OFFCURVE",
"213 121 CURVE SMOOTH",
"173 121 OFFCURVE",
"150 94 OFFCURVE",
"150 55 CURVE SMOOTH",
"150 19 OFFCURVE",
"170 0 OFFCURVE"
);
},
{
closed = 1;
nodes = (
"389 0 CURVE SMOOTH",
"429 0 OFFCURVE",
"453 26 OFFCURVE",
"453 65 CURVE SMOOTH",
"453 102 OFFCURVE",
"432 121 OFFCURVE",
"395 121 CURVE SMOOTH",
"355 121 OFFCURVE",
"332 94 OFFCURVE",
"332 55 CURVE SMOOTH",
"332 19 OFFCURVE",
"352 0 OFFCURVE"
);
},
{
closed = 1;
nodes = (
"569 0 CURVE SMOOTH",
"609 0 OFFCURVE",
"633 26 OFFCURVE",
"633 65 CURVE SMOOTH",
"633 102 OFFCURVE",
"612 121 OFFCURVE",
"575 121 CURVE SMOOTH",
"535 121 OFFCURVE",
"513 94 OFFCURVE",
"513 55 CURVE SMOOTH",
"513 19 OFFCURVE",
"533 0 OFFCURVE"
);
}
);
width = 671;
}
);
unicode = 2026;
},
{
glyphname = exclam;
lastChange = "2016-07-25 08:03:28 +0000";
layers = (
{
layerId = "1677BB6F-42BC-4502-A615-23038A63E498";
paths = (
{
closed = 1;
nodes = (
"233 262 LINE SMOOTH",
"226 232 OFFCURVE",
"260 221 OFFCURVE",
"274 250 CURVE SMOOTH",
"408 536 LINE SMOOTH",
"438 600 OFFCURVE",
"441 647 OFFCURVE",
"382 654 CURVE SMOOTH",
"348 658 OFFCURVE",
"325 634 OFFCURVE",
"317 602 CURVE SMOOTH"
);
},
{
closed = 1;
nodes = (
"208 0 CURVE SMOOTH",
"255 0 OFFCURVE",
"283 32 OFFCURVE",
"283 78 CURVE SMOOTH",
"283 121 OFFCURVE",
"258 143 OFFCURVE",
"214 143 CURVE SMOOTH",
"167 143 OFFCURVE",
"140 113 OFFCURVE",
"140 67 CURVE SMOOTH",
"140 24 OFFCURVE",
"164 0 OFFCURVE"
);
}
);
width = 363.002;
}
);
unicode = 0021;
},
{
glyphname = numbersign;
lastChange = "2016-07-25 08:03:28 +0000";
layers = (
{
layerId = "1677BB6F-42BC-4502-A615-23038A63E498";
paths = (
{
closed = 1;
nodes = (
"125 9 OFFCURVE",
"150 -13 OFFCURVE",
"171 -13 CURVE SMOOTH",
"197 -13 OFFCURVE",
"213 -4 OFFCURVE",
"224 20 CURVE SMOOTH",
"284 151 LINE",
"379 150 LINE",
"336 36 LINE SMOOTH",
"326 10 OFFCURVE",
"338 -15 OFFCURVE",
"376 -12 CURVE SMOOTH",
"402 -10 OFFCURVE",
"411 4 OFFCURVE",
"421 31 CURVE SMOOTH",
"464 150 LINE",
"480 150 LINE",
"527 150 OFFCURVE",
"563 162 OFFCURVE",
"563 209 CURVE SMOOTH",
"563 229 OFFCURVE",
"548 235 OFFCURVE",
"530 236 CURVE",
"498 236 LINE",
"529 322 LINE",
"587 323 OFFCURVE",
"633 333 OFFCURVE",
"633 382 CURVE SMOOTH",
"633 402 OFFCURVE",
"618 409 OFFCURVE",
"601 409 CURVE SMOOTH",
"556 409 LINE",
"594 506 LINE SMOOTH",
"606 537 OFFCURVE",
"600 558 OFFCURVE",
"578 560 CURVE SMOOTH",
"547 563 OFFCURVE",
"526 550 OFFCURVE",
"510 509 CURVE SMOOTH",
"470 409 LINE",
"392 409 LINE",
"435 511 LINE SMOOTH",
"446 538 OFFCURVE",
"436 556 OFFCURVE",
"420 559 CURVE SMOOTH",
"384 566 OFFCURVE",
"356 544 OFFCURVE",
"340 507 CURVE SMOOTH",
"298 409 LINE",
"233 409 OFFCURVE",
"201 409 OFFCURVE",
"195 364 CURVE SMOOTH",
"191 332 OFFCURVE",
"221 323 OFFCURVE",
"264 322 CURVE",
"224 234 LINE",
"168 233 OFFCURVE",
"141 231 OFFCURVE",
"134 191 CURVE SMOOTH",
"129 164 OFFCURVE",
"151 154 OFFCURVE",
"189 152 CURVE",
"143 49 LINE SMOOTH"
);
},
{
closed = 1;
nodes = (
"318 235 LINE",
"355 322 LINE",
"446 322 LINE",
"413 235 LINE"
);
}
);
width = 577.045;
}
);
unicode = 0023;
},
{
glyphname = period;
lastChange = "2016-07-25 08:03:28 +0000";
layers = (
{
layerId = "1677BB6F-42BC-4502-A615-23038A63E498";
paths = (
{
closed = 1;
nodes = (
"190 0 CURVE SMOOTH",
"237 0 OFFCURVE",
"265 32 OFFCURVE",
"265 78 CURVE SMOOTH",
"265 121 OFFCURVE",
"240 143 OFFCURVE",
"196 143 CURVE SMOOTH",
"149 143 OFFCURVE",
"122 113 OFFCURVE",
"122 67 CURVE SMOOTH",
"122 24 OFFCURVE",
"146 0 OFFCURVE"
);
}
);
width = 296;
}
);
unicode = 002E;
},
{
glyphname = question;
lastChange = "2016-07-25 08:03:28 +0000";
layers = (
{
layerId = "1677BB6F-42BC-4502-A615-23038A63E498";
paths = (
{
closed = 1;
nodes = (
"191 250 CURVE SMOOTH",
"191 241 OFFCURVE",
"193 229 OFFCURVE",
"211 227 CURVE SMOOTH",
"230 225 OFFCURVE",
"235 237 OFFCURVE",
"243 255 CURVE SMOOTH",
"273 326 OFFCURVE",
"423 324 OFFCURVE",
"430 483 CURVE SMOOTH",
"433 585 OFFCURVE",
"352 634 OFFCURVE",
"269 638 CURVE SMOOTH",
"213 641 OFFCURVE",
"104 621 OFFCURVE",
"78 509 CURVE SMOOTH",
"69 470 OFFCURVE",
"135 452 OFFCURVE",
"146 477 CURVE SMOOTH",
"170 531 OFFCURVE",
"214 549 OFFCURVE",
"256 547 CURVE SMOOTH",
"295 545 OFFCURVE",
"333 525 OFFCURVE",
"329 470 CURVE SMOOTH",
"321 360 OFFCURVE",
"193 349 OFFCURVE"
);
},
{
closed = 1;
nodes = (
"186 -10 CURVE SMOOTH",
"230 -10 OFFCURVE",
"256 19 OFFCURVE",
"256 61 CURVE SMOOTH",
"256 102 OFFCURVE",
"233 124 OFFCURVE",
"193 124 CURVE SMOOTH",
"148 124 OFFCURVE",
"124 93 OFFCURVE",
"124 51 CURVE SMOOTH",
"124 12 OFFCURVE",
"147 -10 OFFCURVE"
);
}
);
width = 350;
}
);
unicode = 003F;
},
{
glyphname = quotedbl;
lastChange = "2016-07-25 08:03:28 +0000";
layers = (
{
layerId = "1677BB6F-42BC-4502-A615-23038A63E498";
paths = (
{
closed = 1;
nodes = (
"348 383 CURVE SMOOTH",
"367 381 OFFCURVE",
"379 391 OFFCURVE",
"387 412 CURVE SMOOTH",
"407 463 OFFCURVE",
"438 554 OFFCURVE",
"454 596 CURVE SMOOTH",
"463 621 OFFCURVE",
"446 635 OFFCURVE",
"427 639 CURVE SMOOTH",
"390 647 OFFCURVE",
"366 637 OFFCURVE",
"361 612 CURVE SMOOTH",
"349 553 OFFCURVE",
"331 453 OFFCURVE",
"325 421 CURVE SMOOTH",
"321 399 OFFCURVE",
"326 385 OFFCURVE"
);
},
{
closed = 1;
nodes = (
"204 384 CURVE SMOOTH",
"224 382 OFFCURVE",
"235 391 OFFCURVE",
"241 410 CURVE SMOOTH",
"247 429 OFFCURVE",
"288 556 OFFCURVE",
"300 597 CURVE SMOOTH",
"308 625 OFFCURVE",
"291 637 OFFCURVE",
"268 639 CURVE SMOOTH",
"242 641 OFFCURVE",
"217 637 OFFCURVE",
"211 604 CURVE SMOOTH",
"204 565 OFFCURVE",
"189 472 OFFCURVE",
"183 420 CURVE SMOOTH",
"181 400 OFFCURVE",
"182 386 OFFCURVE"
);
}
);
width = 573.972;
}
);
unicode = 0022;
},
{
glyphname = quotesingle;
lastChange = "2016-07-25 08:03:28 +0000";
layers = (
{
layerId = "1677BB6F-42BC-4502-A615-23038A63E498";
paths = (
{
closed = 1;
nodes = (
"185 399 OFFCURVE",
"190 385 OFFCURVE",
"212 383 CURVE SMOOTH",
"231 381 OFFCURVE",
"243 391 OFFCURVE",
"251 412 CURVE SMOOTH",
"271 463 OFFCURVE",
"302 554 OFFCURVE",
"318 596 CURVE SMOOTH",
"327 621 OFFCURVE",
"310 635 OFFCURVE",
"291 639 CURVE SMOOTH",
"254 647 OFFCURVE",
"230 637 OFFCURVE",
"225 612 CURVE SMOOTH",
"213 553 OFFCURVE",
"195 453 OFFCURVE",
"189 421 CURVE SMOOTH"
);
}
);
width = 300.869;
}
);
unicode = 0027;
},
{
glyphname = semicolon;
lastChange = "2016-07-25 08:03:28 +0000";
layers = (
{
layerId = "1677BB6F-42BC-4502-A615-23038A63E498";
paths = (
{
closed = 1;
nodes = (
"151 -66 OFFCURVE",
"166 -66 CURVE SMOOTH",
"198 -67 OFFCURVE",
"250 -33 OFFCURVE",
"263 70 CURVE SMOOTH",
"267 102 OFFCURVE",
"249 124 OFFCURVE",
"212 124 CURVE SMOOTH",
"178 124 OFFCURVE",
"155 104 OFFCURVE",
"157 77 CURVE SMOOTH",
"162 12 OFFCURVE",
"136 -25 OFFCURVE",
"139 -47 CURVE SMOOTH",
"141 -58 OFFCURVE"
);
},
{
closed = 1;
nodes = (
"231 222 CURVE SMOOTH",
"276 222 OFFCURVE",
"301 253 OFFCURVE",
"301 295 CURVE SMOOTH",
"301 335 OFFCURVE",
"277 358 OFFCURVE",
"237 358 CURVE SMOOTH",
"193 358 OFFCURVE",
"169 327 OFFCURVE",
"169 285 CURVE SMOOTH",
"169 246 OFFCURVE",
"192 222 OFFCURVE"
);
}
);
width = 339;
}
);
unicode = 003B;
},
{
glyphname = slash;
lastChange = "2016-07-25 08:03:28 +0000";
layers = (
{
layerId = "1677BB6F-42BC-4502-A615-23038A63E498";
paths = (
{
closed = 1;
nodes = (
"205 -9 OFFCURVE",
"222 28 CURVE SMOOTH",
"454 539 LINE SMOOTH",
"475 586 OFFCURVE",
"479 610 OFFCURVE",
"443 623 CURVE SMOOTH",
"410 635 OFFCURVE",
"403 613 OFFCURVE",
"383 569 CURVE SMOOTH",
"148 55 LINE SMOOTH",
"129 14 OFFCURVE",
"133 -14 OFFCURVE",
"161 -24 CURVE SMOOTH",
"187 -33 OFFCURVE"
);
}
);
width = 426;
}
);
unicode = 002F;
},
{
glyphname = underscore;
lastChange = "2016-07-25 08:03:28 +0000";
layers = (
{
layerId = "1677BB6F-42BC-4502-A615-23038A63E498";
paths = (
{
closed = 1;
nodes = (
"74 -84 OFFCURVE",
"92 -97 OFFCURVE",
"130 -97 CURVE SMOOTH",
"374 -97 LINE",
"421 -97 OFFCURVE",
"432 -87 OFFCURVE",
"435 -60 CURVE SMOOTH",
"437 -39 OFFCURVE",
"428 -26 OFFCURVE",
"390 -26 CURVE",
"148 -26 LINE",
"107 -26 OFFCURVE",
"81 -29 OFFCURVE",
"78 -54 CURVE SMOOTH"
);
}
);
width = 456;
}
);
unicode = 005F;
},
{
glyphname = braceleft;
lastChange = "2016-07-25 08:03:28 +0000";
layers = (
{
layerId = "1677BB6F-42BC-4502-A615-23038A63E498";
paths = (
{
closed = 1;
nodes = (
"377 -103 CURVE SMOOTH",
"407 -99 OFFCURVE",
"405 -34 OFFCURVE",
"368 -36 CURVE SMOOTH",
"270 -42 OFFCURVE",
"278 -24 OFFCURVE",
"278 34 CURVE SMOOTH",
"278 83 OFFCURVE",
"293 139 OFFCURVE",
"293 193 CURVE SMOOTH",
"293 256 OFFCURVE",
"234 286 OFFCURVE",
"179 292 CURVE",
"176 264 LINE",
"244 262 OFFCURVE",
"308 287 OFFCURVE",
"312 365 CURVE SMOOTH",
"321 533 OFFCURVE",
"329 571 OFFCURVE",
"368 578 CURVE",
"400 582 OFFCURVE",
"432 570 OFFCURVE",
"450 563 CURVE SMOOTH",
"488 551 OFFCURVE",
"499 606 OFFCURVE",
"477 621 CURVE SMOOTH",
"450 636 OFFCURVE",
"403 652 OFFCURVE",
"355 648 CURVE SMOOTH",
"259 641 OFFCURVE",
"234 559 OFFCURVE",
"224 386 CURVE SMOOTH",
"222 337 OFFCURVE",
"204 317 OFFCURVE",
"153 321 CURVE SMOOTH",
"129 323 OFFCURVE",
"113 312 OFFCURVE",
"109 284 CURVE SMOOTH",
"107 260 OFFCURVE",
"119 240 OFFCURVE",
"139 238 CURVE SMOOTH",
"195 234 OFFCURVE",
"203 220 OFFCURVE",
"203 185 CURVE SMOOTH",
"203 129 OFFCURVE",
"188 79 OFFCURVE",
"188 27 CURVE SMOOTH",
"188 -70 OFFCURVE",
"237 -118 OFFCURVE"
);
}
);
width = 394;
}
);
unicode = 007B;
},
{
glyphname = braceright;
lastChange = "2016-07-25 08:03:28 +0000";
layers = (
{
layerId = "1677BB6F-42BC-4502-A615-23038A63E498";
paths = (
{
closed = 1;
nodes = (
"173 -115 CURVE",
"271 -109 OFFCURVE",
"295 -28 OFFCURVE",
"305 146 CURVE",
"308 193 OFFCURVE",
"318 211 OFFCURVE",
"355 211 CURVE SMOOTH",
"381 211 OFFCURVE",
"397 219 OFFCURVE",
"399 247 CURVE SMOOTH",
"401 270 OFFCURVE",
"391 293 OFFCURVE",
"371 294 CURVE SMOOTH",
"330 296 OFFCURVE",
"326 312 OFFCURVE",
"326 347 CURVE SMOOTH",
"326 403 OFFCURVE",
"340 454 OFFCURVE",
"340 504 CURVE SMOOTH",
"340 603 OFFCURVE",
"291 650 OFFCURVE",
"152 633 CURVE SMOOTH",
"121 630 OFFCURVE",
"125 566 OFFCURVE",
"162 569 CURVE SMOOTH",
"235 573 OFFCURVE",
"245 555 OFFCURVE",
"245 497 CURVE SMOOTH",
"245 448 OFFCURVE",
"230 393 OFFCURVE",
"230 338 CURVE SMOOTH",
"230 275 OFFCURVE",
"295 245 OFFCURVE",
"351 239 CURVE",
"352 267 LINE",
"285 268 OFFCURVE",
"215 244 OFFCURVE",
"211 168 CURVE SMOOTH",
"202 0 OFFCURVE",
"193 -41 OFFCURVE",
"161 -48 CURVE",
"130 -50 OFFCURVE",
"98 -38 OFFCURVE",
"78 -33 CURVE SMOOTH",
"41 -19 OFFCURVE",
"28 -75 OFFCURVE",
"53 -89 CURVE SMOOTH",
"80 -105 OFFCURVE",
"126 -120 OFFCURVE"
);
}
);
width = 426;
}
);
unicode = 007D;
},
{
glyphname = bracketleft;
lastChange = "2016-07-25 08:03:28 +0000";
layers = (
{
layerId = "1677BB6F-42BC-4502-A615-23038A63E498";
paths = (
{
closed = 1;
nodes = (
"181 -71 CURVE SMOOTH",
"282 -72 LINE",
"306 -72 OFFCURVE",
"336 -51 OFFCURVE",
"336 -21 CURVE SMOOTH",
"336 2 OFFCURVE",
"312 13 OFFCURVE",
"287 13 CURVE SMOOTH",
"222 13 LINE",
"241 137 OFFCURVE",
"240 158 OFFCURVE",
"251 238 CURVE SMOOTH",
"260 294 OFFCURVE",
"269 386 OFFCURVE",
"285 489 CURVE",
"372 489 LINE",
"395 489 OFFCURVE",
"419 506 OFFCURVE",
"419 532 CURVE SMOOTH",
"419 559 OFFCURVE",
"401 576 OFFCURVE",
"375 576 CURVE SMOOTH",
"264 576 LINE",
"229 576 OFFCURVE",
"208 567 OFFCURVE",
"199 514 CURVE SMOOTH",
"177 379 OFFCURVE",
"169 304 OFFCURVE",
"146 133 CURVE SMOOTH",
"126 -18 LINE",
"118 -59 OFFCURVE",
"131 -70 OFFCURVE"
);
}
);
width = 316;
}
);
unicode = 005B;
},
{
glyphname = bracketright;
lastChange = "2016-07-25 08:03:28 +0000";
layers = (
{
layerId = "1677BB6F-42BC-4502-A615-23038A63E498";
paths = (
{
closed = 1;
nodes = (
"45 -71 CURVE SMOOTH",
"154 -71 LINE",
"193 -71 OFFCURVE",
"217 -65 OFFCURVE",
"228 -4 CURVE SMOOTH",
"251 133 OFFCURVE",
"255 231 OFFCURVE",
"282 416 CURVE SMOOTH",
"271 350 OFFCURVE",
"294 515 OFFCURVE",
"294 513 CURVE",
"302 561 OFFCURVE",
"290 576 OFFCURVE",
"241 576 CURVE SMOOTH",
"141 576 LINE",
"118 576 OFFCURVE",
"90 556 OFFCURVE",
"90 526 CURVE SMOOTH",
"90 503 OFFCURVE",
"114 491 OFFCURVE",
"132 491 CURVE SMOOTH",
"200 491 LINE",
"180 367 OFFCURVE",
"185 384 OFFCURVE",
"168 256 CURVE SMOOTH",
"149 131 OFFCURVE",
"153 116 OFFCURVE",
"136 13 CURVE",
"49 13 LINE",
"26 13 OFFCURVE",
"3 -3 OFFCURVE",
"3 -28 CURVE SMOOTH",
"3 -55 OFFCURVE",
"19 -71 OFFCURVE"
);
}
);
width = 316;
}
);
unicode = 005D;
},
{
glyphname = parenleft;
lastChange = "2016-07-25 08:03:28 +0000";
layers = (
{
layerId = "1677BB6F-42BC-4502-A615-23038A63E498";
paths = (
{
closed = 1;
nodes = (
"43 -31 OFFCURVE",
"373 -131 CURVE SMOOTH",
"399 -139 OFFCURVE",
"429 -78 OFFCURVE",
"395 -60 CURVE SMOOTH",
"196 46 OFFCURVE",
"254 406 OFFCURVE",
"473 568 CURVE SMOOTH",
"507 592 OFFCURVE",
"463 649 OFFCURVE",
"436 631 CURVE SMOOTH",
"127 425 OFFCURVE"
);
}
);
width = 355;
}
);
unicode = 0028;
},
{
glyphname = parenright;
lastChange = "2016-07-25 08:03:28 +0000";
layers = (
{
layerId = "1677BB6F-42BC-4502-A615-23038A63E498";
paths = (
{
closed = 1;
nodes = (
"-5 -82 OFFCURVE",
"28 -149 OFFCURVE",
"71 -134 CURVE SMOOTH",
"433 -10 OFFCURVE",
"445 391 OFFCURVE",
"159 634 CURVE SMOOTH",
"133 656 OFFCURVE",
"83 602 OFFCURVE",
"116 568 CURVE SMOOTH",
"310 370 OFFCURVE",
"273 54 OFFCURVE",
"40 -60 CURVE SMOOTH"
);
}
);
width = 398;
}
);
unicode = 0029;
},
{
glyphname = emdash;
lastChange = "2016-07-25 08:03:28 +0000";
layers = (
{
layerId = "1677BB6F-42BC-4502-A615-23038A63E498";
paths = (
{
closed = 1;
nodes = (
"54 124 CURVE SMOOTH",
"318 124 LINE",
"352 124 OFFCURVE",
"367 145 OFFCURVE",
"367 177 CURVE SMOOTH",
"367 206 OFFCURVE",
"346 214 OFFCURVE",
"319 214 CURVE SMOOTH",
"63 214 LINE",
"32 214 OFFCURVE",
"14 201 OFFCURVE",
"14 168 CURVE SMOOTH",
"14 145 OFFCURVE",
"29 124 OFFCURVE"
);
}
);
width = 383;
}
);
unicode = 2014;
},
{
glyphname = endash;
lastChange = "2016-07-25 08:03:28 +0000";
layers = (
{
layerId = "1677BB6F-42BC-4502-A615-23038A63E498";
paths = (
{
closed = 1;
nodes = (
"54 131 CURVE SMOOTH",
"274 131 LINE",
"304 131 OFFCURVE",
"317 148 OFFCURVE",
"317 177 CURVE SMOOTH",
"317 201 OFFCURVE",
"300 208 OFFCURVE",
"276 208 CURVE SMOOTH",
"64 208 LINE",
"35 208 OFFCURVE",
"22 197 OFFCURVE",
"22 168 CURVE SMOOTH",
"22 147 OFFCURVE",
"34 131 OFFCURVE"
);
}
);
width = 338;
}
);
unicode = 2013;
},
{
glyphname = hyphen;
lastChange = "2016-07-25 08:03:28 +0000";
layers = (
{
layerId = "1677BB6F-42BC-4502-A615-23038A63E498";
paths = (
{
closed = 1;
nodes = (
"138 229 CURVE SMOOTH",
"203 261 OFFCURVE",
"246 280 OFFCURVE",
"353 308 CURVE SMOOTH",
"376 314 OFFCURVE",
"386 321 OFFCURVE",
"386 339 CURVE SMOOTH",
"386 366 OFFCURVE",
"365 373 OFFCURVE",
"346 373 CURVE",
"262 362 OFFCURVE",
"173 342 OFFCURVE",
"123 316 CURVE SMOOTH",
"81 289 OFFCURVE",
"85 264 OFFCURVE",
"92 250 CURVE SMOOTH",
"98 234 OFFCURVE",
"116 216 OFFCURVE"
);
}
);
width = 387;
}
);
unicode = 002D;
},
{
glyphname = guillemotleft;
lastChange = "2016-07-25 08:03:28 +0000";
layers = (
{
layerId = "1677BB6F-42BC-4502-A615-23038A63E498";
paths = (
{
closed = 1;
nodes = (
"244 28 LINE SMOOTH",
"280 -3 OFFCURVE",
"346 55 OFFCURVE",
"304 92 CURVE SMOOTH",
"199 185 LINE",
"303 259 LINE SMOOTH",
"352 294 OFFCURVE",
"305 363 OFFCURVE",
"252 327 CURVE SMOOTH",
"119 237 LINE SMOOTH",
"103 226 OFFCURVE",
"96 204 OFFCURVE",
"96 182 CURVE SMOOTH",
"96 159 OFFCURVE",
"111 141 OFFCURVE",
"127 127 CURVE SMOOTH"
);
},
{
closed = 1;
nodes = (
"465 28 LINE SMOOTH",
"501 -3 OFFCURVE",
"567 55 OFFCURVE",
"525 92 CURVE SMOOTH",
"420 185 LINE",
"524 259 LINE SMOOTH",
"573 294 OFFCURVE",
"526 363 OFFCURVE",
"473 327 CURVE SMOOTH",
"340 237 LINE SMOOTH",
"324 226 OFFCURVE",
"317 204 OFFCURVE",
"317 182 CURVE SMOOTH",
"317 159 OFFCURVE",
"332 141 OFFCURVE",
"348 127 CURVE SMOOTH"
);
}
);
width = 566.003;
}
);
unicode = 00AB;
},
{
glyphname = guillemotright;
lastChange = "2016-07-25 08:03:28 +0000";
layers = (
{
layerId = "1677BB6F-42BC-4502-A615-23038A63E498";
paths = (
{
closed = 1;
nodes = (
"558 141 OFFCURVE",
"574 159 OFFCURVE",
"575 182 CURVE SMOOTH",
"576 204 OFFCURVE",
"570 226 OFFCURVE",
"555 237 CURVE SMOOTH",
"426 327 LINE SMOOTH",
"375 363 OFFCURVE",
"325 294 OFFCURVE",
"372 259 CURVE SMOOTH",
"472 185 LINE",
"362 92 LINE SMOOTH",
"318 55 OFFCURVE",
"381 -3 OFFCURVE",
"419 28 CURVE SMOOTH",
"541 127 LINE SMOOTH"
);
},
{
closed = 1;
nodes = (
"337 141 OFFCURVE",
"353 159 OFFCURVE",
"354 182 CURVE SMOOTH",
"355 204 OFFCURVE",
"349 226 OFFCURVE",
"334 237 CURVE SMOOTH",
"205 327 LINE SMOOTH",
"154 363 OFFCURVE",
"104 294 OFFCURVE",
"151 259 CURVE SMOOTH",
"251 185 LINE",
"141 92 LINE SMOOTH",
"97 55 OFFCURVE",
"160 -3 OFFCURVE",
"198 28 CURVE SMOOTH",
"320 127 LINE SMOOTH"
);
}
);
width = 594.996;
}
);
unicode = 00BB;
},
{
glyphname = guilsinglleft;
lastChange = "2016-07-25 08:03:28 +0000";
layers = (
{
layerId = "1677BB6F-42BC-4502-A615-23038A63E498";
paths = (
{
closed = 1;
nodes = (
"352 0 OFFCURVE",
"380 16 OFFCURVE",
"390 50 CURVE SMOOTH",
"400 85 OFFCURVE",
"376 96 OFFCURVE",
"334 118 CURVE SMOOTH",
"180 200 LINE",
"377 262 LINE SMOOTH",
"407 271 OFFCURVE",
"419 286 OFFCURVE",
"413 314 CURVE SMOOTH",
"404 354 OFFCURVE",
"389 360 OFFCURVE",
"342 346 CURVE SMOOTH",
"152 288 LINE SMOOTH",
"115 277 OFFCURVE",
"88 248 OFFCURVE",
"88 193 CURVE SMOOTH",
"88 162 OFFCURVE",
"101 137 OFFCURVE",
"136 118 CURVE SMOOTH",
"310 23 LINE SMOOTH"
);
}
);
width = 432;
}
);
unicode = 2039;
},
{
glyphname = guilsinglright;
lastChange = "2016-07-25 08:03:28 +0000";
layers = (
{
layerId = "1677BB6F-42BC-4502-A615-23038A63E498";
paths = (
{
closed = 1;
nodes = (
"187 365 OFFCURVE",
"159 349 OFFCURVE",
"149 315 CURVE SMOOTH",
"139 280 OFFCURVE",
"163 269 OFFCURVE",
"205 247 CURVE SMOOTH",
"359 165 LINE",
"162 103 LINE SMOOTH",
"132 94 OFFCURVE",
"120 79 OFFCURVE",
"126 51 CURVE SMOOTH",
"135 11 OFFCURVE",
"150 5 OFFCURVE",
"197 19 CURVE SMOOTH",
"387 77 LINE SMOOTH",
"424 88 OFFCURVE",
"451 117 OFFCURVE",
"451 172 CURVE SMOOTH",
"451 203 OFFCURVE",
"438 228 OFFCURVE",
"403 247 CURVE SMOOTH",
"229 342 LINE SMOOTH"
);
}
);
width = 456;
}
);
unicode = 203A;
},
{
glyphname = quotedblbase;
lastChange = "2016-07-25 08:03:28 +0000";
layers = (
{
layerId = "1677BB6F-42BC-4502-A615-23038A63E498";
paths = (
{
closed = 1;
nodes = (
"289 -117 CURVE SMOOTH",
"308 -119 OFFCURVE",
"320 -109 OFFCURVE",
"328 -88 CURVE SMOOTH",
"348 -37 OFFCURVE",
"379 54 OFFCURVE",
"395 96 CURVE SMOOTH",
"404 121 OFFCURVE",
"387 135 OFFCURVE",
"368 139 CURVE SMOOTH",
"331 147 OFFCURVE",
"307 137 OFFCURVE",
"302 112 CURVE SMOOTH",
"290 53 OFFCURVE",
"272 -47 OFFCURVE",
"266 -79 CURVE SMOOTH",
"262 -101 OFFCURVE",
"267 -115 OFFCURVE"
);
},
{
closed = 1;
nodes = (
"145 -116 CURVE SMOOTH",
"165 -118 OFFCURVE",
"176 -109 OFFCURVE",
"182 -90 CURVE SMOOTH",
"188 -71 OFFCURVE",
"229 56 OFFCURVE",
"241 97 CURVE SMOOTH",
"249 125 OFFCURVE",
"232 137 OFFCURVE",
"209 139 CURVE SMOOTH",
"183 141 OFFCURVE",
"158 137 OFFCURVE",
"152 104 CURVE SMOOTH",
"145 65 OFFCURVE",
"130 -28 OFFCURVE",
"124 -80 CURVE SMOOTH",
"122 -100 OFFCURVE",
"123 -114 OFFCURVE"
);
}
);
width = 449.999;
}
);
unicode = 201E;
},
{
glyphname = quotedblleft;
lastChange = "2016-07-25 08:03:28 +0000";
layers = (
{
layerId = "1677BB6F-42BC-4502-A615-23038A63E498";
paths = (
{
closed = 1;
nodes = (
"266 641 CURVE SMOOTH",
"247 643 OFFCURVE",
"235 633 OFFCURVE",
"227 612 CURVE SMOOTH",
"207 561 OFFCURVE",
"176 470 OFFCURVE",
"160 428 CURVE SMOOTH",
"151 403 OFFCURVE",
"168 389 OFFCURVE",
"187 385 CURVE SMOOTH",
"224 377 OFFCURVE",
"248 387 OFFCURVE",
"253 412 CURVE SMOOTH",
"265 471 OFFCURVE",
"283 571 OFFCURVE",
"289 603 CURVE SMOOTH",
"293 625 OFFCURVE",
"288 639 OFFCURVE"
);
},
{
closed = 1;
nodes = (
"410 640 CURVE SMOOTH",
"390 642 OFFCURVE",
"379 633 OFFCURVE",
"373 614 CURVE SMOOTH",
"367 595 OFFCURVE",
"326 468 OFFCURVE",
"314 427 CURVE SMOOTH",
"306 399 OFFCURVE",
"323 387 OFFCURVE",
"346 385 CURVE SMOOTH",
"372 383 OFFCURVE",
"397 387 OFFCURVE",
"403 420 CURVE SMOOTH",
"410 459 OFFCURVE",
"425 552 OFFCURVE",
"431 604 CURVE SMOOTH",
"433 624 OFFCURVE",
"432 638 OFFCURVE"
);
}
);
width = 436;
}
);
unicode = 201C;
},
{
glyphname = quotedblright;
lastChange = "2016-07-25 08:03:28 +0000";
layers = (
{
layerId = "1677BB6F-42BC-4502-A615-23038A63E498";
paths = (
{
closed = 1;
nodes = (
"319 383 CURVE SMOOTH",
"338 381 OFFCURVE",
"350 391 OFFCURVE",
"358 412 CURVE SMOOTH",
"378 463 OFFCURVE",
"409 554 OFFCURVE",
"425 596 CURVE SMOOTH",
"434 621 OFFCURVE",
"417 635 OFFCURVE",
"398 639 CURVE SMOOTH",
"361 647 OFFCURVE",
"337 637 OFFCURVE",
"332 612 CURVE SMOOTH",
"320 553 OFFCURVE",
"302 453 OFFCURVE",
"296 421 CURVE SMOOTH",
"292 399 OFFCURVE",
"297 385 OFFCURVE"
);
},
{
closed = 1;
nodes = (
"175 384 CURVE SMOOTH",
"195 382 OFFCURVE",
"206 391 OFFCURVE",
"212 410 CURVE SMOOTH",
"218 429 OFFCURVE",
"259 556 OFFCURVE",
"271 597 CURVE SMOOTH",
"279 625 OFFCURVE",
"262 637 OFFCURVE",
"239 639 CURVE SMOOTH",
"213 641 OFFCURVE",
"188 637 OFFCURVE",
"182 604 CURVE SMOOTH",
"175 565 OFFCURVE",
"160 472 OFFCURVE",
"154 420 CURVE SMOOTH",
"152 400 OFFCURVE",
"153 386 OFFCURVE"
);
}
);
width = 537.999;
}
);
unicode = 201D;
},
{
glyphname = quoteleft;
lastChange = "2016-07-25 08:03:28 +0000";
layers = (
{
layerId = "1677BB6F-42BC-4502-A615-23038A63E498";
paths = (
{
closed = 1;
nodes = (
"171 625 OFFCURVE",
"166 639 OFFCURVE",
"144 641 CURVE SMOOTH",
"125 643 OFFCURVE",
"113 633 OFFCURVE",
"105 612 CURVE SMOOTH",
"85 561 OFFCURVE",
"54 470 OFFCURVE",
"38 428 CURVE SMOOTH",
"29 403 OFFCURVE",
"46 389 OFFCURVE",
"65 385 CURVE SMOOTH",
"102 377 OFFCURVE",
"126 387 OFFCURVE",
"131 412 CURVE SMOOTH",
"143 471 OFFCURVE",
"161 571 OFFCURVE",
"167 603 CURVE SMOOTH"
);
}
);
width = 240;
}
);
unicode = 2018;
},
{
glyphname = quoteright;
lastChange = "2016-07-25 08:03:28 +0000";
layers = (
{
layerId = "1677BB6F-42BC-4502-A615-23038A63E498";
paths = (
{
closed = 1;
nodes = (
"54 399 OFFCURVE",
"59 385 OFFCURVE",
"81 383 CURVE SMOOTH",
"100 381 OFFCURVE",
"112 391 OFFCURVE",
"120 412 CURVE SMOOTH",
"140 463 OFFCURVE",
"171 554 OFFCURVE",
"187 596 CURVE SMOOTH",
"196 621 OFFCURVE",
"179 635 OFFCURVE",
"160 639 CURVE SMOOTH",
"123 647 OFFCURVE",
"99 637 OFFCURVE",
"94 612 CURVE SMOOTH",
"82 553 OFFCURVE",
"64 453 OFFCURVE",
"58 421 CURVE SMOOTH"
);
}
);
width = 219;
}
);
unicode = 2019;
},
{
glyphname = quotesinglbase;
lastChange = "2016-07-25 08:03:28 +0000";
layers = (
{
layerId = "1677BB6F-42BC-4502-A615-23038A63E498";
paths = (
{
closed = 1;
nodes = (
"122 -100 OFFCURVE",
"123 -114 OFFCURVE",
"145 -116 CURVE SMOOTH",
"165 -118 OFFCURVE",
"176 -109 OFFCURVE",
"182 -90 CURVE SMOOTH",
"188 -71 OFFCURVE",
"229 56 OFFCURVE",
"241 97 CURVE SMOOTH",
"249 125 OFFCURVE",
"232 137 OFFCURVE",
"209 139 CURVE SMOOTH",
"183 141 OFFCURVE",
"158 137 OFFCURVE",
"152 104 CURVE SMOOTH",
"145 65 OFFCURVE",
"130 -28 OFFCURVE",
"124 -80 CURVE SMOOTH"
);
}
);
width = 307.996;
}
);
unicode = 201A;
},
{
glyphname = Euro;
lastChange = "2016-07-25 08:03:28 +0000";
layers = (
{
layerId = "1677BB6F-42BC-4502-A615-23038A63E498";
paths = (
{
closed = 1;
nodes = (
"299 -69 CURVE SMOOTH",
"453 -69 OFFCURVE",
"548 12 OFFCURVE",
"584 73 CURVE SMOOTH",
"600 101 OFFCURVE",
"544 144 OFFCURVE",
"519 119 CURVE SMOOTH",
"472 72 OFFCURVE",
"406 20 OFFCURVE",
"311 31 CURVE SMOOTH",
"235 40 OFFCURVE",
"202 85 OFFCURVE",
"202 161 CURVE",
"202 156 OFFCURVE",
"202 168 OFFCURVE",
"202 167 CURVE",
"323 167 LINE",
"354 167 OFFCURVE",
"365 174 OFFCURVE",
"368 205 CURVE SMOOTH",
"370 228 OFFCURVE",
"352 227 OFFCURVE",
"329 227 CURVE SMOOTH",
"209 227 LINE",
"210 237 OFFCURVE",
"221 289 OFFCURVE",
"225 297 CURVE",
"354 297 LINE",
"388 297 OFFCURVE",
"398 306 OFFCURVE",
"401 324 CURVE SMOOTH",
"405 349 OFFCURVE",
"389 359 OFFCURVE",
"366 359 CURVE SMOOTH",
"246 359 LINE",
"282 459 OFFCURVE",
"342 518 OFFCURVE",
"426 526 CURVE SMOOTH",
"507 534 OFFCURVE",
"532 479 OFFCURVE",
"523 437 CURVE SMOOTH",
"514 394 OFFCURVE",
"584 387 OFFCURVE",
"601 424 CURVE SMOOTH",
"636 502 OFFCURVE",
"599 613 OFFCURVE",
"439 613 CURVE SMOOTH",
"272 613 OFFCURVE",
"174 487 OFFCURVE",
"127 359 CURVE",
"97 359 LINE",
"71 359 OFFCURVE",
"53 348 OFFCURVE",
"48 324 CURVE SMOOTH",
"44 303 OFFCURVE",
"60 297 OFFCURVE",
"89 297 CURVE SMOOTH",
"102 297 LINE",
"99 291 OFFCURVE",
"87 239 OFFCURVE",
"87 227 CURVE",
"62 227 LINE",
"24 227 OFFCURVE",
"9 167 OFFCURVE",
"69 167 CURVE SMOOTH",
"82 167 LINE",
"82 165 LINE",
"82 21 OFFCURVE",
"165 -69 OFFCURVE"
);
}
);
width = 634;
}
);
unicode = 20AC;
},
{
glyphname = cent;
lastChange = "2016-07-25 08:03:28 +0000";
layers = (
{
layerId = "1677BB6F-42BC-4502-A615-23038A63E498";
paths = (
{
closed = 1;
nodes = (
"158 -74 CURVE SMOOTH",
"169 -74 OFFCURVE",
"186 -62 OFFCURVE",
"189 -45 CURVE",
"194 -5 LINE",
"241 9 OFFCURVE",
"267 30 OFFCURVE",
"291 50 CURVE SMOOTH",
"298 56 OFFCURVE",
"303 62 OFFCURVE",
"303 75 CURVE SMOOTH",
"303 94 OFFCURVE",
"285 129 OFFCURVE",
"261 110 CURVE SMOOTH",
"244 100 OFFCURVE",
"225 86 OFFCURVE",
"202 77 CURVE",
"207 136 OFFCURVE",
"210 198 OFFCURVE",
"214 255 CURVE",
"232 244 OFFCURVE",
"210 180 OFFCURVE",
"259 180 CURVE SMOOTH",
"293 180 OFFCURVE",
"304 219 OFFCURVE",
"304 249 CURVE SMOOTH",
"304 298 OFFCURVE",
"263 324 OFFCURVE",
"220 331 CURVE",
"221 338 OFFCURVE",
"223 355 OFFCURVE",
"223 364 CURVE SMOOTH",
"223 372 OFFCURVE",
"217 394 OFFCURVE",
"206 394 CURVE SMOOTH",
"179 394 OFFCURVE",
"170 363 OFFCURVE",
"169 348 CURVE SMOOTH",
"168 333 LINE",
"80 319 OFFCURVE",
"16 239 OFFCURVE",
"16 141 CURVE SMOOTH",
"16 60 OFFCURVE",
"60 -2 OFFCURVE",
"139 -6 CURVE",
"139 -16 OFFCURVE",
"137 -40 OFFCURVE",
"137 -54 CURVE SMOOTH",
"139 -66 OFFCURVE",
"143 -74 OFFCURVE"
);
},
{
closed = 1;
nodes = (
"147 73 CURVE",
"125 82 OFFCURVE",
"124 108 OFFCURVE",
"124 142 CURVE SMOOTH",
"124 190 OFFCURVE",
"130 229 OFFCURVE",
"161 247 CURVE",
"157 190 OFFCURVE",
"151 130 OFFCURVE"
);
}
);
width = 306;
}
);
unicode = 00A2;
},
{
glyphname = currency;
lastChange = "2016-07-25 08:03:28 +0000";
layers = (
{
layerId = "1677BB6F-42BC-4502-A615-23038A63E498";
paths = (
{
closed = 1;
nodes = (
"382 119 CURVE SMOOTH",
"401 119 OFFCURVE",
"422 142 OFFCURVE",
"422 160 CURVE",
"423 172 OFFCURVE",
"414 183 OFFCURVE",
"400 196 CURVE SMOOTH",
"370 221 LINE",
"401 258 OFFCURVE",
"429 308 OFFCURVE",
"428 386 CURVE SMOOTH",
"427 405 OFFCURVE",
"423 423 OFFCURVE",
"417 440 CURVE",
"452 466 LINE",
"465 474 OFFCURVE",
"482 484 OFFCURVE",
"482 504 CURVE SMOOTH",
"482 522 OFFCURVE",
"466 543 OFFCURVE",
"446 543 CURVE SMOOTH",
"417 543 OFFCURVE",
"389 515 OFFCURVE",
"370 501 CURVE",
"348 515 OFFCURVE",
"321 525 OFFCURVE",
"282 525 CURVE SMOOTH",
"242 525 OFFCURVE",
"210 517 OFFCURVE",
"187 504 CURVE",
"149 538 LINE",
"137 547 OFFCURVE",
"125 554 OFFCURVE",
"115 554 CURVE SMOOTH",
"94 554 OFFCURVE",
"73 534 OFFCURVE",
"73 513 CURVE SMOOTH",
"73 497 OFFCURVE",
"86 486 OFFCURVE",
"96 477 CURVE SMOOTH",
"125 452 LINE",
"98 418 OFFCURVE",
"77 377 OFFCURVE",
"78 313 CURVE SMOOTH",
"78 287 OFFCURVE",
"83 264 OFFCURVE",
"93 241 CURVE",
"44 208 LINE",
"31 200 OFFCURVE",
"16 189 OFFCURVE",
"16 168 CURVE SMOOTH",
"16 149 OFFCURVE",
"30 130 OFFCURVE",
"50 130 CURVE SMOOTH",
"53 130 OFFCURVE",
"58 131 OFFCURVE",
"63 132 CURVE SMOOTH",
"91 143 OFFCURVE",
"116 163 OFFCURVE",
"139 181 CURVE",
"161 166 OFFCURVE",
"189 153 OFFCURVE",
"232 154 CURVE SMOOTH",
"264 155 OFFCURVE",
"286 163 OFFCURVE",
"306 172 CURVE",
"323 153 OFFCURVE",
"352 119 OFFCURVE"
);
},
{
closed = 1;
nodes = (
"238 234 CURVE SMOOTH",
"191 234 OFFCURVE",
"167 264 OFFCURVE",
"167 308 CURVE SMOOTH",
"167 390 OFFCURVE",
"200 448 OFFCURVE",
"279 448 CURVE SMOOTH",
"318 448 OFFCURVE",
"338 419 OFFCURVE",
"341 385 CURVE SMOOTH",
"341 310 OFFCURVE",
"309 234 OFFCURVE"
);
}
);
width = 503;
}
);
unicode = 00A4;
},
{
glyphname = dollar;
lastChange = "2016-07-25 08:03:28 +0000";
layers = (
{
layerId = "1677BB6F-42BC-4502-A615-23038A63E498";
paths = (
{
closed = 1;
nodes = (
"285 -78 CURVE SMOOTH",
"321 -84 OFFCURVE",
"334 -63 OFFCURVE",
"338 -39 CURVE SMOOTH",
"344 1 LINE",
"444 8 OFFCURVE",
"531 61 OFFCURVE",
"531 177 CURVE SMOOTH",
"531 265 OFFCURVE",
"460 306 OFFCURVE",
"404 338 CURVE",
"436 513 LINE",
"467 506 OFFCURVE",
"497 479 OFFCURVE",
"515 455 CURVE SMOOTH",
"559 398 OFFCURVE",
"602 455 OFFCURVE",
"590 482 CURVE SMOOTH",
"555 558 OFFCURVE",
"500 576 OFFCURVE",
"448 590 CURVE",
"452 617 LINE",
"456 637 OFFCURVE",
"456 679 OFFCURVE",
"427 679 CURVE SMOOTH",
"397 679 OFFCURVE",
"376 660 OFFCURVE",
"373 636 CURVE SMOOTH",
"367 597 LINE",
"255 599 OFFCURVE",
"148 550 OFFCURVE",
"153 433 CURVE SMOOTH",
"157 347 OFFCURVE",
"252 319 OFFCURVE",
"309 290 CURVE",
"268 70 LINE",
"218 78 OFFCURVE",
"184 112 OFFCURVE",
"185 149 CURVE SMOOTH",
"186 183 OFFCURVE",
"193 203 OFFCURVE",
"225 203 CURVE SMOOTH",
"245 203 OFFCURVE",
"258 216 OFFCURVE",
"258 234 CURVE SMOOTH",
"258 260 OFFCURVE",
"237 276 OFFCURVE",
"213 276 CURVE SMOOTH",
"134 276 OFFCURVE",
"84 224 OFFCURVE",
"84 148 CURVE SMOOTH",
"84 47 OFFCURVE",
"168 10 OFFCURVE",
"258 1 CURVE",
"251 -41 OFFCURVE",
"248 -72 OFFCURVE"
);
},
{
closed = 1;
nodes = (
"328 384 LINE",
"303 397 OFFCURVE",
"271 417 OFFCURVE",
"271 449 CURVE SMOOTH",
"271 489 OFFCURVE",
"299 513 OFFCURVE",
"353 515 CURVE"
);
},
{
closed = 1;
nodes = (
"351 68 CURVE",
"388 254 LINE",
"457 214 OFFCURVE",
"446 80 OFFCURVE"
);
}
);
width = 593;
}
);
unicode = 0024;
},
{
glyphname = florin;
lastChange = "2016-07-25 08:03:28 +0000";
layers = (
{
layerId = "1677BB6F-42BC-4502-A615-23038A63E498";
paths = (
{
closed = 1;
nodes = (
"189 -52 CURVE SMOOTH",
"349 -52 OFFCURVE",
"364 200 OFFCURVE",
"386 284 CURVE",
"479 284 LINE",
"503 284 OFFCURVE",
"521 302 OFFCURVE",
"521 328 CURVE SMOOTH",
"521 355 OFFCURVE",
"505 371 OFFCURVE",
"479 371 CURVE SMOOTH",
"400 371 LINE",
"409 423 OFFCURVE",
"426 532 OFFCURVE",
"485 532 CURVE SMOOTH",
"503 532 OFFCURVE",
"520 508 OFFCURVE",
"546 508 CURVE SMOOTH",
"575 508 OFFCURVE",
"593 542 OFFCURVE",
"593 568 CURVE SMOOTH",
"593 614 OFFCURVE",
"537 630 OFFCURVE",
"497 630 CURVE SMOOTH",
"349 630 OFFCURVE",
"313 492 OFFCURVE",
"300 371 CURVE",
"285 372 OFFCURVE",
"270 373 OFFCURVE",
"254 373 CURVE SMOOTH",
"224 373 OFFCURVE",
"197 365 OFFCURVE",
"197 328 CURVE SMOOTH",
"197 301 OFFCURVE",
"212 284 OFFCURVE",
"238 284 CURVE SMOOTH",
"287 284 LINE",
"280 228 OFFCURVE",
"284 249 OFFCURVE",
"276 206 CURVE SMOOTH",
"269 157 OFFCURVE",
"254 46 OFFCURVE",
"194 46 CURVE SMOOTH",
"186 46 OFFCURVE",
"176 69 OFFCURVE",
"157 69 CURVE SMOOTH",
"129 69 OFFCURVE",
"110 36 OFFCURVE",
"110 10 CURVE SMOOTH",
"110 -33 OFFCURVE",
"153 -52 OFFCURVE"
);
}
);
width = 449;
}
);
unicode = 0192;
},
{
glyphname = sterling;
lastChange = "2016-07-25 08:03:28 +0000";
layers = (
{
layerId = "1677BB6F-42BC-4502-A615-23038A63E498";
paths = (
{
closed = 1;
nodes = (
"155 56 OFFCURVE",
"154 47 OFFCURVE",
"154 39 CURVE SMOOTH",
"154 5 OFFCURVE",
"172 -7 OFFCURVE",
"213 -7 CURVE SMOOTH",
"444 -5 LINE SMOOTH",
"471 -5 OFFCURVE",
"484 19 OFFCURVE",
"484 42 CURVE SMOOTH",
"484 62 OFFCURVE",
"474 81 OFFCURVE",
"457 81 CURVE SMOOTH",
"263 81 LINE",
"296 272 LINE",
"392 272 LINE SMOOTH",
"414 272 OFFCURVE",
"424 293 OFFCURVE",
"424 313 CURVE SMOOTH",
"424 330 OFFCURVE",
"417 345 OFFCURVE",
"404 345 CURVE SMOOTH",
"305 345 LINE",
"321 435 LINE SMOOTH",
"328 477 OFFCURVE",
"366 505 OFFCURVE",
"407 505 CURVE SMOOTH",
"428 505 OFFCURVE",
"450 498 OFFCURVE",
"469 482 CURVE SMOOTH",
"484 470 OFFCURVE",
"495 455 OFFCURVE",
"509 455 CURVE SMOOTH",
"525 455 OFFCURVE",
"553 471 OFFCURVE",
"553 495 CURVE SMOOTH",
"553 504 OFFCURVE",
"549 514 OFFCURVE",
"543 523 CURVE SMOOTH",
"514 568 OFFCURVE",
"458 593 OFFCURVE",
"401 593 CURVE SMOOTH",
"325 593 OFFCURVE",
"247 550 OFFCURVE",
"225 451 CURVE SMOOTH",
"202 345 LINE",
"156 345 LINE",
"135 345 OFFCURVE",
"123 323 OFFCURVE",
"123 304 CURVE SMOOTH",
"123 287 OFFCURVE",
"131 272 OFFCURVE",
"148 272 CURVE SMOOTH",
"193 272 LINE",
"157 66 LINE SMOOTH"
);
}
);
width = 514;
}
);
unicode = 00A3;
},
{
glyphname = yen;
lastChange = "2016-07-25 08:03:28 +0000";
layers = (
{
layerId = "1677BB6F-42BC-4502-A615-23038A63E498";
paths = (
{
closed = 1;
nodes = (
"182 -17 OFFCURVE",
"286 -31 OFFCURVE",
"304 24 CURVE SMOOTH",
"339 133 LINE",
"438 133 LINE SMOOTH",
"469 133 OFFCURVE",
"484 139 OFFCURVE",
"486 165 CURVE SMOOTH",
"487 179 OFFCURVE",
"474 185 OFFCURVE",
"455 185 CURVE SMOOTH",
"354 185 LINE",
"368 227 LINE",
"459 227 LINE SMOOTH",
"491 227 OFFCURVE",
"502 236 OFFCURVE",
"503 253 CURVE SMOOTH",
"505 276 OFFCURVE",
"484 277 OFFCURVE",
"465 277 CURVE SMOOTH",
"415 277 LINE",
"572 502 LINE SMOOTH",
"616 564 OFFCURVE",
"526 615 OFFCURVE",
"486 552 CURVE SMOOTH",
"337 320 LINE",
"272 553 LINE SMOOTH",
"255 615 OFFCURVE",
"152 588 OFFCURVE",
"171 524 CURVE SMOOTH",
"245 281 LINE",
"170 281 LINE SMOOTH",
"147 281 OFFCURVE",
"128 281 OFFCURVE",
"124 255 CURVE SMOOTH",
"121 237 OFFCURVE",
"138 227 OFFCURVE",
"166 227 CURVE SMOOTH",
"255 227 LINE",
"242 185 LINE",
"152 185 LINE SMOOTH",
"127 185 OFFCURVE",
"113 179 OFFCURVE",
"111 162 CURVE SMOOTH",
"108 141 OFFCURVE",
"127 133 OFFCURVE",
"145 133 CURVE SMOOTH",
"226 133 LINE",
"202 51 LINE SMOOTH"
);
}
);
width = 508;
}
);
unicode = 00A5;
},
{
glyphname = bulletoperator;
lastChange = "2016-07-25 08:03:28 +0000";
layers = (
{
layerId = "1677BB6F-42BC-4502-A615-23038A63E498";
paths = (
{
closed = 1;
nodes = (
"121 459 CURVE SMOOTH",
"148 459 OFFCURVE",
"174 484 OFFCURVE",
"174 513 CURVE SMOOTH",
"174 536 OFFCURVE",
"152 557 OFFCURVE",
"126 557 CURVE SMOOTH",
"100 557 OFFCURVE",
"74 532 OFFCURVE",
"74 505 CURVE SMOOTH",
"74 480 OFFCURVE",
"98 459 OFFCURVE"
);
}
);
width = 205;
}
);
unicode = 2219;
},
{
glyphname = plus;
lastChange = "2016-07-25 08:03:28 +0000";
layers = (
{
layerId = "1677BB6F-42BC-4502-A615-23038A63E498";
paths = (
{
closed = 1;
nodes = (
"263 17 CURVE SMOOTH",
"288 17 OFFCURVE",
"300 41 OFFCURVE",
"300 66 CURVE SMOOTH",
"300 138 LINE",
"375 138 LINE",
"399 138 OFFCURVE",
"419 154 OFFCURVE",
"419 180 CURVE SMOOTH",
"419 199 OFFCURVE",
"403 212 OFFCURVE",
"381 212 CURVE SMOOTH",
"300 212 LINE",
"300 292 LINE",
"300 314 OFFCURVE",
"287 330 OFFCURVE",
"267 330 CURVE SMOOTH",
"243 330 OFFCURVE",
"226 310 OFFCURVE",
"226 286 CURVE SMOOTH",
"226 212 LINE",
"155 212 LINE",
"130 212 OFFCURVE",
"105 200 OFFCURVE",
"105 175 CURVE SMOOTH",
"105 148 OFFCURVE",
"129 138 OFFCURVE",
"153 138 CURVE SMOOTH",
"226 138 LINE",
"226 64 LINE",
"226 40 OFFCURVE",
"236 17 OFFCURVE"
);
}
);
width = 514;
}
);
unicode = 002B;
},
{
glyphname = minus;
lastChange = "2016-07-25 08:03:28 +0000";
layers = (
{
layerId = "1677BB6F-42BC-4502-A615-23038A63E498";
paths = (
{
closed = 1;
nodes = (
"107 193 CURVE SMOOTH",
"313 193 LINE",
"340 193 OFFCURVE",
"354 209 OFFCURVE",
"354 236 CURVE SMOOTH",
"354 255 OFFCURVE",
"338 267 OFFCURVE",
"317 267 CURVE SMOOTH",
"113 267 LINE",
"88 267 OFFCURVE",
"61 254 OFFCURVE",
"61 228 CURVE SMOOTH",
"61 205 OFFCURVE",
"84 193 OFFCURVE"
);
}
);
width = 416;
}
);
unicode = 2212;
},
{
glyphname = multiply;
lastChange = "2016-07-25 08:03:28 +0000";
layers = (
{
layerId = "1677BB6F-42BC-4502-A615-23038A63E498";
paths = (
{
closed = 1;
nodes = (
"321 54 CURVE SMOOTH",
"340 54 OFFCURVE",
"354 67 OFFCURVE",
"354 86 CURVE SMOOTH",
"354 102 OFFCURVE",
"346 114 OFFCURVE",
"336 124 CURVE",
"289 175 LINE",
"338 227 LINE",
"345 236 OFFCURVE",
"352 246 OFFCURVE",
"352 260 CURVE SMOOTH",
"352 280 OFFCURVE",
"338 298 OFFCURVE",
"318 298 CURVE SMOOTH",
"307 298 OFFCURVE",
"298 291 OFFCURVE",
"290 285 CURVE",
"236 224 LINE",
"180 284 LINE",
"171 294 OFFCURVE",
"162 297 OFFCURVE",
"152 297 CURVE SMOOTH",
"132 297 OFFCURVE",
"119 279 OFFCURVE",
"119 259 CURVE SMOOTH",
"119 245 OFFCURVE",
"125 234 OFFCURVE",
"132 227 CURVE SMOOTH",
"184 175 LINE",
"134 125 LINE",
"124 116 OFFCURVE",
"116 103 OFFCURVE",
"116 87 CURVE SMOOTH",
"116 68 OFFCURVE",
"130 54 OFFCURVE",
"149 54 CURVE SMOOTH",
"165 54 OFFCURVE",
"177 63 OFFCURVE",
"186 73 CURVE SMOOTH",
"236 126 LINE",
"286 71 LINE",
"294 60 OFFCURVE",
"306 54 OFFCURVE"
);
}
);
width = 438;
}
);
unicode = 00D7;
},
{
glyphname = divide;
lastChange = "2016-07-25 08:03:28 +0000";
layers = (
{
layerId = "1677BB6F-42BC-4502-A615-23038A63E498";
paths = (
{
closed = 1;
nodes = (
"188 181 CURVE SMOOTH",
"381 181 LINE",
"411 181 OFFCURVE",
"426 198 OFFCURVE",
"426 228 CURVE SMOOTH",
"426 249 OFFCURVE",
"409 260 OFFCURVE",
"386 260 CURVE SMOOTH",
"194 260 LINE",
"165 260 OFFCURVE",
"135 245 OFFCURVE",
"135 217 CURVE SMOOTH",
"135 192 OFFCURVE",
"160 181 OFFCURVE"
);
},
{
closed = 1;
nodes = (
"255 7 CURVE SMOOTH",
"296 7 OFFCURVE",
"320 32 OFFCURVE",
"320 72 CURVE SMOOTH",
"320 109 OFFCURVE",
"298 128 OFFCURVE",
"263 128 CURVE SMOOTH",
"223 128 OFFCURVE",
"198 102 OFFCURVE",
"198 62 CURVE SMOOTH",
"198 25 OFFCURVE",
"218 7 OFFCURVE"
);
},
{
closed = 1;
nodes = (
"303 315 CURVE SMOOTH",
"345 315 OFFCURVE",
"368 340 OFFCURVE",
"368 381 CURVE SMOOTH",
"368 416 OFFCURVE",
"346 436 OFFCURVE",
"310 436 CURVE SMOOTH",
"270 436 OFFCURVE",
"246 411 OFFCURVE",
"246 370 CURVE SMOOTH",
"246 334 OFFCURVE",
"267 315 OFFCURVE"
);
}
);
width = 474;
}
);
unicode = 00F7;
},
{
glyphname = equal;
lastChange = "2016-07-25 08:03:28 +0000";
layers = (
{
layerId = "1677BB6F-42BC-4502-A615-23038A63E498";
paths = (
{
closed = 1;
nodes = (
"113 104 OFFCURVE",
"137 92 OFFCURVE",
"177 92 CURVE SMOOTH",
"508 92 LINE SMOOTH",
"548 92 OFFCURVE",
"568 106 OFFCURVE",
"560 141 CURVE SMOOTH",
"555 162 OFFCURVE",
"541 168 OFFCURVE",
"507 168 CURVE SMOOTH",
"179 168 LINE SMOOTH",
"140 168 OFFCURVE",
"113 165 OFFCURVE",
"113 142 CURVE SMOOTH"
);
},
{
closed = 1;
nodes = (
"121 248 OFFCURVE",
"145 239 OFFCURVE",
"173 239 CURVE SMOOTH",
"500 239 LINE SMOOTH",
"548 239 OFFCURVE",
"568 247 OFFCURVE",
"568 287 CURVE SMOOTH",
"568 318 OFFCURVE",
"547 322 OFFCURVE",
"512 322 CURVE SMOOTH",
"448 322 OFFCURVE",
"253 319 OFFCURVE",
"198 319 CURVE",
"160 320 OFFCURVE",
"121 322 OFFCURVE",
"121 277 CURVE SMOOTH"
);
}
);
width = 583;
}
);
unicode = 003D;
},
{
glyphname = greater;
lastChange = "2016-07-25 08:03:28 +0000";
layers = (
{
layerId = "1677BB6F-42BC-4502-A615-23038A63E498";
paths = (
{
closed = 1;
nodes = (
"63 39 OFFCURVE",
"86 32 OFFCURVE",
"135 50 CURVE SMOOTH",
"310 115 LINE SMOOTH",
"375 139 OFFCURVE",
"388 149 OFFCURVE",
"388 198 CURVE SMOOTH",
"388 262 OFFCURVE",
"343 272 OFFCURVE",
"317 282 CURVE SMOOTH",
"114 362 LINE SMOOTH",
"61 383 OFFCURVE",
"41 352 OFFCURVE",
"41 304 CURVE SMOOTH",
"41 281 OFFCURVE",
"56 274 OFFCURVE",
"70 270 CURVE SMOOTH",
"275 205 LINE",
"85 138 LINE SMOOTH",
"58 128 OFFCURVE",
"27 112 OFFCURVE",
"52 61 CURVE SMOOTH"
);
}
);
width = 404;
}
);
unicode = 003E;
},
{
glyphname = less;
lastChange = "2016-07-25 08:03:28 +0000";
layers = (
{
layerId = "1677BB6F-42BC-4502-A615-23038A63E498";
paths = (
{
closed = 1;
nodes = (
"402 112 OFFCURVE",
"371 128 OFFCURVE",
"344 138 CURVE SMOOTH",
"154 205 LINE",
"359 270 LINE SMOOTH",
"373 274 OFFCURVE",
"388 281 OFFCURVE",
"388 304 CURVE SMOOTH",
"388 352 OFFCURVE",
"368 383 OFFCURVE",
"315 362 CURVE SMOOTH",
"112 282 LINE SMOOTH",
"86 272 OFFCURVE",
"41 262 OFFCURVE",
"41 198 CURVE SMOOTH",
"41 149 OFFCURVE",
"54 139 OFFCURVE",
"119 115 CURVE SMOOTH",
"294 50 LINE SMOOTH",
"343 32 OFFCURVE",
"366 39 OFFCURVE",
"377 61 CURVE SMOOTH"
);
}
);
width = 404;
}
);
unicode = 003C;
},
{
glyphname = greaterequal;
lastChange = "2016-07-25 08:03:28 +0000";
layers = (
{
components = (
{
name = greater;
transform = "{1, 0, 0, 1, 111, 58}";
}
);
layerId = "1677BB6F-42BC-4502-A615-23038A63E498";
paths = (
{
closed = 1;
nodes = (
"142 -4 OFFCURVE",
"156 -19 OFFCURVE",
"188 -19 CURVE SMOOTH",
"424 -19 LINE SMOOTH",
"467 -19 OFFCURVE",
"476 -4 OFFCURVE",
"472 27 CURVE SMOOTH",
"469 53 OFFCURVE",
"451 57 OFFCURVE",
"430 57 CURVE SMOOTH",
"203 57 LINE SMOOTH",
"169 57 OFFCURVE",
"151 55 OFFCURVE",
"146 23 CURVE SMOOTH"
);
}
);
width = 579;
}
);
unicode = 2265;
},
{
glyphname = lessequal;
lastChange = "2016-07-25 08:03:28 +0000";
layers = (
{
components = (
{
name = less;
transform = "{1, 0, 0, 1, 98, 44}";
}
);
layerId = "1677BB6F-42BC-4502-A615-23038A63E498";
paths = (
{
closed = 1;
nodes = (
"138 -30 OFFCURVE",
"149 -38 OFFCURVE",
"194 -38 CURVE SMOOTH",
"405 -36 LINE SMOOTH",
"454 -36 OFFCURVE",
"464 -19 OFFCURVE",
"460 17 CURVE SMOOTH",
"457 40 OFFCURVE",
"445 45 OFFCURVE",
"415 45 CURVE SMOOTH",
"193 45 LINE SMOOTH",
"165 45 OFFCURVE",
"142 43 OFFCURVE",
"140 4 CURVE SMOOTH"
);
}
);
width = 526;
}
);
unicode = 2264;
},
{
glyphname = plusminus;
lastChange = "2016-07-25 08:03:28 +0000";
layers = (
{
layerId = "1677BB6F-42BC-4502-A615-23038A63E498";
paths = (
{
closed = 1;
nodes = (
"263 125 CURVE SMOOTH",
"288 125 OFFCURVE",
"300 150 OFFCURVE",
"300 175 CURVE SMOOTH",
"300 225 LINE",
"357 225 LINE",
"381 225 OFFCURVE",
"401 241 OFFCURVE",
"401 267 CURVE SMOOTH",
"401 286 OFFCURVE",
"385 299 OFFCURVE",
"363 299 CURVE SMOOTH",
"300 299 LINE",
"300 359 LINE",
"300 381 OFFCURVE",
"287 398 OFFCURVE",
"267 398 CURVE SMOOTH",
"243 398 OFFCURVE",
"226 377 OFFCURVE",
"226 353 CURVE SMOOTH",
"226 299 LINE",
"166 299 LINE",
"141 299 OFFCURVE",
"125 287 OFFCURVE",
"125 262 CURVE SMOOTH",
"125 235 OFFCURVE",
"140 225 OFFCURVE",
"164 225 CURVE SMOOTH",
"226 225 LINE",
"226 174 LINE",
"226 148 OFFCURVE",
"236 125 OFFCURVE"
);
},
{
closed = 1;
nodes = (
"184 -18 CURVE SMOOTH",
"324 -18 LINE",
"349 -17 OFFCURVE",
"357 2 OFFCURVE",
"357 24 CURVE SMOOTH",
"357 41 OFFCURVE",
"344 54 OFFCURVE",
"318 54 CURVE SMOOTH",
"184 54 LINE SMOOTH",
"144 54 OFFCURVE",
"146 -18 OFFCURVE"
);
}
);
width = 514;
}
);
unicode = 00B1;
},
{
glyphname = asciitilde;
lastChange = "2016-07-25 08:03:28 +0000";
layers = (
{
layerId = "1677BB6F-42BC-4502-A615-23038A63E498";
paths = (
{
closed = 1;
nodes = (
"249 438 CURVE SMOOTH",
"292 438 OFFCURVE",
"337 491 OFFCURVE",
"337 532 CURVE SMOOTH",
"337 550 OFFCURVE",
"322 561 OFFCURVE",
"305 561 CURVE SMOOTH",
"270 561 OFFCURVE",
"256 526 OFFCURVE",
"243 506 CURVE",
"211 539 LINE",
"192 558 OFFCURVE",
"172 589 OFFCURVE",
"134 589 CURVE SMOOTH",
"91 589 OFFCURVE",
"46 537 OFFCURVE",
"46 496 CURVE SMOOTH",
"46 478 OFFCURVE",
"62 467 OFFCURVE",
"78 467 CURVE SMOOTH",
"111 467 OFFCURVE",
"127 501 OFFCURVE",
"140 521 CURVE",
"172 489 LINE",
"191 469 OFFCURVE",
"210 438 OFFCURVE"
);
}
);
width = 295;
}
);
unicode = 007E;
},
{
glyphname = logicalnot;
lastChange = "2016-07-25 08:03:28 +0000";
layers = (
{
layerId = "1677BB6F-42BC-4502-A615-23038A63E498";
paths = (
{
closed = 1;
nodes = (
"312 70 CURVE SMOOTH",
"339 70 OFFCURVE",
"350 96 OFFCURVE",
"352 121 CURVE SMOOTH",
"359 236 LINE",
"359 256 OFFCURVE",
"342 268 OFFCURVE",
"321 268 CURVE SMOOTH",
"105 268 LINE",
"79 268 OFFCURVE",
"53 255 OFFCURVE",
"53 228 CURVE SMOOTH",
"53 204 OFFCURVE",
"76 192 OFFCURVE",
"100 192 CURVE SMOOTH",
"281 192 LINE",
"273 65 OFFCURVE",
"276 118 OFFCURVE",
"276 115 CURVE SMOOTH",
"276 91 OFFCURVE",
"287 70 OFFCURVE"
);
}
);
width = 416;
}
);
unicode = 00AC;
},
{
glyphname = emptyset;
lastChange = "2016-07-25 08:03:28 +0000";
layers = (
{
layerId = "1677BB6F-42BC-4502-A615-23038A63E498";
paths = (
{
closed = 1;
nodes = (
"215 -102 CURVE SMOOTH",
"265 36 LINE",
"466 32 OFFCURVE",
"534 393 OFFCURVE",
"395 444 CURVE",
"443 592 LINE",
"456 625 OFFCURVE",
"418 640 OFFCURVE",
"405 601 CURVE SMOOTH",
"353 448 LINE",
"244 442 OFFCURVE",
"150 305 OFFCURVE",
"150 179 CURVE SMOOTH",
"150 116 OFFCURVE",
"174 66 OFFCURVE",
"221 46 CURVE",
"177 -91 LINE",
"170 -115 OFFCURVE",
"207 -127 OFFCURVE"
);
},
{
closed = 1;
nodes = (
"252 137 LINE",
"238 153 OFFCURVE",
"232 177 OFFCURVE",
"232 200 CURVE SMOOTH",
"232 267 OFFCURVE",
"274 340 OFFCURVE",
"324 357 CURVE"
);
},
{
closed = 1;
nodes = (
"292 125 CURVE",
"365 352 LINE",
"409 308 OFFCURVE",
"370 129 OFFCURVE"
);
}
);
width = 462;
}
);
unicode = 2205;
},
{
glyphname = infinity;
lastChange = "2016-07-25 08:03:28 +0000";
layers = (
{
layerId = "1677BB6F-42BC-4502-A615-23038A63E498";
paths = (
{
closed = 1;
nodes = (
"142 224 CURVE SMOOTH",
"145 135 OFFCURVE",
"203 101 OFFCURVE",
"285 106 CURVE SMOOTH",
"342 108 OFFCURVE",
"385 152 OFFCURVE",
"410 194 CURVE",
"455 136 OFFCURVE",
"488 87 OFFCURVE",
"576 107 CURVE SMOOTH",
"648 123 OFFCURVE",
"669 189 OFFCURVE",
"672 245 CURVE SMOOTH",
"679 341 OFFCURVE",
"614 411 OFFCURVE",
"523 388 CURVE SMOOTH",
"466 373 OFFCURVE",
"424 321 OFFCURVE",
"411 288 CURVE",
"376 341 OFFCURVE",
"335 391 OFFCURVE",
"258 387 CURVE SMOOTH",
"174 382 OFFCURVE",
"139 314 OFFCURVE"
);
},
{
closed = 1;
nodes = (
"225 250 CURVE SMOOTH",
"228 285 OFFCURVE",
"253 296 OFFCURVE",
"269 296 CURVE SMOOTH",
"308 295 OFFCURVE",
"342 269 OFFCURVE",
"359 240 CURVE",
"345 220 OFFCURVE",
"320 185 OFFCURVE",
"277 190 CURVE SMOOTH",
"247 196 OFFCURVE",
"223 204 OFFCURVE"
);
},
{
closed = 1;
nodes = (
"462 238 CURVE",
"476 256 OFFCURVE",
"516 299 OFFCURVE",
"536 303 CURVE SMOOTH",
"574 308 OFFCURVE",
"589 284 OFFCURVE",
"592 244 CURVE SMOOTH",
"593 234 OFFCURVE",
"575 211 OFFCURVE",
"551 205 CURVE SMOOTH",
"524 197 OFFCURVE",
"466 231 OFFCURVE"
);
}
);
width = 695;
}
);
unicode = 221E;
},
{
glyphname = integral;
lastChange = "2016-07-25 08:03:28 +0000";
layers = (
{
layerId = "1677BB6F-42BC-4502-A615-23038A63E498";
paths = (
{
closed = 1;
nodes = (
"181 -49 CURVE SMOOTH",
"342 -49 OFFCURVE",
"360 166 OFFCURVE",
"375 293 CURVE SMOOTH",
"393 428 OFFCURVE",
"406 537 OFFCURVE",
"475 537 CURVE SMOOTH",
"495 537 OFFCURVE",
"509 513 OFFCURVE",
"536 513 CURVE SMOOTH",
"562 513 OFFCURVE",
"580 546 OFFCURVE",
"580 572 CURVE SMOOTH",
"580 618 OFFCURVE",
"525 633 OFFCURVE",
"486 633 CURVE SMOOTH",
"333 633 OFFCURVE",
"306 488 OFFCURVE",
"281 296 CURVE SMOOTH",
"256 119 OFFCURVE",
"265 47 OFFCURVE",
"187 47 CURVE SMOOTH",
"177 47 OFFCURVE",
"165 71 OFFCURVE",
"149 71 CURVE SMOOTH",
"122 71 OFFCURVE",
"104 38 OFFCURVE",
"104 13 CURVE SMOOTH",
"104 -31 OFFCURVE",
"144 -49 OFFCURVE"
);
}
);
width = 470;
}
);
unicode = 222B;
},
{
glyphname = product;
lastChange = "2016-07-25 08:03:28 +0000";
layers = (
{
layerId = "1677BB6F-42BC-4502-A615-23038A63E498";
paths = (
{
closed = 1;
nodes = (
"133 629 CURVE SMOOTH",
"78 622 OFFCURVE",
"87 521 OFFCURVE",
"141 531 CURVE SMOOTH",
"185 537 OFFCURVE",
"206 543 OFFCURVE",
"289 542 CURVE",
"127 203 OFFCURVE",
"131 -10 OFFCURVE",
"140 -43 CURVE SMOOTH",
"161 -129 OFFCURVE",
"255 -129 OFFCURVE",
"270 -38 CURVE SMOOTH",
"277 4 OFFCURVE",
"251 150 OFFCURVE",
"378 542 CURVE",
"409 540 OFFCURVE",
"444 541 OFFCURVE",
"484 540 CURVE SMOOTH",
"545 538 OFFCURVE",
"606 537 OFFCURVE",
"647 536 CURVE",
"514 178 OFFCURVE",
"518 -11 OFFCURVE",
"525 -43 CURVE SMOOTH",
"549 -129 OFFCURVE",
"641 -129 OFFCURVE",
"656 -38 CURVE SMOOTH",
"663 6 OFFCURVE",
"612 161 OFFCURVE",
"738 534 CURVE",
"780 534 OFFCURVE",
"844 535 OFFCURVE",
"865 537 CURVE SMOOTH",
"901 541 OFFCURVE",
"927 637 OFFCURVE",
"860 637 CURVE SMOOTH",
"496 637 OFFCURVE",
"319 654 OFFCURVE"
);
}
);
width = 772;
}
);
unicode = 220F;
},
{
glyphname = summation;
lastChange = "2016-07-25 08:03:28 +0000";
layers = (
{
layerId = "1677BB6F-42BC-4502-A615-23038A63E498";
paths = (
{
closed = 1;
nodes = (
"416 658 CURVE SMOOTH",
"325 658 OFFCURVE",
"263 649 OFFCURVE",
"206 627 CURVE SMOOTH",
"155 607 OFFCURVE",
"178 529 OFFCURVE",
"236 549 CURVE",
"255 545 OFFCURVE",
"269 560 OFFCURVE",
"289 564 CURVE",
"434 317 LINE",
"248 153 OFFCURVE",
"129 62 OFFCURVE",
"133 21 CURVE SMOOTH",
"138 -17 OFFCURVE",
"188 -27 OFFCURVE",
"230 16 CURVE",
"374 -30 OFFCURVE",
"530 -89 OFFCURVE",
"740 4 CURVE",
"783 21 OFFCURVE",
"754 98 OFFCURVE",
"710 79 CURVE SMOOTH",
"599 33 OFFCURVE",
"497 9 OFFCURVE",
"286 86 CURVE",
"353 150 OFFCURVE",
"445 213 OFFCURVE",
"544 303 CURVE",
"385 574 LINE",
"399 574 OFFCURVE",
"414 574 OFFCURVE",
"432 574 CURVE SMOOTH",
"501 574 OFFCURVE",
"622 569 OFFCURVE",
"689 571 CURVE SMOOTH",
"777 573 OFFCURVE",
"785 589 OFFCURVE",
"785 613 CURVE",
"785 647 OFFCURVE",
"763 661 OFFCURVE",
"737 659 CURVE SMOOTH",
"607 649 OFFCURVE",
"541 658 OFFCURVE"
);
}
);
width = 815;
}
);
unicode = 2211;
},
{
glyphname = radical;
lastChange = "2016-07-25 08:03:28 +0000";
layers = (
{
layerId = "1677BB6F-42BC-4502-A615-23038A63E498";
paths = (
{
closed = 1;
nodes = (
"699 635 OFFCURVE",
"689 613 OFFCURVE",
"663 569 CURVE SMOOTH",
"383 100 LINE",
"328 239 LINE SMOOTH",
"313 275 OFFCURVE",
"311 298 OFFCURVE",
"288 296 CURVE",
"174 295 LINE SMOOTH",
"123 295 OFFCURVE",
"116 219 OFFCURVE",
"166 219 CURVE SMOOTH",
"241 219 LINE",
"333 4 LINE SMOOTH",
"347 -29 OFFCURVE",
"384 -28 OFFCURVE",
"400 -2 CURVE SMOOTH",
"729 539 LINE SMOOTH",
"758 586 OFFCURVE",
"764 610 OFFCURVE",
"730 623 CURVE SMOOTH"
);
}
);
width = 711.913;
}
);
unicode = 221A;
},
{
glyphname = partialdiff;
lastChange = "2016-07-25 08:03:28 +0000";
layers = (
{
layerId = "1677BB6F-42BC-4502-A615-23038A63E498";
paths = (
{
closed = 1;
nodes = (
"256 0 CURVE SMOOTH",
"398 6 OFFCURVE",
"494 138 OFFCURVE",
"484 328 CURVE SMOOTH",
"479 431 OFFCURVE",
"428 605 OFFCURVE",
"263 605 CURVE SMOOTH",
"208 605 OFFCURVE",
"193 544 OFFCURVE",
"245 532 CURVE SMOOTH",
"339 510 OFFCURVE",
"375 455 OFFCURVE",
"375 339 CURVE",
"253 334 OFFCURVE",
"104 302 OFFCURVE",
"104 142 CURVE SMOOTH",
"104 52 OFFCURVE",
"158 -4 OFFCURVE"
);
},
{
closed = 1;
nodes = (
"204 54 OFFCURVE",
"196 143 CURVE SMOOTH",
"188 229 OFFCURVE",
"299 280 OFFCURVE",
"375 260 CURVE",
"383 59 OFFCURVE"
);
}
);
width = 478.004;
}
);
unicode = 2202;
},
{
glyphname = percent;
lastChange = "2016-07-25 08:03:28 +0000";
layers = (
{
layerId = "1677BB6F-42BC-4502-A615-23038A63E498";
paths = (
{
closed = 1;
nodes = (
"155 216 CURVE SMOOTH",
"172 216 OFFCURVE",
"189 219 OFFCURVE",
"206 227 CURVE SMOOTH",
"278 257 OFFCURVE",
"330 341 OFFCURVE",
"330 441 CURVE SMOOTH",
"330 526 OFFCURVE",
"290 589 OFFCURVE",
"203 589 CURVE SMOOTH",
"88 589 OFFCURVE",
"27 489 OFFCURVE",
"27 376 CURVE SMOOTH",
"27 291 OFFCURVE",
"69 216 OFFCURVE"
);
},
{
closed = 1;
nodes = (
"164 295 CURVE SMOOTH",
"137 295 OFFCURVE",
"133 348 OFFCURVE",
"133 383 CURVE SMOOTH",
"133 440 OFFCURVE",
"149 511 OFFCURVE",
"192 511 CURVE SMOOTH",
"220 511 OFFCURVE",
"227 478 OFFCURVE",
"227 441 CURVE SMOOTH",
"227 389 OFFCURVE",
"207 295 OFFCURVE"
);
},
{
closed = 1;
nodes = (
"303 44 CURVE SMOOTH",
"257 -36 OFFCURVE",
"593 567 OFFCURVE",
"567 521 CURVE",
"610 596 OFFCURVE",
"552 632 OFFCURVE",
"516 569 CURVE SMOOTH",
"226 78 LINE",
"186 8 OFFCURVE",
"262 -30 OFFCURVE"
);
},
{
closed = 1;
nodes = (
"600 74 CURVE SMOOTH",
"576 74 OFFCURVE",
"571 114 OFFCURVE",
"571 148 CURVE SMOOTH",
"571 205 OFFCURVE",
"583 285 OFFCURVE",
"630 285 CURVE SMOOTH",
"654 285 OFFCURVE",
"659 236 OFFCURVE",
"659 201 CURVE SMOOTH",
"659 153 OFFCURVE",
"639 74 OFFCURVE"
);
},
{
closed = 1;
nodes = (
"592 -6 CURVE SMOOTH",
"697 -6 OFFCURVE",
"760 97 OFFCURVE",
"760 208 CURVE SMOOTH",
"760 293 OFFCURVE",
"726 365 OFFCURVE",
"640 365 CURVE SMOOTH",
"522 365 OFFCURVE",
"465 258 OFFCURVE",
"465 141 CURVE SMOOTH",
"465 59 OFFCURVE",
"507 -6 OFFCURVE"
);
}
);
width = 783;
}
);
unicode = 0025;
},
{
glyphname = perthousand;
lastChange = "2016-07-25 08:03:28 +0000";
layers = (
{
layerId = "1677BB6F-42BC-4502-A615-23038A63E498";
paths = (
{
closed = 1;
nodes = (
"169 239 CURVE SMOOTH",
"269 236 OFFCURVE",
"338 303 OFFCURVE",
"344 437 CURVE SMOOTH",
"348 524 OFFCURVE",
"301 608 OFFCURVE",
"210 610 CURVE SMOOTH",
"95 613 OFFCURVE",
"32 508 OFFCURVE",
"32 395 CURVE SMOOTH",
"32 309 OFFCURVE",
"78 241 OFFCURVE"
);
},
{
closed = 1;
nodes = (
"295 -7 CURVE SMOOTH",
"371 144 OFFCURVE",
"522 446 OFFCURVE",
"571 546 CURVE SMOOTH",
"588 585 OFFCURVE",
"526 637 OFFCURVE",
"496 579 CURVE SMOOTH",
"446 480 OFFCURVE",
"295 175 OFFCURVE",
"224 34 CURVE SMOOTH",
"184 -42 OFFCURVE",
"267 -63 OFFCURVE"
);
},
{
closed = 1;
nodes = (
"571 -22 CURVE SMOOTH",
"671 -33 OFFCURVE",
"743 46 OFFCURVE",
"750 173 CURVE SMOOTH",
"755 254 OFFCURVE",
"713 338 OFFCURVE",
"628 348 CURVE SMOOTH",
"515 361 OFFCURVE",
"446 259 OFFCURVE",
"442 147 CURVE SMOOTH",
"439 60 OFFCURVE",
"488 -14 OFFCURVE"
);
},
{
closed = 1;
nodes = (
"918 -25 CURVE SMOOTH",
"1020 -31 OFFCURVE",
"1090 48 OFFCURVE",
"1095 176 CURVE SMOOTH",
"1098 257 OFFCURVE",
"1053 341 OFFCURVE",
"969 347 CURVE SMOOTH",
"853 356 OFFCURVE",
"789 251 OFFCURVE",
"787 141 CURVE SMOOTH",
"785 54 OFFCURVE",
"834 -19 OFFCURVE"
);
},
{
closed = 1;
nodes = (
"173 314 CURVE SMOOTH",
"96 316 OFFCURVE",
"107 534 OFFCURVE",
"206 531 CURVE SMOOTH",
"282 528 OFFCURVE",
"279 312 OFFCURVE"
);
},
{
closed = 1;
nodes = (
"581 52 CURVE SMOOTH",
"499 62 OFFCURVE",
"519 281 OFFCURVE",
"617 271 CURVE",
"692 264 OFFCURVE",
"674 42 OFFCURVE"
);
},
{
closed = 1;
nodes = (
"927 50 CURVE SMOOTH",
"846 56 OFFCURVE",
"863 276 OFFCURVE",
"961 270 CURVE SMOOTH",
"1036 265 OFFCURVE",
"1022 43 OFFCURVE"
);
}
);
width = 1104;
}
);
unicode = 2030;
},
{
glyphname = lozenge;
lastChange = "2016-07-25 08:03:28 +0000";
layers = (
{
layerId = "1677BB6F-42BC-4502-A615-23038A63E498";
paths = (
{
closed = 1;
nodes = (
"402 476 LINE",
"388 511 OFFCURVE",
"337 530 OFFCURVE",
"307 484 CURVE SMOOTH",
"249 396 OFFCURVE",
"201 328 OFFCURVE",
"152 253 CURVE",
"242 28 LINE",
"256 -7 OFFCURVE",
"306 -26 OFFCURVE",
"336 21 CURVE SMOOTH",
"394 110 OFFCURVE",
"439 173 OFFCURVE",
"489 248 CURVE"
);
},
{
closed = 1;
nodes = (
"237 253 LINE",
"273 310 OFFCURVE",
"311 365 OFFCURVE",
"340 409 CURVE",
"399 248 LINE",
"361 191 OFFCURVE",
"330 133 OFFCURVE",
"304 89 CURVE"
);
}
);
width = 530;
}
);
unicode = 25CA;
},
{
glyphname = at;
lastChange = "2016-07-25 08:03:28 +0000";
layers = (
{
layerId = "1677BB6F-42BC-4502-A615-23038A63E498";
paths = (
{
closed = 1;
nodes = (
"333 -145 CURVE SMOOTH",
"432 -145 OFFCURVE",
"540 -119 OFFCURVE",
"617 -75 CURVE SMOOTH",
"658 -51 OFFCURVE",
"628 14 OFFCURVE",
"585 -11 CURVE SMOOTH",
"509 -56 OFFCURVE",
"423 -73 OFFCURVE",
"343 -73 CURVE SMOOTH",
"168 -73 OFFCURVE",
"113 19 OFFCURVE",
"113 121 CURVE SMOOTH",
"113 302 OFFCURVE",
"258 478 OFFCURVE",
"462 478 CURVE SMOOTH",
"594 478 OFFCURVE",
"661 413 OFFCURVE",
"661 287 CURVE SMOOTH",
"661 215 OFFCURVE",
"606 75 OFFCURVE",
"535 85 CURVE SMOOTH",
"523 87 OFFCURVE",
"516 96 OFFCURVE",
"523 126 CURVE SMOOTH",
"579 347 LINE",
"590 390 OFFCURVE",
"577 410 OFFCURVE",
"541 409 CURVE SMOOTH",
"521 409 LINE",
"529 426 OFFCURVE",
"514 426 OFFCURVE",
"505 426 CURVE SMOOTH",
"367 426 OFFCURVE",
"199 298 OFFCURVE",
"199 125 CURVE SMOOTH",
"199 52 OFFCURVE",
"253 7 OFFCURVE",
"323 5 CURVE SMOOTH",
"382 3 OFFCURVE",
"422 28 OFFCURVE",
"459 76 CURVE",
"466 47 OFFCURVE",
"487 31 OFFCURVE",
"514 24 CURVE SMOOTH",
"619 0 OFFCURVE",
"731 123 OFFCURVE",
"731 294 CURVE SMOOTH",
"731 456 OFFCURVE",
"631 547 OFFCURVE",
"462 547 CURVE SMOOTH",
"249 547 OFFCURVE",
"33 362 OFFCURVE",
"33 123 CURVE SMOOTH",
"33 -17 OFFCURVE",
"117 -145 OFFCURVE"
);
},
{
closed = 1;
nodes = (
"340 73 CURVE SMOOTH",
"285 67 OFFCURVE",
"273 99 OFFCURVE",
"273 128 CURVE SMOOTH",
"273 263 OFFCURVE",
"387 363 OFFCURVE",
"503 351 CURVE",
"457 195 LINE",
"444 148 OFFCURVE",
"405 81 OFFCURVE"
);
}
);
width = 766;
}
);
unicode = 0040;
},
{
glyphname = ampersand;
lastChange = "2016-07-25 08:03:28 +0000";
layers = (
{
layerId = "1677BB6F-42BC-4502-A615-23038A63E498";
paths = (
{
closed = 1;
nodes = (
"468 -82 CURVE SMOOTH",
"519 -82 OFFCURVE",
"552 -57 OFFCURVE",
"552 -40 CURVE SMOOTH",
"552 -13 OFFCURVE",
"493 0 OFFCURVE",
"469 17 CURVE SMOOTH",
"456 28 OFFCURVE",
"434 48 OFFCURVE",
"405 75 CURVE",
"461 106 OFFCURVE",
"511 140 OFFCURVE",
"511 197 CURVE SMOOTH",
"511 238 OFFCURVE",
"447 252 OFFCURVE",
"444 226 CURVE SMOOTH",
"439 182 OFFCURVE",
"389 149 OFFCURVE",
"364 132 CURVE",
"334 175 OFFCURVE",
"294 240 OFFCURVE",
"266 293 CURVE",
"322 327 OFFCURVE",
"386 373 OFFCURVE",
"386 456 CURVE SMOOTH",
"386 522 OFFCURVE",
"335 563 OFFCURVE",
"267 563 CURVE SMOOTH",
"186 563 OFFCURVE",
"116 500 OFFCURVE",
"116 417 CURVE SMOOTH",
"116 369 OFFCURVE",
"142 316 OFFCURVE",
"160 282 CURVE",
"100 250 OFFCURVE",
"17 203 OFFCURVE",
"17 114 CURVE SMOOTH",
"17 -41 OFFCURVE",
"220 -41 OFFCURVE",
"327 28 CURVE",
"332 19 OFFCURVE",
"362 -25 OFFCURVE",
"399 -60 CURVE SMOOTH",
"419 -79 OFFCURVE",
"447 -82 OFFCURVE"
);
},
{
closed = 1;
nodes = (
"115 46 OFFCURVE",
"115 125 CURVE SMOOTH",
"115 176 OFFCURVE",
"148 218 OFFCURVE",
"181 243 CURVE",
"211 189 OFFCURVE",
"244 136 OFFCURVE",
"283 87 CURVE",
"223 45 OFFCURVE"
);
},
{
closed = 1;
nodes = (
"248 337 CURVE",
"234 365 OFFCURVE",
"220 398 OFFCURVE",
"220 423 CURVE SMOOTH",
"220 457 OFFCURVE",
"235 481 OFFCURVE",
"271 481 CURVE SMOOTH",
"298 481 OFFCURVE",
"314 473 OFFCURVE",
"314 449 CURVE SMOOTH",
"314 399 OFFCURVE",
"280 372 OFFCURVE"
);
}
);
width = 521;
}
);
unicode = 0026;
},
{
glyphname = paragraph;
lastChange = "2016-07-25 08:03:28 +0000";
layers = (
{
layerId = "1677BB6F-42BC-4502-A615-23038A63E498";
paths = (
{
closed = 1;
nodes = (
"239 9 CURVE SMOOTH",
"332 479 LINE",
"316 478 OFFCURVE",
"365 474 OFFCURVE",
"385 490 CURVE",
"298 31 LINE",
"285 -35 OFFCURVE",
"393 -43 OFFCURVE",
"402 4 CURVE SMOOTH",
"481 416 LINE",
"488 452 OFFCURVE",
"499 486 OFFCURVE",
"499 519 CURVE SMOOTH",
"499 603 OFFCURVE",
"377 603 OFFCURVE",
"294 603 CURVE SMOOTH",
"221 603 OFFCURVE",
"45 547 OFFCURVE",
"45 431 CURVE SMOOTH",
"45 342 OFFCURVE",
"140 299 OFFCURVE",
"192 299 CURVE",
"136 19 LINE",
"126 -36 OFFCURVE",
"227 -66 OFFCURVE"
);
}
);
width = 447;
}
);
unicode = 00B6;
},
{
glyphname = section;
lastChange = "2016-07-25 08:03:28 +0000";
layers = (
{
layerId = "1677BB6F-42BC-4502-A615-23038A63E498";
paths = (
{
closed = 1;
nodes = (
"233 -42 CURVE SMOOTH",
"312 -42 OFFCURVE",
"397 -8 OFFCURVE",
"397 72 CURVE SMOOTH",
"397 97 OFFCURVE",
"391 117 OFFCURVE",
"383 130 CURVE",
"405 150 OFFCURVE",
"426 172 OFFCURVE",
"426 214 CURVE SMOOTH",
"423 276 OFFCURVE",
"363 309 OFFCURVE",
"322 332 CURVE SMOOTH",
"295 347 OFFCURVE",
"224 369 OFFCURVE",
"224 400 CURVE SMOOTH",
"224 425 OFFCURVE",
"252 436 OFFCURVE",
"281 436 CURVE SMOOTH",
"318 436 OFFCURVE",
"356 421 OFFCURVE",
"356 388 CURVE SMOOTH",
"356 381 OFFCURVE",
"354 371 OFFCURVE",
"354 364 CURVE SMOOTH",
"354 344 OFFCURVE",
"369 329 OFFCURVE",
"388 329 CURVE SMOOTH",
"418 329 OFFCURVE",
"432 358 OFFCURVE",
"432 389 CURVE SMOOTH",
"432 461 OFFCURVE",
"364 511 OFFCURVE",
"291 511 CURVE SMOOTH",
"213 511 OFFCURVE",
"126 480 OFFCURVE",
"126 404 CURVE SMOOTH",
"126 375 OFFCURVE",
"138 355 OFFCURVE",
"152 342 CURVE",
"127 325 OFFCURVE",
"104 299 OFFCURVE",
"104 262 CURVE SMOOTH",
"104 213 OFFCURVE",
"141 193 OFFCURVE",
"171 176 CURVE SMOOTH",
"211 151 OFFCURVE",
"295 129 OFFCURVE",
"295 73 CURVE SMOOTH",
"295 43 OFFCURVE",
"268 31 OFFCURVE",
"235 31 CURVE SMOOTH",
"195 31 OFFCURVE",
"153 44 OFFCURVE",
"153 82 CURVE SMOOTH",
"153 97 OFFCURVE",
"161 111 OFFCURVE",
"161 126 CURVE SMOOTH",
"161 145 OFFCURVE",
"143 151 OFFCURVE",
"126 151 CURVE SMOOTH",
"92 151 OFFCURVE",
"71 115 OFFCURVE",
"71 80 CURVE SMOOTH",
"71 -5 OFFCURVE",
"150 -42 OFFCURVE"
);
},
{
closed = 1;
nodes = (
"325 184 CURVE",
"317 189 OFFCURVE",
"309 195 OFFCURVE",
"299 199 CURVE SMOOTH",
"272 214 OFFCURVE",
"192 230 OFFCURVE",
"192 264 CURVE SMOOTH",
"192 278 OFFCURVE",
"199 288 OFFCURVE",
"209 298 CURVE",
"224 290 OFFCURVE",
"237 281 OFFCURVE",
"253 275 CURVE SMOOTH",
"281 261 OFFCURVE",
"335 241 OFFCURVE",
"338 214 CURVE SMOOTH",
"338 201 OFFCURVE",
"333 193 OFFCURVE"
);
}
);
width = 492;
}
);
unicode = 00A7;
},
{
glyphname = copyright;
lastChange = "2016-07-25 08:03:28 +0000";
layers = (
{
layerId = "1677BB6F-42BC-4502-A615-23038A63E498";
paths = (
{
closed = 1;
nodes = (
"282 107 CURVE SMOOTH",
"327 107 OFFCURVE",
"363 128 OFFCURVE",
"389 146 CURVE SMOOTH",
"395 151 OFFCURVE",
"398 159 OFFCURVE",
"398 170 CURVE SMOOTH",
"398 185 OFFCURVE",
"387 213 OFFCURVE",
"366 203 CURVE",
"347 191 OFFCURVE",
"323 174 OFFCURVE",
"295 174 CURVE SMOOTH",
"267 174 OFFCURVE",
"255 199 OFFCURVE",
"255 229 CURVE SMOOTH",
"255 274 OFFCURVE",
"269 327 OFFCURVE",
"309 327 CURVE SMOOTH",
"316 327 OFFCURVE",
"310 307 OFFCURVE",
"310 289 CURVE SMOOTH",
"310 272 OFFCURVE",
"316 260 OFFCURVE",
"336 260 CURVE SMOOTH",
"369 260 OFFCURVE",
"384 291 OFFCURVE",
"384 323 CURVE SMOOTH",
"384 369 OFFCURVE",
"349 395 OFFCURVE",
"303 395 CURVE SMOOTH",
"201 395 OFFCURVE",
"172 301 OFFCURVE",
"172 225 CURVE SMOOTH",
"172 164 OFFCURVE",
"203 107 OFFCURVE"
);
},
{
closed = 1;
nodes = (
"285 74 CURVE SMOOTH",
"184 74 OFFCURVE",
"109 124 OFFCURVE",
"109 220 CURVE SMOOTH",
"109 341 OFFCURVE",
"198 423 OFFCURVE",
"322 423 CURVE SMOOTH",
"418 423 OFFCURVE",
"478 375 OFFCURVE",
"478 281 CURVE SMOOTH",
"478 165 OFFCURVE",
"402 74 OFFCURVE"
);
},
{
closed = 1;
nodes = (
"282 12 CURVE SMOOTH",
"451 12 OFFCURVE",
"550 125 OFFCURVE",
"550 284 CURVE SMOOTH",
"550 413 OFFCURVE",
"464 487 OFFCURVE",
"333 487 CURVE SMOOTH",
"168 487 OFFCURVE",
"38 389 OFFCURVE",
"38 224 CURVE SMOOTH",
"38 86 OFFCURVE",
"142 12 OFFCURVE"
);
}
);
width = 612;
}
);
unicode = 00A9;
},
{
glyphname = registered;
lastChange = "2016-07-25 08:03:28 +0000";
layers = (
{
layerId = "1677BB6F-42BC-4502-A615-23038A63E498";
paths = (
{
closed = 1;
nodes = (
"334 134 CURVE SMOOTH",
"339 94 OFFCURVE",
"413 96 OFFCURVE",
"407 140 CURVE SMOOTH",
"389 300 LINE",
"343 263 LINE",
"416 269 OFFCURVE",
"464 306 OFFCURVE",
"463 359 CURVE SMOOTH",
"461 410 OFFCURVE",
"417 431 OFFCURVE",
"363 431 CURVE SMOOTH",
"340 431 OFFCURVE",
"292 426 OFFCURVE",
"274 427 CURVE",
"237 314 LINE",
"229 314 OFFCURVE",
"233 315 OFFCURVE",
"224 315 CURVE SMOOTH",
"217 314 OFFCURVE",
"213 305 OFFCURVE",
"213 299 CURVE SMOOTH",
"213 289 OFFCURVE",
"219 286 OFFCURVE",
"227 279 CURVE",
"196 160 LINE",
"185 122 OFFCURVE",
"250 97 OFFCURVE",
"264 149 CURVE SMOOTH",
"292 263 LINE",
"282 264 OFFCURVE",
"326 265 OFFCURVE",
"318 265 CURVE",
"321 255 OFFCURVE",
"328 175 OFFCURVE"
);
},
{
closed = 1;
nodes = (
"325 75 CURVE SMOOTH",
"210 75 OFFCURVE",
"125 131 OFFCURVE",
"125 248 CURVE SMOOTH",
"125 371 OFFCURVE",
"204 471 OFFCURVE",
"384 467 CURVE SMOOTH",
"482 466 OFFCURVE",
"537 414 OFFCURVE",
"537 319 CURVE SMOOTH",
"537 186 OFFCURVE",
"458 75 OFFCURVE"
);
},
{
closed = 1;
nodes = (
"327 9 CURVE SMOOTH",
"463 9 OFFCURVE",
"616 111 OFFCURVE",
"616 314 CURVE SMOOTH",
"616 459 OFFCURVE",
"520 528 OFFCURVE",
"377 533 CURVE SMOOTH",
"196 539 OFFCURVE",
"54 433 OFFCURVE",
"54 248 CURVE SMOOTH",
"54 97 OFFCURVE",
"169 9 OFFCURVE"
);
},
{
closed = 1;
nodes = (
"308 309 CURVE",
"326 378 LINE",
"341 378 LINE",
"380 378 OFFCURVE",
"395 369 OFFCURVE",
"397 352 CURVE SMOOTH",
"400 328 OFFCURVE",
"337 305 OFFCURVE"
);
}
);
width = 636;
}
);
unicode = 00AE;
},
{
glyphname = trademark;
lastChange = "2016-07-25 08:03:28 +0000";
layers = (
{
layerId = "1677BB6F-42BC-4502-A615-23038A63E498";
paths = (
{
closed = 1;
nodes = (
"641 349 CURVE SMOOTH",
"617 358 OFFCURVE",
"672 467 OFFCURVE",
"682 531 CURVE SMOOTH",
"688 577 OFFCURVE",
"657 608 OFFCURVE",
"611 608 CURVE SMOOTH",
"567 608 OFFCURVE",
"543 572 OFFCURVE",
"525 529 CURVE",
"527 571 OFFCURVE",
"505 614 OFFCURVE",
"454 608 CURVE SMOOTH",
"411 603 OFFCURVE",
"369 541 OFFCURVE",
"337 473 CURVE",
"345 497 OFFCURVE",
"363 554 OFFCURVE",
"364 567 CURVE SMOOTH",
"366 606 OFFCURVE",
"281 608 OFFCURVE",
"229 608 CURVE SMOOTH",
"135 608 OFFCURVE",
"27 601 OFFCURVE",
"27 504 CURVE SMOOTH",
"27 483 OFFCURVE",
"38 468 OFFCURVE",
"61 468 CURVE SMOOTH",
"86 468 OFFCURVE",
"104 481 OFFCURVE",
"104 504 CURVE SMOOTH",
"104 539 OFFCURVE",
"134 548 OFFCURVE",
"183 548 CURVE",
"119 353 LINE",
"108 322 OFFCURVE",
"117 303 OFFCURVE",
"141 300 CURVE SMOOTH",
"168 298 OFFCURVE",
"175 316 OFFCURVE",
"181 341 CURVE SMOOTH",
"197 414 OFFCURVE",
"216 467 OFFCURVE",
"237 548 CURVE",
"256 548 OFFCURVE",
"289 547 OFFCURVE",
"309 544 CURVE",
"309 544 OFFCURVE",
"265 415 OFFCURVE",
"248 340 CURVE SMOOTH",
"243 315 OFFCURVE",
"272 297 OFFCURVE",
"296 297 CURVE SMOOTH",
"316 297 OFFCURVE",
"324 317 OFFCURVE",
"330 332 CURVE SMOOTH",
"342 360 OFFCURVE",
"354 393 OFFCURVE",
"365 423 CURVE SMOOTH",
"390 487 OFFCURVE",
"415 530 OFFCURVE",
"439 537 CURVE SMOOTH",
"456 540 OFFCURVE",
"461 524 OFFCURVE",
"455 487 CURVE SMOOTH",
"447 445 OFFCURVE",
"431 393 OFFCURVE",
"417 339 CURVE SMOOTH",
"413 318 OFFCURVE",
"430 297 OFFCURVE",
"462 297 CURVE SMOOTH",
"480 297 OFFCURVE",
"489 309 OFFCURVE",
"494 325 CURVE SMOOTH",
"519 407 OFFCURVE",
"537 539 OFFCURVE",
"596 533 CURVE SMOOTH",
"610 531 OFFCURVE",
"614 515 OFFCURVE",
"613 508 CURVE SMOOTH",
"600 456 OFFCURVE",
"582 400 OFFCURVE",
"573 353 CURVE SMOOTH",
"566 320 OFFCURVE",
"591 299 OFFCURVE",
"625 293 CURVE SMOOTH",
"670 286 OFFCURVE",
"711 320 OFFCURVE",
"737 359 CURVE SMOOTH",
"764 402 OFFCURVE",
"710 419 OFFCURVE",
"695 396 CURVE SMOOTH",
"680 372 OFFCURVE",
"660 343 OFFCURVE"
);
}
);
width = 937;
}
);
unicode = 2122;
},
{
glyphname = degree;
lastChange = "2016-07-25 08:03:28 +0000";
layers = (
{
layerId = "1677BB6F-42BC-4502-A615-23038A63E498";
paths = (
{
closed = 1;
nodes = (
"111 415 CURVE SMOOTH",
"89 415 OFFCURVE",
"77 429 OFFCURVE",
"77 450 CURVE SMOOTH",
"77 484 OFFCURVE",
"106 505 OFFCURVE",
"141 505 CURVE SMOOTH",
"160 505 OFFCURVE",
"170 494 OFFCURVE",
"170 475 CURVE SMOOTH",
"170 440 OFFCURVE",
"146 415 OFFCURVE"
);
},
{
closed = 1;
nodes = (
"111 356 CURVE SMOOTH",
"182 356 OFFCURVE",
"233 407 OFFCURVE",
"233 479 CURVE SMOOTH",
"233 529 OFFCURVE",
"199 562 OFFCURVE",
"150 562 CURVE SMOOTH",
"83 562 OFFCURVE",
"18 520 OFFCURVE",
"18 450 CURVE SMOOTH",
"18 393 OFFCURVE",
"56 356 OFFCURVE"
);
}
);
width = 251;
}
);
unicode = 00B0;
},
{
glyphname = bar;
lastChange = "2016-07-25 08:03:28 +0000";
layers = (
{
layerId = "1677BB6F-42BC-4502-A615-23038A63E498";
paths = (
{
closed = 1;
nodes = (
"191 -3 LINE SMOOTH",
"175 -66 OFFCURVE",
"260 -83 OFFCURVE",
"275 -22 CURVE SMOOTH",
"439 649 LINE SMOOTH",
"455 719 OFFCURVE",
"379 733 OFFCURVE",
"361 661 CURVE SMOOTH"
);
}
);
width = 460;
}
);
unicode = 007C;
},
{
glyphname = brokenbar;
lastChange = "2016-07-25 08:03:28 +0000";
layers = (
{
layerId = "1677BB6F-42BC-4502-A615-23038A63E498";
paths = (
{
closed = 1;
nodes = (
"61 -3 LINE SMOOTH",
"45 -65 OFFCURVE",
"130 -83 OFFCURVE",
"145 -22 CURVE SMOOTH",
"204 223 LINE SMOOTH",
"221 293 OFFCURVE",
"140 310 OFFCURVE",
"122 238 CURVE SMOOTH"
);
},
{
closed = 1;
nodes = (
"164 424 LINE SMOOTH",
"146 361 OFFCURVE",
"231 344 OFFCURVE",
"248 405 CURVE SMOOTH",
"313 643 LINE SMOOTH",
"327 695 OFFCURVE",
"249 726 OFFCURVE",
"231 661 CURVE SMOOTH"
);
}
);
width = 350;
}
);
unicode = 00A6;
},
{
glyphname = dagger;
lastChange = "2016-07-25 08:03:28 +0000";
layers = (
{
layerId = "1677BB6F-42BC-4502-A615-23038A63E498";
paths = (
{
closed = 1;
nodes = (
"146 -17 LINE SMOOTH",
"130 -80 OFFCURVE",
"142 -97 OFFCURVE",
"175 -100 CURVE SMOOTH",
"213 -103 OFFCURVE",
"229 -67 OFFCURVE",
"238 -32 CURVE SMOOTH",
"316 273 LINE",
"409 273 LINE",
"434 273 OFFCURVE",
"453 281 OFFCURVE",
"453 306 CURVE SMOOTH",
"453 324 OFFCURVE",
"437 337 OFFCURVE",
"415 337 CURVE SMOOTH",
"328 337 LINE",
"356 451 OFFCURVE",
"364 464 OFFCURVE",
"359 500 CURVE SMOOTH",
"356 507 OFFCURVE",
"349 522 OFFCURVE",
"329 521 CURVE SMOOTH",
"277 518 OFFCURVE",
"271 482 OFFCURVE",
"234 337 CURVE",
"138 337 LINE",
"113 337 OFFCURVE",
"95 324 OFFCURVE",
"95 303 CURVE SMOOTH",
"95 282 OFFCURVE",
"111 273 OFFCURVE",
"135 273 CURVE SMOOTH",
"218 273 LINE"
);
}
);
width = 394;
}
);
unicode = 2020;
},
{
glyphname = daggerdbl;
lastChange = "2016-07-25 08:03:28 +0000";
layers = (
{
layerId = "1677BB6F-42BC-4502-A615-23038A63E498";
paths = (
{
closed = 1;
nodes = (
"146 -17 LINE SMOOTH",
"130 -80 OFFCURVE",
"142 -97 OFFCURVE",
"175 -100 CURVE SMOOTH",
"213 -103 OFFCURVE",
"229 -67 OFFCURVE",
"238 -32 CURVE SMOOTH",
"316 273 LINE",
"409 273 LINE SMOOTH",
"436 273 OFFCURVE",
"453 281 OFFCURVE",
"453 306 CURVE SMOOTH",
"453 324 OFFCURVE",
"437 337 OFFCURVE",
"415 337 CURVE SMOOTH",
"328 337 LINE",
"356 451 OFFCURVE",
"364 464 OFFCURVE",
"359 500 CURVE SMOOTH",
"356 507 OFFCURVE",
"349 522 OFFCURVE",
"329 521 CURVE SMOOTH",
"277 518 OFFCURVE",
"271 482 OFFCURVE",
"234 337 CURVE",
"138 337 LINE SMOOTH",
"109 337 OFFCURVE",
"95 324 OFFCURVE",
"95 303 CURVE SMOOTH",
"95 282 OFFCURVE",
"111 273 OFFCURVE",
"135 273 CURVE SMOOTH",
"218 273 LINE"
);
},
{
closed = 1;
nodes = (
"90 142 LINE SMOOTH",
"65 142 OFFCURVE",
"47 129 OFFCURVE",
"47 108 CURVE SMOOTH",
"47 87 OFFCURVE",
"63 78 OFFCURVE",
"87 78 CURVE SMOOTH",
"361 78 LINE SMOOTH",
"386 78 OFFCURVE",
"405 86 OFFCURVE",
"405 111 CURVE SMOOTH",
"405 129 OFFCURVE",
"389 142 OFFCURVE",
"367 142 CURVE SMOOTH"
);
}
);
width = 394;
}
);
unicode = 2021;
},
{
glyphname = estimated;
lastChange = "2016-07-25 08:03:28 +0000";
layers = (
{
layerId = "1677BB6F-42BC-4502-A615-23038A63E498";
paths = (
{
closed = 1;
nodes = (
"297 56 OFFCURVE",
"407 140 CURVE SMOOTH",
"420 150 OFFCURVE",
"402 172 OFFCURVE",
"394 166 CURVE SMOOTH",
"299 100 OFFCURVE",
"188 139 OFFCURVE",
"188 239 CURVE",
"329 224 OFFCURVE",
"402 280 OFFCURVE",
"402 348 CURVE SMOOTH",
"402 392 OFFCURVE",
"374 452 OFFCURVE",
"290 447 CURVE SMOOTH",
"216 443 OFFCURVE",
"128 386 OFFCURVE",
"133 248 CURVE SMOOTH",
"138 97 OFFCURVE"
);
},
{
closed = 1;
nodes = (
"188 260 CURVE",
"188 368 OFFCURVE",
"239 424 OFFCURVE",
"287 424 CURVE SMOOTH",
"325 424 OFFCURVE",
"349 393 OFFCURVE",
"349 357 CURVE SMOOTH",
"349 309 OFFCURVE",
"306 253 OFFCURVE"
);
}
);
width = 526;
}
);
unicode = 212E;
},
{
glyphname = asciicircum;
lastChange = "2016-07-25 08:03:28 +0000";
layers = (
{
layerId = "1677BB6F-42BC-4502-A615-23038A63E498";
paths = (
{
closed = 1;
nodes = (
"68 164 CURVE SMOOTH",
"66 164 OFFCURVE",
"101 180 OFFCURVE",
"114 203 CURVE",
"111 196 OFFCURVE",
"215 389 OFFCURVE",
"200 373 CURVE",
"190 389 OFFCURVE",
"267 206 OFFCURVE",
"263 216 CURVE",
"271 198 OFFCURVE",
"289 168 OFFCURVE",
"319 168 CURVE SMOOTH",
"346 168 OFFCURVE",
"365 199 OFFCURVE",
"352 234 CURVE SMOOTH",
"329 295 OFFCURVE",
"301 354 OFFCURVE",
"275 408 CURVE SMOOTH",
"259 439 OFFCURVE",
"239 465 OFFCURVE",
"194 465 CURVE SMOOTH",
"149 465 OFFCURVE",
"130 421 OFFCURVE",
"113 390 CURVE SMOOTH",
"95 356 OFFCURVE",
"76 321 OFFCURVE",
"57 286 CURVE SMOOTH",
"47 265 OFFCURVE",
"26 242 OFFCURVE",
"26 212 CURVE SMOOTH",
"26 195 OFFCURVE",
"65 164 OFFCURVE"
);
}
);
width = 372;
}
);
unicode = 005E;
},
{
glyphname = uni0307;
lastChange = "2016-07-25 08:03:28 +0000";
layers = (
{
layerId = "1677BB6F-42BC-4502-A615-23038A63E498";
paths = (
{
closed = 1;
nodes = (
"114 459 CURVE SMOOTH",
"141 459 OFFCURVE",
"167 484 OFFCURVE",
"167 513 CURVE SMOOTH",
"167 536 OFFCURVE",
"145 557 OFFCURVE",
"119 557 CURVE SMOOTH",
"93 557 OFFCURVE",
"67 532 OFFCURVE",
"67 505 CURVE SMOOTH",
"67 480 OFFCURVE",
"91 459 OFFCURVE"
);
}
);
width = 205;
}
);
unicode = 0307;
},
{
glyphname = uni030F;
lastChange = "2016-07-25 08:03:28 +0000";
layers = (
{
layerId = "1677BB6F-42BC-4502-A615-23038A63E498";
paths = (
{
closed = 1;
nodes = (
"74 364 LINE",
"97 339 OFFCURVE",
"146 363 OFFCURVE",
"125 396 CURVE SMOOTH",
"-14 602 LINE",
"-60 673 OFFCURVE",
"-146 612 OFFCURVE",
"-93 552 CURVE SMOOTH"
);
},
{
closed = 1;
nodes = (
"232 380 LINE",
"253 352 OFFCURVE",
"301 377 OFFCURVE",
"283 412 CURVE SMOOTH",
"201 602 LINE",
"168 678 OFFCURVE",
"74 620 OFFCURVE",
"119 552 CURVE SMOOTH"
);
}
);
width = 205;
}
);
unicode = 030F;
},
{
glyphname = uni0311;
lastChange = "2016-07-25 08:03:28 +0000";
layers = (
{
layerId = "1677BB6F-42BC-4502-A615-23038A63E498";
paths = (
{
closed = 1;
nodes = (
"64 461 CURVE SMOOTH",
"72 497 OFFCURVE",
"161 502 OFFCURVE",
"155 471 CURVE SMOOTH",
"148 441 OFFCURVE",
"208 439 OFFCURVE",
"212 471 CURVE SMOOTH",
"220 533 OFFCURVE",
"183 560 OFFCURVE",
"117 561 CURVE SMOOTH",
"78 561 OFFCURVE",
"20 539 OFFCURVE",
"10 466 CURVE SMOOTH",
"7 444 OFFCURVE",
"61 446 OFFCURVE"
);
}
);
width = 205;
}
);
unicode = 0311;
},
{
glyphname = uni0358;
lastChange = "2016-07-25 08:03:28 +0000";
layers = (
{
layerId = "1677BB6F-42BC-4502-A615-23038A63E498";
paths = (
{
closed = 1;
nodes = (
"114 459 CURVE SMOOTH",
"141 459 OFFCURVE",
"167 484 OFFCURVE",
"167 513 CURVE SMOOTH",
"167 536 OFFCURVE",
"145 557 OFFCURVE",
"119 557 CURVE SMOOTH",
"93 557 OFFCURVE",
"67 532 OFFCURVE",
"67 505 CURVE SMOOTH",
"67 480 OFFCURVE",
"91 459 OFFCURVE"
);
}
);
width = 205;
}
);
unicode = 0358;
},
{
glyphname = firsttonechinese;
lastChange = "2016-07-25 08:03:28 +0000";
layers = (
{
layerId = "1677BB6F-42BC-4502-A615-23038A63E498";
paths = (
{
closed = 1;
nodes = (
"-26 597 CURVE SMOOTH",
"46 613 OFFCURVE",
"140 614 OFFCURVE",
"204 606 CURVE SMOOTH",
"232 602 OFFCURVE",
"242 607 OFFCURVE",
"247 624 CURVE SMOOTH",
"254 653 OFFCURVE",
"234 662 OFFCURVE",
"218 669 CURVE",
"148 688 OFFCURVE",
"39 691 OFFCURVE",
"-17 683 CURVE SMOOTH",
"-63 676 OFFCURVE",
"-68 647 OFFCURVE",
"-66 629 CURVE SMOOTH",
"-66 610 OFFCURVE",
"-49 590 OFFCURVE"
);
}
);
width = 205;
}
);
unicode = 02C9;
},
{
glyphname = acute;
lastChange = "2016-07-25 08:03:28 +0000";
layers = (
{
layerId = "1677BB6F-42BC-4502-A615-23038A63E498";
paths = (
{
closed = 1;
nodes = (
"153 428 CURVE SMOOTH",
"263 554 LINE",
"310 605 OFFCURVE",
"214 668 OFFCURVE",
"185 610 CURVE SMOOTH",
"115 458 LINE",
"93 417 OFFCURVE",
"128 402 OFFCURVE"
);
}
);
width = 208;
}
);
unicode = 00B4;
userData = {
com.typemytype.robofont.layerData = {
};
};
},
{
glyphname = breve;
lastChange = "2016-07-25 08:03:28 +0000";
layers = (
{
layerId = "1677BB6F-42BC-4502-A615-23038A63E498";
paths = (
{
closed = 1;
nodes = (
"176 553 CURVE SMOOTH",
"177 493 OFFCURVE",
"75 490 OFFCURVE",
"73 544 CURVE SMOOTH",
"73 574 OFFCURVE",
"17 574 OFFCURVE",
"16 540 CURVE SMOOTH",
"16 490 OFFCURVE",
"46 451 OFFCURVE",
"127 451 CURVE SMOOTH",
"182 450 OFFCURVE",
"228 486 OFFCURVE",
"229 551 CURVE SMOOTH",
"230 572 OFFCURVE",
"176 567 OFFCURVE"
);
}
);
width = 205;
}
);
unicode = 02D8;
},
{
glyphname = caron;
lastChange = "2016-07-25 08:03:28 +0000";
layers = (
{
layerId = "1677BB6F-42BC-4502-A615-23038A63E498";
paths = (
{
closed = 1;
nodes = (
"144 476 CURVE SMOOTH",
"200 478 OFFCURVE",
"211 524 OFFCURVE",
"224 556 CURVE SMOOTH",
"261 665 LINE",
"273 692 OFFCURVE",
"248 720 OFFCURVE",
"233 718 CURVE SMOOTH",
"187 717 OFFCURVE",
"176 695 OFFCURVE",
"170 667 CURVE SMOOTH",
"142 598 OFFCURVE",
"172 614 OFFCURVE",
"145 542 CURVE",
"142 532 OFFCURVE",
"134 719 OFFCURVE",
"62 719 CURVE SMOOTH",
"24 719 OFFCURVE",
"4 676 OFFCURVE",
"15 662 CURVE",
"33 606 OFFCURVE",
"40 619 OFFCURVE",
"56 567 CURVE SMOOTH",
"70 536 OFFCURVE",
"83 475 OFFCURVE"
);
}
);
width = 295;
}
);
unicode = 02C7;
},
{
glyphname = cedilla;
lastChange = "2016-07-25 08:03:28 +0000";
layers = (
{
anchors = (
{
name = _bot;
position = "{219, 77}";
}
);
layerId = "1677BB6F-42BC-4502-A615-23038A63E498";
paths = (
{
closed = 1;
nodes = (
"184 -125 CURVE SMOOTH",
"229 5 LINE",
"234 22 OFFCURVE",
"219 36 OFFCURVE",
"203 15 CURVE SMOOTH",
"110 -103 LINE",
"75 -150 OFFCURVE",
"162 -188 OFFCURVE"
);
}
);
width = 404;
}
);
unicode = 00B8;
},
{
glyphname = circumflex;
lastChange = "2016-07-25 08:03:28 +0000";
layers = (
{
layerId = "1677BB6F-42BC-4502-A615-23038A63E498";
paths = (
{
closed = 1;
nodes = (
"186 421 CURVE",
"183 378 OFFCURVE",
"271 365 OFFCURVE",
"255 437 CURVE SMOOTH",
"228 528 LINE",
"215 589 OFFCURVE",
"205 627 OFFCURVE",
"158 625 CURVE SMOOTH",
"93 623 OFFCURVE",
"97 596 OFFCURVE",
"68 541 CURVE SMOOTH",
"91 573 OFFCURVE",
"17 445 OFFCURVE",
"28 459 CURVE",
"23 452 OFFCURVE",
"22 444 OFFCURVE",
"23 436 CURVE SMOOTH",
"28 409 OFFCURVE",
"76 403 OFFCURVE",
"87 427 CURVE SMOOTH",
"84 424 OFFCURVE",
"206 644 OFFCURVE",
"148 560 CURVE",
"140 645 OFFCURVE",
"200 416 OFFCURVE"
);
}
);
width = 295;
}
);
unicode = 02C6;
},
{
glyphname = dieresis;
lastChange = "2016-07-25 08:03:28 +0000";
layers = (
{
layerId = "1677BB6F-42BC-4502-A615-23038A63E498";
paths = (
{
closed = 1;
nodes = (
"5 372 CURVE SMOOTH",
"21 372 OFFCURVE",
"56 384 OFFCURVE",
"56 420 CURVE SMOOTH",
"56 442 OFFCURVE",
"51 458 OFFCURVE",
"12 458 CURVE SMOOTH",
"-2 458 OFFCURVE",
"-37 446 OFFCURVE",
"-37 410 CURVE SMOOTH",
"-37 387 OFFCURVE",
"-31 372 OFFCURVE"
);
},
{
closed = 1;
nodes = (
"189 372 CURVE SMOOTH",
"204 372 OFFCURVE",
"241 384 OFFCURVE",
"241 420 CURVE SMOOTH",
"241 442 OFFCURVE",
"234 458 OFFCURVE",
"196 458 CURVE SMOOTH",
"182 458 OFFCURVE",
"147 446 OFFCURVE",
"147 410 CURVE SMOOTH",
"147 387 OFFCURVE",
"153 372 OFFCURVE"
);
}
);
width = 350;
}
);
unicode = 00A8;
},
{
glyphname = dotaccent;
lastChange = "2016-07-25 08:03:28 +0000";
layers = (
{
layerId = "1677BB6F-42BC-4502-A615-23038A63E498";
paths = (
{
closed = 1;
nodes = (
"114 459 CURVE SMOOTH",
"141 459 OFFCURVE",
"167 484 OFFCURVE",
"167 513 CURVE SMOOTH",
"167 536 OFFCURVE",
"145 557 OFFCURVE",
"119 557 CURVE SMOOTH",
"93 557 OFFCURVE",
"67 532 OFFCURVE",
"67 505 CURVE SMOOTH",
"67 480 OFFCURVE",
"91 459 OFFCURVE"
);
}
);
width = 240;
}
);
unicode = 02D9;
},
{
glyphname = grave;
lastChange = "2016-07-25 08:03:28 +0000";
layers = (
{
layerId = "1677BB6F-42BC-4502-A615-23038A63E498";
paths = (
{
closed = 1;
nodes = (
"125 442 CURVE SMOOTH",
"140 412 OFFCURVE",
"18 605 OFFCURVE",
"31 573 CURVE",
"-7 631 OFFCURVE",
"-87 555 OFFCURVE",
"-37 519 CURVE SMOOTH",
"-53 541 OFFCURVE",
"116 387 OFFCURVE",
"97 410 CURVE",
"110 398 OFFCURVE",
"125 401 OFFCURVE",
"131 409 CURVE SMOOTH",
"137 417 OFFCURVE",
"139 426 OFFCURVE"
);
}
);
width = 208;
}
);
unicode = 0060;
userData = {
com.typemytype.robofont.layerData = {
};
};
},
{
glyphname = hungarumlaut;
lastChange = "2016-07-25 08:03:28 +0000";
layers = (
{
layerId = "1677BB6F-42BC-4502-A615-23038A63E498";
paths = (
{
closed = 1;
nodes = (
"95 380 CURVE SMOOTH",
"116 410 OFFCURVE",
"192 513 OFFCURVE",
"213 540 CURVE SMOOTH",
"275 622 OFFCURVE",
"171 661 OFFCURVE",
"138 600 CURVE SMOOTH",
"124 574 OFFCURVE",
"58 443 OFFCURVE",
"46 418 CURVE SMOOTH",
"26 377 OFFCURVE",
"75 352 OFFCURVE"
);
},
{
closed = 1;
nodes = (
"268 364 CURVE SMOOTH",
"297 397 OFFCURVE",
"414 532 OFFCURVE",
"436 555 CURVE SMOOTH",
"483 606 OFFCURVE",
"411 677 OFFCURVE",
"356 601 CURVE SMOOTH",
"335 572 OFFCURVE",
"238 430 OFFCURVE",
"219 402 CURVE SMOOTH",
"193 370 OFFCURVE",
"245 338 OFFCURVE"
);
}
);
width = 350;
}
);
unicode = 02DD;
},
{
glyphname = macron;
lastChange = "2016-07-25 08:03:28 +0000";
layers = (
{
layerId = "1677BB6F-42BC-4502-A615-23038A63E498";
paths = (
{
closed = 1;
nodes = (
"-26 597 CURVE SMOOTH",
"46 613 OFFCURVE",
"147 606 OFFCURVE",
"204 606 CURVE SMOOTH",
"233 606 OFFCURVE",
"242 607 OFFCURVE",
"247 624 CURVE SMOOTH",
"254 653 OFFCURVE",
"234 662 OFFCURVE",
"218 669 CURVE SMOOTH",
"172 687 OFFCURVE",
"58 694 OFFCURVE",
"-17 683 CURVE SMOOTH",
"-63 676 OFFCURVE",
"-68 647 OFFCURVE",
"-66 629 CURVE SMOOTH",
"-66 610 OFFCURVE",
"-49 590 OFFCURVE"
);
}
);
width = 205;
}
);
unicode = 00AF;
},
{
glyphname = ogonek;
lastChange = "2016-07-25 08:03:28 +0000";
layers = (
{
anchors = (
{
name = _ogonek;
position = "{127, 0}";
}
);
layerId = "1677BB6F-42BC-4502-A615-23038A63E498";
paths = (
{
closed = 1;
nodes = (
"91 -157 CURVE SMOOTH",
"112 -158 OFFCURVE",
"160 -156 OFFCURVE",
"193 -130 CURVE SMOOTH",
"200 -124 OFFCURVE",
"200 -108 OFFCURVE",
"200 -98 CURVE SMOOTH",
"200 -86 OFFCURVE",
"194 -64 OFFCURVE",
"186 -71 CURVE SMOOTH",
"157 -90 OFFCURVE",
"137 -91 OFFCURVE",
"131 -92 CURVE SMOOTH",
"118 -90 OFFCURVE",
"112 -85 OFFCURVE",
"110 -79 CURVE SMOOTH",
"104 -41 OFFCURVE",
"149 3 OFFCURVE",
"156 11 CURVE",
"134 11 LINE",
"73 -16 OFFCURVE",
"37 -50 OFFCURVE",
"40 -100 CURVE SMOOTH",
"41 -139 OFFCURVE",
"62 -156 OFFCURVE"
);
}
);
width = 183;
}
);
unicode = 02DB;
userData = {
com.typemytype.robofont.layerData = {
};
};
},
{
glyphname = ring;
lastChange = "2016-07-25 08:03:28 +0000";
layers = (
{
layerId = "1677BB6F-42BC-4502-A615-23038A63E498";
paths = (
{
closed = 1;
nodes = (
"123 431 CURVE SMOOTH",
"105 431 OFFCURVE",
"93 443 OFFCURVE",
"93 460 CURVE SMOOTH",
"93 489 OFFCURVE",
"117 507 OFFCURVE",
"147 507 CURVE SMOOTH",
"164 507 OFFCURVE",
"172 497 OFFCURVE",
"172 482 CURVE SMOOTH",
"172 453 OFFCURVE",
"152 431 OFFCURVE"
);
},
{
closed = 1;
nodes = (
"123 376 CURVE SMOOTH",
"187 376 OFFCURVE",
"233 421 OFFCURVE",
"233 487 CURVE SMOOTH",
"233 531 OFFCURVE",
"203 560 OFFCURVE",
"159 560 CURVE SMOOTH",
"98 560 OFFCURVE",
"40 521 OFFCURVE",
"40 460 CURVE SMOOTH",
"40 408 OFFCURVE",
"72 376 OFFCURVE"
);
}
);
width = 251;
}
);
unicode = 02DA;
userData = {
com.typemytype.robofont.layerData = {
};
};
},
{
glyphname = tilde;
lastChange = "2016-07-25 08:03:28 +0000";
layers = (
{
layerId = "1677BB6F-42BC-4502-A615-23038A63E498";
paths = (
{
closed = 1;
nodes = (
"226 386 CURVE SMOOTH",
"271 386 OFFCURVE",
"318 440 OFFCURVE",
"318 483 CURVE SMOOTH",
"318 504 OFFCURVE",
"300 516 OFFCURVE",
"282 516 CURVE SMOOTH",
"245 516 OFFCURVE",
"229 481 OFFCURVE",
"220 462 CURVE",
"205 475 OFFCURVE",
"193 484 OFFCURVE",
"183 492 CURVE SMOOTH",
"163 508 OFFCURVE",
"146 527 OFFCURVE",
"111 527 CURVE SMOOTH",
"65 527 OFFCURVE",
"18 473 OFFCURVE",
"18 430 CURVE SMOOTH",
"18 409 OFFCURVE",
"36 397 OFFCURVE",
"55 397 CURVE SMOOTH",
"89 397 OFFCURVE",
"107 430 OFFCURVE",
"117 450 CURVE",
"131 438 OFFCURVE",
"144 428 OFFCURVE",
"154 421 CURVE SMOOTH",
"173 405 OFFCURVE",
"191 386 OFFCURVE"
);
}
);
width = 328;
}
);
unicode = 02DC;
},
